<?xml version="1.0" encoding="UTF-8" standalone="no"?>
<!-- Created with Inkscape (http://www.inkscape.org/) -->

<svg
   version="1.1"
   id="svg2"
   width="551"
   height="569.09332"
   viewBox="0 0 551 569.09332"
   sodipodi:docname="5216331.eps"
   xmlns:inkscape="http://www.inkscape.org/namespaces/inkscape"
   xmlns:sodipodi="http://sodipodi.sourceforge.net/DTD/sodipodi-0.dtd"
   xmlns="http://www.w3.org/2000/svg"
   xmlns:svg="http://www.w3.org/2000/svg">
  <defs
     id="defs6">
    <clipPath
       clipPathUnits="userSpaceOnUse"
       id="clipPath244">
      <path
         d="m 2622.23,687.012 v 0 c 1.77,6.277 86.24,614.908 86.53,617.008 v 0 c -0.29,-2.1 -84.76,-610.731 -86.53,-617.008 m 86.53,617.008 v 0 0"
         id="path242" />
    </clipPath>
  </defs>
  <sodipodi:namedview
     id="namedview4"
     pagecolor="#ffffff"
     bordercolor="#000000"
     borderopacity="0.25"
     inkscape:showpageshadow="2"
     inkscape:pageopacity="0.0"
     inkscape:pagecheckerboard="0"
     inkscape:deskcolor="#d1d1d1" />
  <g
     id="g8"
     inkscape:groupmode="layer"
     inkscape:label="ink_ext_XXXXXX"
     transform="matrix(1.3333333,0,0,-1.3333333,0,569.09333)">
    <g
       id="g10"
       transform="scale(0.1)">
      <path
         d="m 492.629,1529.71 -1.422,63.75 c -0.449,21.03 -1.125,41.85 -1.309,62.58 l 2.731,-2.73 c -49.832,-0.52 -99.66,-1.59 -149.484,-1.64 l -149.481,-0.62 4.992,4.99 -0.535,-126.33 -4.457,4.45 c 24.66,-0.17 49.27,-0.08 73.996,-0.55 l 74.332,-1.12 150.637,-2.78 m 0,0 -148.332,-2.79 -75.145,-1.12 c -25.105,-0.48 -50.324,-0.38 -75.488,-0.55 l -4.441,-0.03 -0.02,4.49 -0.535,126.33 -0.02,5.02 5.016,-0.02 149.481,-0.64 c 49.824,-0.05 99.652,-1.12 149.484,-1.63 l 2.754,-0.03 -0.028,-2.7 c -0.187,-21.4 -0.859,-42.68 -1.308,-63.75 l -1.418,-62.58"
         style="fill:#e7e8e5;fill-opacity:1;fill-rule:nonzero;stroke:none"
         id="path12" />
      <path
         d="m 325.855,1370.41 -1.421,63.75 c -0.45,21.04 -1.121,41.86 -1.309,62.58 l 2.73,-2.73 c -49.828,-0.51 -99.656,-1.59 -149.484,-1.64 l -149.4804,-0.62 4.9961,4.99 -0.539,-126.33 -4.4571,4.45 c 24.668,-0.17 49.2735,-0.07 74.0004,-0.54 l 74.328,-1.12 z m 0,0 -148.332,-2.79 -75.144,-1.12 c -25.1017,-0.47 -50.3243,-0.38 -75.4884,-0.55 l -4.4375,-0.03 -0.0195,4.49 -0.5391,126.33 -0.0195,5.01 5.0156,-0.02 149.4804,-0.62 c 49.828,-0.05 99.656,-1.13 149.484,-1.65 l 2.754,-0.02 -0.023,-2.7 c -0.188,-21.4 -0.859,-42.68 -1.309,-63.76 l -1.422,-62.57"
         style="fill:#e7e8e5;fill-opacity:1;fill-rule:nonzero;stroke:none"
         id="path14" />
      <path
         d="m 325.855,4104.02 -1.421,63.75 c -0.45,21.03 -1.121,41.86 -1.309,62.58 l 2.73,-2.73 c -49.828,-0.51 -99.656,-1.59 -149.484,-1.64 l -149.4804,-0.63 4.9961,5 -0.539,-126.33 -4.4571,4.45 c 24.668,-0.17 49.2735,-0.08 74.0004,-0.55 l 74.328,-1.12 z m 0,0 -148.332,-2.79 -75.144,-1.12 c -25.1017,-0.47 -50.3243,-0.38 -75.4884,-0.55 l -4.4375,-0.03 -0.0195,4.49 -0.5391,126.33 -0.0195,5.01 5.0156,-0.02 149.4804,-0.63 c 49.828,-0.05 99.656,-1.12 149.484,-1.63 l 2.754,-0.03 -0.023,-2.7 c -0.188,-21.4 -0.859,-42.68 -1.309,-63.76 l -1.422,-62.57"
         style="fill:#e7e8e5;fill-opacity:1;fill-rule:nonzero;stroke:none"
         id="path16" />
      <path
         d="m 4105.63,4104.02 -1.42,63.75 c -0.45,21.03 -1.12,41.86 -1.31,62.58 l 2.73,-2.73 c -49.83,-0.51 -99.65,-1.59 -149.48,-1.64 l -149.48,-0.63 4.99,5 -0.54,-126.33 -4.45,4.45 c 24.66,-0.17 49.27,-0.08 73.99,-0.55 l 74.33,-1.12 z m 0,0 -148.33,-2.79 -75.15,-1.12 c -25.1,-0.47 -50.32,-0.38 -75.48,-0.55 l -4.44,-0.03 -0.02,4.49 -0.54,126.33 -0.02,5.01 5.02,-0.02 149.48,-0.63 c 49.83,-0.05 99.65,-1.12 149.48,-1.63 l 2.75,-0.03 -0.02,-2.7 c -0.19,-21.4 -0.86,-42.68 -1.31,-63.76 l -1.42,-62.57"
         style="fill:#e7e8e5;fill-opacity:1;fill-rule:nonzero;stroke:none"
         id="path18" />
      <path
         d="m 3938.86,3944.71 -1.42,63.76 c -0.46,21.03 -1.12,41.86 -1.31,62.58 l 2.73,-2.73 c -49.83,-0.51 -99.66,-1.59 -149.48,-1.64 l -149.49,-0.63 4.99,5 -0.52,-126.33 -4.47,4.45 c 24.67,-0.17 49.28,-0.08 74,-0.54 l 74.33,-1.13 z m 0,0 -148.33,-2.78 -75.15,-1.12 c -25.11,-0.47 -50.32,-0.37 -75.49,-0.55 l -4.43,-0.03 -0.02,4.49 -0.54,126.33 -0.03,5.02 5.02,-0.03 149.49,-0.63 c 49.82,-0.05 99.65,-1.12 149.48,-1.63 l 2.75,-0.03 -0.03,-2.7 c -0.18,-21.39 -0.85,-42.68 -1.31,-63.76 l -1.41,-62.58"
         style="fill:#e7e8e5;fill-opacity:1;fill-rule:nonzero;stroke:none"
         id="path20" />
      <path
         d="m 3173.17,2466.78 -1.41,63.75 c -0.45,21.04 -1.12,41.86 -1.31,62.58 l 2.72,-2.73 c -49.82,-0.51 -99.64,-1.58 -149.48,-1.63 l -149.48,-0.63 5,4.99 -0.54,-126.33 -4.46,4.46 c 24.67,-0.18 49.28,-0.08 74,-0.55 l 74.33,-1.12 z m 0,0 -148.32,-2.79 -75.15,-1.12 c -25.1,-0.47 -50.32,-0.37 -75.49,-0.55 l -4.43,-0.03 -0.02,4.49 -0.54,126.33 -0.02,5.02 5.01,-0.02 149.48,-0.63 c 49.84,-0.05 99.66,-1.13 149.48,-1.64 l 2.76,-0.03 -0.02,-2.7 c -0.2,-21.39 -0.86,-42.68 -1.31,-63.75 l -1.43,-62.58"
         style="fill:#e7e8e5;fill-opacity:1;fill-rule:nonzero;stroke:none"
         id="path22" />
      <path
         d="m 3006.41,2307.48 -1.43,63.76 c -0.45,21.03 -1.11,41.85 -1.31,62.57 l 2.74,-2.72 c -49.84,-0.52 -99.66,-1.59 -149.49,-1.64 l -149.48,-0.63 4.99,4.99 -0.54,-126.33 -4.45,4.46 c 24.67,-0.18 49.27,-0.08 74,-0.55 l 74.33,-1.12 z m 0,0 -148.33,-2.79 -75.15,-1.11 c -25.11,-0.48 -50.32,-0.38 -75.49,-0.56 l -4.43,-0.03 -0.02,4.49 -0.54,126.33 -0.03,5.02 5.02,-0.02 149.48,-0.63 c 49.83,-0.05 99.65,-1.13 149.49,-1.64 l 2.75,-0.02 -0.03,-2.71 c -0.18,-21.39 -0.86,-42.68 -1.31,-63.75 l -1.41,-62.58"
         style="fill:#e7e8e5;fill-opacity:1;fill-rule:nonzero;stroke:none"
         id="path24" />
      <path
         d="m 2840.29,2466.78 -1.42,63.75 c -0.45,21.04 -1.13,41.86 -1.31,62.58 l 2.73,-2.73 c -49.83,-0.51 -99.65,-1.58 -149.48,-1.63 l -149.48,-0.63 4.99,4.99 -0.54,-126.33 -4.45,4.46 c 24.66,-0.18 49.27,-0.08 73.99,-0.55 l 74.34,-1.12 z m 0,0 -148.33,-2.79 -75.14,-1.12 c -25.11,-0.47 -50.34,-0.37 -75.49,-0.55 l -4.44,-0.03 -0.02,4.49 -0.54,126.33 -0.02,5.02 5.02,-0.02 149.48,-0.63 c 49.83,-0.05 99.65,-1.13 149.48,-1.64 l 2.76,-0.03 -0.03,-2.7 c -0.19,-21.39 -0.86,-42.68 -1.31,-63.75 l -1.42,-62.58"
         style="fill:#e7e8e5;fill-opacity:1;fill-rule:nonzero;stroke:none"
         id="path26" />
      <path
         d="m 4105.63,1370.41 -1.42,63.75 c -0.45,21.04 -1.12,41.86 -1.31,62.58 l 2.73,-2.73 c -49.83,-0.51 -99.65,-1.59 -149.49,-1.64 l -149.47,-0.62 4.99,4.99 -0.54,-126.33 -4.45,4.45 c 24.66,-0.17 49.27,-0.07 73.99,-0.54 l 74.33,-1.12 z m 0,0 -148.33,-2.79 -75.15,-1.12 c -25.1,-0.47 -50.32,-0.38 -75.48,-0.55 l -4.44,-0.03 -0.02,4.49 -0.54,126.33 -0.02,5.01 5.02,-0.02 149.47,-0.62 c 49.84,-0.05 99.66,-1.13 149.49,-1.65 l 2.75,-0.02 -0.02,-2.7 c -0.19,-21.4 -0.86,-42.68 -1.31,-63.76 l -1.42,-62.57"
         style="fill:#e7e8e5;fill-opacity:1;fill-rule:nonzero;stroke:none"
         id="path28" />
      <path
         d="m 1565.52,3728.34 -1.42,63.76 c -0.45,21.03 -1.12,41.86 -1.31,62.58 l 2.73,-2.73 c -49.83,-0.52 -99.66,-1.59 -149.48,-1.64 l -149.48,-0.63 4.99,5 -0.54,-126.34 -4.45,4.46 c 24.66,-0.17 49.27,-0.08 73.99,-0.55 l 74.33,-1.12 z m 0,0 -148.33,-2.79 -75.15,-1.12 c -25.1,-0.47 -50.32,-0.37 -75.48,-0.55 l -4.44,-0.02 -0.02,4.48 -0.54,126.34 -0.02,5.01 5.02,-0.02 149.48,-0.63 c 49.82,-0.05 99.65,-1.13 149.48,-1.64 l 2.75,-0.02 -0.02,-2.7 c -0.19,-21.4 -0.86,-42.69 -1.31,-63.76 l -1.42,-62.58"
         style="fill:#e7e8e5;fill-opacity:1;fill-rule:nonzero;stroke:none"
         id="path30" />
      <path
         d="m 3703.99,2961.92 c -44.51,-23.88 -99.92,-7.15 -123.78,37.37 -23.88,44.52 -7.21,100 37.32,123.88 44.52,23.87 100.04,7.11 123.92,-37.41 23.87,-44.52 7.08,-99.96 -37.46,-123.84 z m 94.53,-70.48 58.86,94.9 -29.06,18.01 c -8.55,5.3 -13.18,14.96 -12.32,24.98 0.47,5.53 0.65,11.11 0.52,16.7 -0.22,10.02 5.02,19.35 13.86,24.09 l 30.13,16.16 -52.8,98.45 -30.13,-16.15 c -8.84,-4.74 -19.51,-3.94 -27.74,1.79 -4.59,3.19 -9.32,6.13 -14.2,8.79 -8.82,4.83 -14.31,14.04 -13.99,24.09 l 1.08,34.17 -111.63,3.48 -1.03,-34.31 c -0.3,-10.06 -6.47,-18.81 -15.57,-23.1 -2.47,-1.16 -4.91,-2.4 -7.34,-3.7 -2.42,-1.3 -4.81,-2.66 -7.14,-4.07 -8.57,-5.18 -19.22,-5.48 -27.73,-0.21 l -29.28,18.14 -58.87,-94.91 29.12,-18.07 c 8.55,-5.31 13.17,-14.98 12.3,-25 -0.48,-5.52 -0.67,-11.06 -0.55,-16.63 0.21,-10.01 -5.03,-19.34 -13.86,-24.07 l -30.13,-16.16 52.8,-98.46 30.14,16.17 c 8.82,4.73 19.49,3.94 27.71,-1.78 4.57,-3.17 9.3,-6.09 14.16,-8.74 8.83,-4.82 14.33,-14.03 14.01,-24.08 l -1.05,-34.26 111.63,-3.46 1.06,34.26 c 0.32,10.03 6.46,18.75 15.53,23.03 2.48,1.17 4.94,2.42 7.39,3.73 2.44,1.3 4.82,2.66 7.15,4.07 8.62,5.2 19.32,5.5 27.87,0.19 l 29.1,-18.04"
         style="fill:#e7e8e5;fill-opacity:1;fill-rule:nonzero;stroke:none"
         id="path32" />
      <path
         d="m 487.043,1886.54 c -44.523,-23.88 -99.926,-7.16 -123.797,37.36 -23.875,44.52 -7.199,100 37.324,123.88 44.524,23.87 100.039,7.11 123.918,-37.41 23.875,-44.52 7.075,-99.96 -37.445,-123.83 m 94.516,-70.48 58.871,94.9 -29.067,18.01 c -8.55,5.29 -13.183,14.96 -12.324,24.98 0.473,5.53 0.649,11.1 0.527,16.69 -0.218,10.03 5.02,19.36 13.856,24.1 l 30.129,16.15 -52.805,98.46 -30.121,-16.15 c -8.84,-4.75 -19.512,-3.95 -27.738,1.78 -4.586,3.2 -9.328,6.13 -14.203,8.79 -8.821,4.84 -14.309,14.04 -13.993,24.09 l 1.086,34.18 -111.632,3.47 -1.028,-34.3 c -0.304,-10.06 -6.472,-18.82 -15.566,-23.11 -2.473,-1.16 -4.918,-2.39 -7.344,-3.7 -2.43,-1.3 -4.812,-2.66 -7.144,-4.07 -8.575,-5.17 -19.219,-5.48 -27.731,-0.2 l -29.277,18.13 -58.871,-94.91 29.121,-18.07 c 8.543,-5.3 13.168,-14.98 12.297,-25 -0.477,-5.51 -0.661,-11.06 -0.543,-16.63 0.203,-10.02 -5.032,-19.33 -13.86,-24.07 l -30.136,-16.16 52.796,-98.45 30.145,16.16 c 8.82,4.73 19.484,3.94 27.715,-1.77 4.57,-3.18 9.297,-6.1 14.152,-8.75 8.828,-4.82 14.328,-14.03 14.02,-24.08 l -1.055,-34.25 111.625,-3.47 1.066,34.27 c 0.313,10.03 6.457,18.74 15.528,23.03 2.48,1.17 4.945,2.41 7.398,3.73 2.426,1.29 4.809,2.65 7.149,4.07 8.613,5.2 19.308,5.5 27.863,0.19 l 29.094,-18.04"
         style="fill:#e7e8e5;fill-opacity:1;fill-rule:nonzero;stroke:none"
         id="path34" />
      <path
         d="m 1650.14,3598.76 c 0,-35.4 -28.67,-64.06 -64.06,-64.06 -35.4,0 -64.13,28.66 -64.13,64.06 0,35.39 28.73,64.12 64.13,64.12 35.39,0 64.06,-28.73 64.06,-64.12 z m 74.8,35.01 -39.1,67.77 -20.74,-11.98 c -6.1,-3.53 -13.6,-3.19 -19.5,0.66 -3.26,2.12 -6.64,4.08 -10.13,5.85 -6.27,3.18 -10.29,9.51 -10.29,16.54 v 23.94 h -78.27 v -23.94 c 0,-7.03 -4.02,-13.36 -10.28,-16.54 -3.49,-1.77 -6.88,-3.73 -10.14,-5.85 -5.9,-3.85 -13.4,-4.19 -19.5,-0.66 l -20.74,11.98 -39.1,-67.77 20.83,-12 c 6.11,-3.51 9.47,-10.22 9.11,-17.26 -0.1,-1.9 -0.15,-3.83 -0.15,-5.75 0,-1.93 0.05,-3.85 0.15,-5.76 0.36,-7.01 -2.98,-13.68 -9.05,-17.19 l -20.89,-12.07 39.1,-67.77 20.8,11.99 c 6.1,3.52 13.6,3.18 19.5,-0.68 3.25,-2.12 6.62,-4.07 10.09,-5.84 6.25,-3.19 10.27,-9.51 10.27,-16.53 v -23.95 h 78.27 v 23.95 c 0,7.02 4.02,13.34 10.27,16.53 3.48,1.77 6.84,3.72 10.09,5.84 5.9,3.85 13.4,4.2 19.5,0.68 l 20.8,-11.99 39.1,67.77 -20.8,12.01 c -6.09,3.5 -9.43,10.18 -9.08,17.2 0.1,1.92 0.15,3.86 0.15,5.81 0,1.92 -0.05,3.85 -0.15,5.75 -0.36,7.04 3,13.75 9.11,17.28 l 20.77,11.98"
         style="fill:#e7e8e5;fill-opacity:1;fill-rule:nonzero;stroke:none"
         id="path36" />
      <path
         d="M 454.613,1662.76 C 323.93,1534.82 301.992,1336.88 329.535,1163.51 c 0.715,-3.94 6.797,-2.86 6.797,0.84 0,39.46 -1.195,78.57 -1.074,117.57 0.715,1.78 1.308,3.45 2.027,5.24 34.102,24.8 65.461,52.82 84.899,91.22 21.816,42.92 30.398,91.33 47.093,136.16 1.555,4.3 -3.019,3.04 -6.019,0.82 -79.492,-58.62 -104.828,-121.72 -127.645,-206.02 1.071,43.76 4.41,87.52 13.832,131.28 17.172,80.01 51.157,159.3 108.625,218.68 2.149,2.26 -1.191,5.72 -3.457,3.46"
         style="fill:#17282f;fill-opacity:1;fill-rule:nonzero;stroke:none"
         id="path38" />
      <path
         d="m 479.176,1647.84 c 22.48,-0.76 36.578,-36.7 54.097,-47.17 9.266,-5.59 18.293,-5.25 24.809,3.89 17.363,24.24 -6.461,54.13 -28.859,70.85 16.019,-6.58 29.308,-18.16 46.578,-21.44 10.461,-1.92 18.59,1.96 21.031,12.59 7.613,33.04 -33.828,47.74 -62.262,48.43 13.785,9.58 53.293,35.64 32.305,48.44 -21.27,12.86 -67.625,-24.39 -82.75,-36.65 -22.219,-18.03 -48.727,-44.98 -49.727,-73.18 -1.3,-32.92 27.477,-12.66 44.778,-5.76"
         style="fill:#fabb1e;fill-opacity:1;fill-rule:nonzero;stroke:none"
         id="path40" />
      <path
         d="m 544.836,1596.98 c -3.691,0 -7.606,1.3 -11.563,3.69 -12.984,7.76 -24.085,29.51 -38.117,40.56 -1.66,1.31 -3.359,2.47 -5.113,3.43 -3.414,1.89 -7.02,3.05 -10.867,3.18 -10.039,-4 -23.946,-12.51 -33.594,-12.51 -2.656,0 -4.992,0.65 -6.836,2.21 -1.379,1.17 -2.48,2.85 -3.234,5.16 -0.754,2.3 -1.16,5.21 -1.157,8.86 0,0.66 0.016,1.33 0.043,2.04 1,28.2 27.508,55.15 49.727,73.18 12.949,10.5 48.793,39.31 72.184,39.31 3.925,0 7.507,-0.81 10.566,-2.66 4.262,-2.6 6.031,-5.75 6.023,-9.19 -0.027,-13.52 -27.343,-31.61 -38.328,-39.25 v 0 0 c 26.102,-0.63 63.16,-13.07 63.18,-40.66 0,-2.47 -0.293,-5.06 -0.918,-7.77 -2.043,-8.9 -8.07,-13.06 -16.117,-13.06 -1.567,0 -3.207,0.15 -4.914,0.47 -17.27,3.28 -30.559,14.86 -46.578,21.44 v 0 0 c 17.019,-12.7 34.859,-33.01 34.832,-52.66 -0.008,-6.22 -1.801,-12.37 -5.973,-18.19 -3.734,-5.24 -8.289,-7.58 -13.246,-7.58"
         style="fill:#f4ac12;fill-opacity:1;fill-rule:nonzero;stroke:none"
         id="path42" />
      <path
         d="m 472.668,1642.3 c 28.742,13.06 83.965,-5.75 88.66,5.13 9.524,22.15 -34.609,37.34 -58.426,40.28 21.938,5.94 63.969,15.42 62.672,36.57 -1.574,25.83 -64.465,3.61 -96.297,-20.79 -40.101,-30.75 -39.839,-60.42 -33.207,-66.36 9.09,-8.15 31.856,3.01 36.598,5.17"
         style="fill:#fabb1e;fill-opacity:1;fill-rule:nonzero;stroke:none"
         id="path44" />
      <path
         d="m 156.992,1675.42 c 135.453,-122.88 164.906,-319.83 143.977,-494.13 -0.563,-3.95 -6.68,-3.11 -6.824,0.58 -1.504,39.44 -1.797,78.56 -3.399,117.53 -0.785,1.75 -1.445,3.39 -2.226,5.16 -35.02,23.49 -67.422,50.3 -88.305,87.92 -23.438,42.06 -33.856,90.11 -52.242,134.28 -1.711,4.23 2.906,3.14 5.988,1.04 81.664,-55.55 109.383,-117.64 135.387,-201.01 -2.743,43.68 -7.743,87.28 -18.817,130.65 -20.199,79.3 -57.176,157.24 -116.863,214.4 -2.234,2.18 0.973,5.76 3.324,3.58"
         style="fill:#17282f;fill-opacity:1;fill-rule:nonzero;stroke:none"
         id="path46" />
      <path
         d="m 133.02,1659.58 c -22.438,-1.61 -35.1567,-38.06 -52.2661,-49.2 -9.0508,-5.92 -18.082,-5.92 -24.9414,2.95 -18.2734,23.56 4.3945,54.34 26.1406,71.9 -15.7578,-7.19 -28.5937,-19.26 -45.7265,-23.2 -10.3828,-2.31 -18.6485,1.25 -21.4961,11.79 -8.85941,32.72 31.9883,48.98 60.3711,50.76 -14.1328,9.06 -54.6016,33.58 -34.1211,47.18 20.7695,13.65 68.5075,-21.8 84.0825,-33.49 22.898,-17.17 50.402,-43.08 52.476,-71.23 2.555,-32.85 -26.973,-13.7 -44.519,-7.46"
         style="fill:#fabb1e;fill-opacity:1;fill-rule:nonzero;stroke:none"
         id="path48" />
      <path
         d="m 68.75,1606.25 c -4.7305,0 -9.1641,2.2 -12.9375,7.08 -4.7109,6.07 -6.7031,12.63 -6.6875,19.31 0.0391,19.24 16.6875,39.55 32.8281,52.59 v 0 0 c -15.7578,-7.19 -28.5937,-19.26 -45.7265,-23.2 -2.0078,-0.44 -3.9375,-0.67 -5.7618,-0.67 -7.6132,0 -13.4375,3.96 -15.7343,12.46 -0.8399,3.1 -1.2305,6.05 -1.2305,8.86 -0.0039,26.81 35.9063,40.29 61.6016,41.9 v 0 0 c -11.375,7.29 -39.8008,24.59 -39.7969,38.16 0,3.29 1.6758,6.36 5.6758,9.02 3.2695,2.15 7.207,3.08 11.582,3.08 23.418,0 59.3755,-26.72 72.5005,-36.57 22.898,-17.17 50.402,-43.08 52.476,-71.23 0.106,-1.33 0.152,-2.58 0.156,-3.74 0,-4 -0.582,-7.04 -1.629,-9.3 -0.949,-0.17 -1.597,-1.08 -1.757,-2.67 -0.164,-0.18 -0.332,-0.34 -0.504,-0.5 -1.926,-1.77 -4.469,-2.48 -7.403,-2.48 -9.621,0 -23.429,7.69 -33.382,11.23 -22.438,-1.61 -35.1567,-38.06 -52.2661,-49.2 -4.0703,-2.66 -8.1367,-4.13 -12.0039,-4.13"
         style="fill:#f4ac12;fill-opacity:1;fill-rule:nonzero;stroke:none"
         id="path50" />
      <path
         d="m 139.727,1654.29 c -29.219,11.96 -83.6879,-8.93 -88.7934,1.77 -10.3516,21.76 33.1641,38.62 56.8554,42.47 -22.1484,5.09 -64.5077,12.96 -64.0195,34.15 0.5899,25.88 64.2815,6.06 97.0155,-17.11 41.246,-29.21 42.11,-58.86 35.715,-65.05 -8.781,-8.5 -31.949,1.8 -36.773,3.77"
         style="fill:#fabb1e;fill-opacity:1;fill-rule:nonzero;stroke:none"
         id="path52" />
      <path
         d="m 295.508,1350.89 c 10.004,-64.75 22.402,-131.71 42.058,-194.29 1.879,-5.7 10.34,-4.24 9.469,1.92 -8.898,59.87 -25.117,118.64 -34.019,178.51 -9.036,60.58 -13.871,121.99 -10.399,183.27 5.703,100.89 33.102,208.22 98.938,287.16 1.441,1.87 -1.625,4.51 -3.117,2.78 -131.805,-153.69 -110.836,-342.11 -110.719,-359 -18.656,63.62 -37.883,136.55 -108.469,201.34 -3.043,2.79 -5.422,1.46 -4.914,-3.28 12.621,-118.01 45.43,-179.63 113.848,-242.72 1.945,-18.7 4.355,-37.31 7.324,-55.69"
         style="fill:#17282f;fill-opacity:1;fill-rule:nonzero;stroke:none"
         id="path54" />
      <path
         d="m 402.746,1789.78 c 23.707,10.53 56.414,-19.66 79.875,-21.72 12.422,-1.13 21.617,3.78 23.777,16.53 5.821,33.89 -33.945,52.92 -65.601,59 7.609,0.47 15.176,-0.02 22.711,-0.51 12.195,-0.78 24.308,-1.57 36.402,1.7 11.824,3.28 18.309,11.39 15.485,23.65 -8.735,38.11 -59.125,32.51 -88.973,18.92 9.476,16.87 37.351,63.78 9.129,66.51 -28.539,2.64 -57.891,-59.34 -67.406,-79.68 -13.981,-29.9 -27.915,-71.2 -14.754,-100.96 15.218,-34.81 34.875,0.69 49.355,16.56"
         style="fill:#fabb1e;fill-opacity:1;fill-rule:nonzero;stroke:none"
         id="path56" />
      <path
         d="m 368.453,1758.44 c -0.348,0 -0.695,0.02 -1.043,0.05 -1.906,0.2 -3.797,0.96 -5.648,2.41 -2.891,2.27 -5.703,6.21 -8.371,12.32 -3.731,8.43 -5.282,17.78 -5.278,27.54 0.016,24.7 10.012,51.99 20.032,73.42 9.32,19.92 37.66,79.76 65.628,79.76 0.594,0 1.188,-0.03 1.778,-0.08 9.015,-0.87 12.304,-6.25 12.301,-13.71 -0.004,-15.91 -14.981,-41.32 -21.43,-52.8 v 0 0 c 12.91,5.88 29.66,10.26 45.223,10.26 20.418,0 38.793,-7.55 43.75,-29.18 0.441,-1.92 0.656,-3.73 0.656,-5.44 0.012,-9.23 -6.164,-15.44 -16.141,-18.21 -6.765,-1.83 -13.539,-2.39 -20.328,-2.39 -5.344,0 -10.703,0.35 -16.074,0.69 -5.371,0.35 -10.758,0.7 -16.168,0.7 -2.176,0 -4.36,-0.06 -6.543,-0.19 v 0 0 c 29.555,-5.68 66.176,-22.64 66.172,-52.44 0,-2.12 -0.188,-4.31 -0.571,-6.56 -1.464,-8.66 -6.171,-13.7 -12.933,-15.69 -0.094,-0.03 -0.188,-0.05 -0.285,-0.08 -2.203,-0.62 -4.625,-0.92 -7.215,-0.92 -1.086,0 -2.199,0.05 -3.344,0.16 -2.246,0.2 -4.574,0.65 -6.976,1.3 -18.961,5.16 -42.211,22.64 -61.856,22.64 -3.836,0 -7.543,-0.67 -11.043,-2.22 -4.48,-4.91 -9.449,-11.7 -14.637,-17.7 -6.41,-7.42 -13.136,-13.64 -19.656,-13.64"
         style="fill:#f4ac12;fill-opacity:1;fill-rule:nonzero;stroke:none"
         id="path58" />
      <path
         d="m 398.785,1780.75 c 23.246,28.03 90.008,36.31 89.403,49.96 -1.27,27.77 -54.7,21.32 -80.891,12.39 19.766,17.2 58.605,48.18 46.621,69.48 -14.645,26.02 -68.715,-28.69 -89.453,-70.04 -26.129,-52.1 -10.926,-82.74 -1.051,-85.58 13.539,-3.87 31.531,19.16 35.371,23.79"
         style="fill:#fabb1e;fill-opacity:1;fill-rule:nonzero;stroke:none"
         id="path60" />
      <path
         d="M 208.789,1315.38 150.66,871.219 h 353.735 c -7.286,39.363 -73.125,444.671 -73.125,444.671 l -222.481,-0.51"
         style="fill:#fabb1e;fill-opacity:1;fill-rule:nonzero;stroke:none"
         id="path62" />
      <path
         d="m 0,869.719 516.563,2.429 516.567,0.891 1033.13,1.672 1033.12,-1.66 516.58,-0.879 516.56,-2.453 -516.56,-2.438 -516.58,-0.883 -1033.12,-1.668 -1033.13,1.68 -516.567,0.879 L 0,869.719"
         style="fill:#17282f;fill-opacity:1;fill-rule:nonzero;stroke:none"
         id="path64" />
      <path
         d="M 3556.83,210.75 C 3556.83,94.3594 2889.47,0 2066.26,0 1243.04,0 575.695,94.3594 575.695,210.75 c 0,116.398 667.345,210.762 1490.565,210.762 823.21,0 1490.57,-94.364 1490.57,-210.762"
         style="fill:#e7e8e5;fill-opacity:1;fill-rule:nonzero;stroke:none"
         id="path66" />
      <path
         d="m 806.008,2872.49 242.512,61.63 -80.215,315.63 z m 335.982,-448.06 -62.09,244.3 -490.373,-124.63 -64.808,255 391.883,893.12 194.368,49.4 188.98,-743.6 156.93,39.89 65.25,-256.79 -156.91,-39.88 62.08,-244.29 -285.31,-72.52"
         style="fill:#17282f;fill-opacity:1;fill-rule:nonzero;stroke:none"
         id="path68" />
      <path
         d="m 2250.24,3239.97 c 0,85.84 -17.18,155.47 -51.52,208.83 -34.35,53.36 -78.5,80.04 -132.46,80.04 -56.44,0 -101.51,-26.68 -135.23,-80.04 -33.75,-53.36 -50.6,-122.99 -50.6,-208.83 0,-85.87 16.85,-155.18 50.6,-207.9 33.72,-52.76 78.79,-79.12 135.23,-79.12 53.96,0 98.11,26.36 132.46,79.12 34.34,52.72 51.52,122.03 51.52,207.9 z m 296.23,0 c 0,-80.95 -12.28,-155.47 -36.79,-223.54 -24.55,-68.08 -58.28,-126.96 -101.21,-176.63 -42.95,-49.68 -93.54,-88.32 -151.78,-115.92 -58.28,-27.59 -121.76,-41.39 -190.43,-41.39 -68.71,0 -132.48,13.8 -191.35,41.39 -58.88,27.6 -109.79,66.24 -152.71,115.92 -42.95,49.67 -76.36,108.55 -100.28,176.63 -23.92,68.07 -35.87,142.59 -35.87,223.54 0,80.96 11.95,155.47 35.87,223.55 23.92,68.07 57.33,126.95 100.28,176.63 42.92,49.67 93.83,88.6 152.71,116.83 58.87,28.2 122.64,42.32 191.35,42.32 68.67,0 132.15,-14.12 190.43,-42.32 58.24,-28.23 108.83,-67.16 151.78,-116.83 42.93,-49.68 76.66,-108.56 101.21,-176.63 24.51,-68.08 36.79,-142.59 36.79,-223.55"
         style="fill:#17282f;fill-opacity:1;fill-rule:nonzero;stroke:none"
         id="path70" />
      <path
         d="m 2944.88,3016.3 247.01,-40.02 52.08,321.47 z m 129.82,-544.79 40.3,248.82 -499.45,80.92 42.08,259.72 715.08,663.25 197.95,-32.08 -122.69,-757.35 159.83,-25.89 -42.37,-261.54 -159.83,25.89 -40.32,-248.82 -290.58,47.08"
         style="fill:#17282f;fill-opacity:1;fill-rule:nonzero;stroke:none"
         id="path72" />
      <path
         d="m 1569.8,4121.97 c 0,-12.39 1.88,-24.38 5.65,-35.95 3.77,-11.58 9.22,-21.81 16.36,-30.7 7.14,-8.89 15.89,-16.03 26.26,-21.41 10.36,-5.39 22.15,-8.08 35.35,-8.08 13.46,0 25.38,2.76 35.75,8.28 10.36,5.52 19.12,12.86 26.26,22.02 7.13,9.15 12.52,19.45 16.15,30.9 3.64,11.44 5.46,23.09 5.46,34.94 0,12.39 -1.96,24.37 -5.86,35.96 -3.91,11.57 -9.43,21.81 -16.57,30.7 -7.13,8.89 -15.88,15.95 -26.25,21.21 -10.37,5.25 -22.02,7.87 -34.94,7.87 -13.47,0 -25.45,-2.76 -35.96,-8.28 -10.5,-5.52 -19.25,-12.79 -26.25,-21.81 -7.01,-9.03 -12.32,-19.26 -15.96,-30.7 -3.64,-11.46 -5.45,-23.1 -5.45,-34.95 z m 83.21,-145.42 c -21,0 -40.06,4.1 -57.16,12.32 -17.1,8.21 -31.78,19.11 -44.03,32.72 -12.26,13.59 -21.75,29.15 -28.48,46.65 -6.73,17.51 -10.1,35.41 -10.1,53.73 0,19.12 3.57,37.43 10.71,54.94 7.13,17.5 16.96,32.99 29.48,46.46 12.53,13.46 27.41,24.17 44.64,32.11 17.23,7.95 35.95,11.92 56.15,11.92 20.74,0 39.66,-4.24 56.76,-12.72 17.1,-8.49 31.71,-19.59 43.83,-33.33 12.12,-13.74 21.54,-29.36 28.28,-46.86 6.73,-17.51 10.1,-35.28 10.1,-53.33 0,-19.12 -3.51,-37.36 -10.5,-54.73 -7.01,-17.37 -16.71,-32.72 -29.09,-46.05 -12.39,-13.33 -27.2,-23.98 -44.43,-31.92 -17.25,-7.94 -35.96,-11.91 -56.16,-11.91"
         style="fill:#17282f;fill-opacity:1;fill-rule:nonzero;stroke:none"
         id="path74" />
      <path
         d="m 1873.17,4084 c 0,-9.43 1.42,-17.98 4.24,-25.65 2.83,-7.67 6.73,-14.34 11.72,-20 4.98,-5.65 10.84,-10.03 17.57,-13.12 6.73,-3.1 14,-4.65 21.82,-4.65 7.8,0 15.07,1.55 21.81,4.65 6.73,3.09 12.59,7.47 17.57,13.12 4.98,5.66 8.89,12.39 11.71,20.2 2.83,7.81 4.25,16.42 4.25,25.86 0,9.14 -1.42,17.63 -4.25,25.45 -2.82,7.8 -6.73,14.53 -11.71,20.19 -4.98,5.66 -10.84,10.03 -17.57,13.13 -6.74,3.1 -14.01,4.65 -21.81,4.65 -7.82,0 -15.09,-1.62 -21.82,-4.85 -6.73,-3.23 -12.59,-7.68 -17.57,-13.33 -4.99,-5.66 -8.89,-12.39 -11.72,-20.2 -2.82,-7.81 -4.24,-16.3 -4.24,-25.45 z m 55.35,-109.47 c -17.25,0 -32.73,2.96 -46.46,8.88 -13.73,5.92 -25.39,13.94 -34.95,24.04 -9.56,10.1 -16.9,21.75 -22.01,34.94 -5.12,13.19 -7.68,27.07 -7.68,41.61 0,14.81 2.56,28.81 7.68,42.01 5.11,13.2 12.45,24.85 22.01,34.94 9.56,10.1 21.22,18.11 34.95,24.04 13.73,5.92 29.21,8.89 46.46,8.89 17.23,0 32.65,-2.97 46.25,-8.89 13.59,-5.93 25.18,-13.94 34.74,-24.04 9.56,-10.09 16.9,-21.74 22.01,-34.94 5.12,-13.2 7.68,-27.2 7.68,-42.01 0,-14.54 -2.56,-28.42 -7.68,-41.61 -5.11,-13.19 -12.38,-24.84 -21.81,-34.94 -9.43,-10.1 -21,-18.12 -34.74,-24.04 -13.73,-5.92 -29.22,-8.88 -46.45,-8.88"
         style="fill:#17282f;fill-opacity:1;fill-rule:nonzero;stroke:none"
         id="path76" />
      <path
         d="m 2184.22,4020.58 c 8.08,0 15.55,1.74 22.42,5.25 6.87,3.5 12.73,8.21 17.57,14.14 4.84,5.92 8.61,12.79 11.31,20.6 2.69,7.81 4.04,15.89 4.04,24.23 0,8.9 -1.48,17.18 -4.44,24.85 -2.97,7.68 -7.07,14.34 -12.33,20 -5.25,5.65 -11.44,10.1 -18.58,13.33 -7.14,3.23 -14.88,4.85 -23.22,4.85 -5.12,0 -10.37,-0.88 -15.76,-2.63 -5.39,-1.75 -10.37,-4.24 -14.95,-7.47 -4.58,-3.23 -8.68,-7.01 -12.32,-11.31 -3.63,-4.31 -6.4,-9.03 -8.28,-14.14 v -49.69 c 4.85,-12.12 12.25,-22.15 22.21,-30.09 9.97,-7.95 20.75,-11.92 32.33,-11.92 z m 18.17,-46.05 c -16.7,0 -31.24,3.7 -43.62,11.11 -12.39,7.4 -22.09,17.43 -29.09,30.09 v -123.21 h -54.13 v 297.72 h 47.26 v -36.35 c 7.82,12.38 17.91,22.15 30.31,29.29 12.38,7.12 26.66,10.7 42.81,10.7 14.28,0 27.47,-2.9 39.59,-8.69 12.12,-5.79 22.56,-13.6 31.31,-23.42 8.75,-9.84 15.61,-21.42 20.6,-34.75 4.98,-13.33 7.47,-27.4 7.47,-42.22 0,-15.34 -2.29,-29.75 -6.86,-43.21 -4.58,-13.47 -10.98,-25.19 -19.19,-35.15 -8.22,-9.97 -17.98,-17.78 -29.29,-23.43 -11.31,-5.65 -23.7,-8.48 -37.17,-8.48"
         style="fill:#17282f;fill-opacity:1;fill-rule:nonzero;stroke:none"
         id="path78" />
      <path
         d="m 2411.65,3974.53 c -17.77,0 -35.15,2.83 -52.11,8.48 -16.97,5.65 -31.51,13.74 -43.63,24.24 l 20.19,33.93 c 12.93,-9.16 25.52,-16.09 37.78,-20.8 12.25,-4.72 24.44,-7.07 36.56,-7.07 10.76,0 19.25,2.02 25.45,6.06 6.19,4.04 9.29,9.83 9.29,17.36 0,7.54 -3.64,13.07 -10.91,16.57 -7.27,3.5 -19.12,7.54 -35.55,12.12 -13.73,3.77 -25.45,7.4 -35.15,10.9 -9.69,3.5 -17.51,7.48 -23.42,11.92 -5.93,4.45 -10.24,9.56 -12.93,15.35 -2.7,5.79 -4.04,12.73 -4.04,20.8 0,10.77 2.08,20.47 6.26,29.09 4.17,8.62 10.03,15.96 17.57,22.02 7.54,6.06 16.37,10.7 26.47,13.93 10.09,3.24 21.06,4.86 32.92,4.86 15.89,0 30.76,-2.3 44.64,-6.88 13.86,-4.58 26.59,-11.98 38.17,-22.21 l -21.82,-32.72 c -10.77,8.07 -21.2,14 -31.31,17.77 -10.09,3.77 -20.12,5.66 -30.08,5.66 -9.16,0 -16.84,-1.89 -23.03,-5.66 -6.2,-3.77 -9.3,-9.83 -9.3,-18.18 0,-3.77 0.74,-6.86 2.23,-9.29 1.47,-2.42 3.84,-4.58 7.07,-6.46 3.23,-1.89 7.47,-3.71 12.72,-5.45 5.26,-1.76 11.78,-3.58 19.59,-5.46 14.54,-3.77 27,-7.54 37.37,-11.31 10.37,-3.78 18.84,-8.08 25.45,-12.92 6.6,-4.86 11.44,-10.45 14.55,-16.77 3.08,-6.33 4.64,-13.94 4.64,-22.82 0,-20.75 -7.68,-37.11 -23.03,-49.09 -15.34,-11.98 -36.22,-17.97 -62.61,-17.97"
         style="fill:#17282f;fill-opacity:1;fill-rule:nonzero;stroke:none"
         id="path80" />
      <path
         d="m 2542.93,3978.57 v 61 h 54.13 v -61 z m 0,107.85 v 181.79 h 54.13 v -181.79 h -54.13"
         style="fill:#17282f;fill-opacity:1;fill-rule:nonzero;stroke:none"
         id="path82" />
      <path
         d="m 2272.28,1533.61 h -355.13 v 29.1 h 355.13 v -29.1"
         style="fill:#273e47;fill-opacity:1;fill-rule:nonzero;stroke:none"
         id="path84" />
      <path
         d="m 2272.28,1495.71 h -355.13 v 29.1 h 355.13 v -29.1"
         style="fill:#273e47;fill-opacity:1;fill-rule:nonzero;stroke:none"
         id="path86" />
      <path
         d="m 2272.28,1457.82 h -355.13 v 29.1 h 355.13 v -29.1"
         style="fill:#273e47;fill-opacity:1;fill-rule:nonzero;stroke:none"
         id="path88" />
      <path
         d="m 2272.28,1419.93 h -355.13 v 29.1 h 355.13 v -29.1"
         style="fill:#273e47;fill-opacity:1;fill-rule:nonzero;stroke:none"
         id="path90" />
      <path
         d="m 2272.28,1382.04 h -355.13 v 29.09 h 355.13 v -29.09"
         style="fill:#273e47;fill-opacity:1;fill-rule:nonzero;stroke:none"
         id="path92" />
      <path
         d="m 2426.01,626.121 h -675.17 v 29.098 h 675.17 v -29.098"
         style="fill:#273e47;fill-opacity:1;fill-rule:nonzero;stroke:none"
         id="path94" />
      <path
         d="m 2426.01,588.23 h -675.17 v 29.098 h 675.17 V 588.23"
         style="fill:#273e47;fill-opacity:1;fill-rule:nonzero;stroke:none"
         id="path96" />
      <path
         d="m 2426.01,550.34 h -675.17 v 29.101 h 675.17 V 550.34"
         style="fill:#273e47;fill-opacity:1;fill-rule:nonzero;stroke:none"
         id="path98" />
      <path
         d="m 2426.01,512.449 h -675.17 v 29.09 h 675.17 v -29.09"
         style="fill:#273e47;fill-opacity:1;fill-rule:nonzero;stroke:none"
         id="path100" />
      <path
         d="m 1750.84,474.551 h 675.172 v 29.0898 H 1750.84 Z"
         style="fill:#273e47;fill-opacity:1;fill-rule:nonzero;stroke:none"
         id="path102" />
      <path
         d="m 1454.6,1803.17 c 0.33,3.93 -147.78,53.54 -147.78,53.54 l 8.75,508.87 196.39,42.14 -57.36,-604.55"
         style="fill:#fabb1e;fill-opacity:1;fill-rule:nonzero;stroke:none"
         id="path104" />
      <path
         d="m 1439.93,1810.02 c -37.35,14.62 -133.11,46.69 -133.11,46.69 l 8.75,508.87 174.99,37.54 c -20.22,-199.18 -38.69,-432.44 -50.63,-593.1"
         style="fill:#d59814;fill-opacity:1;fill-rule:nonzero;stroke:none"
         id="path106" />
      <path
         d="m 2811.15,1603.43 c 1.04,3.81 157.18,-0.58 157.18,-0.58 l 166.9,480.79 -169.89,107.15 -154.19,-587.36"
         style="fill:#fabb1e;fill-opacity:1;fill-rule:nonzero;stroke:none"
         id="path108" />
      <path
         d="m 2968.33,1602.85 c 0,0 -75.9,2.13 -122.21,2.13 -9.4,0 -17.59,-0.08 -23.67,-0.29 46.43,160.83 113.79,394.62 164.93,572.21 l 147.85,-93.26 -166.9,-480.79"
         style="fill:#d59814;fill-opacity:1;fill-rule:nonzero;stroke:none"
         id="path110" />
      <path
         d="m 1426.09,1615.8 c 0,0 54.91,822.98 103.07,1093.71 0,0 994.16,-75.19 1530.86,-280.32 0,0 -276.7,-961.28 -291.01,-1008.98 0,0 -700.08,137.91 -1342.92,195.59"
         style="fill:#fabb1e;fill-opacity:1;fill-rule:nonzero;stroke:none"
         id="path112" />
      <path
         d="m 2875.7,1849.32 -25.26,5.65 c 0.04,0.19 0.09,0.38 0.13,0.57 l 25.13,-6.22 m -604.25,138.71 -63.11,14.75 -3.37,0.79 0.61,3.4 53.05,296.48 c 17.84,98.79 36.24,197.49 54.85,296.16 -16.17,-99.1 -32.51,-198.16 -49.45,-297.11 l -50.66,-293.39 59.82,-14.21 c -0.6,-2.27 -1.18,-4.57 -1.74,-6.87"
         style="fill:#f4ac12;fill-opacity:1;fill-rule:nonzero;stroke:none"
         id="path114" />
      <path
         d="m 2257.73,2523.72 c -4.53,0 -9.24,1.62 -12.88,4.78 -4.1,3.58 -6.55,9.07 -6.58,14.63 0.02,5.55 2.46,11.05 6.57,14.63 3.62,3.18 8.35,4.79 12.88,4.79 0.59,0 1.17,-0.03 1.75,-0.08 10.41,-0.92 17.64,-10.27 17.46,-19.34 0.19,-9.08 -7.06,-18.42 -17.46,-19.33 -0.57,-0.05 -1.16,-0.08 -1.74,-0.08 m 3.5,35.08 c -0.59,0 -1.18,-0.04 -1.76,-0.1 -8.39,-0.97 -13.83,-8.5 -13.71,-15.57 -0.12,-7.07 5.31,-14.64 13.71,-15.59 0.58,-0.07 1.16,-0.1 1.74,-0.1 3.58,0 7.31,1.22 10.24,3.71 3.41,2.9 5.44,7.4 5.48,11.98 -0.04,4.58 -2.07,9.07 -5.48,11.97 -2.94,2.48 -6.66,3.7 -10.22,3.7"
         style="fill:#f4ac12;fill-opacity:1;fill-rule:nonzero;stroke:none"
         id="path116" />
      <path
         d="m 2240.27,2401.26 c -4.53,0 -9.24,1.62 -12.88,4.79 -4.1,3.57 -6.55,9.06 -6.58,14.62 0.03,5.55 2.47,11.06 6.57,14.63 3.62,3.18 8.35,4.79 12.88,4.79 0.59,0 1.17,-0.02 1.75,-0.08 10.41,-0.91 17.65,-10.26 17.46,-19.34 0.19,-9.08 -7.06,-18.42 -17.46,-19.33 -0.57,-0.05 -1.16,-0.08 -1.74,-0.08 m 3.5,35.08 c -0.59,0 -1.18,-0.03 -1.76,-0.1 -8.39,-0.97 -13.83,-8.49 -13.71,-15.57 -0.13,-7.07 5.3,-14.64 13.71,-15.59 0.58,-0.07 1.16,-0.1 1.74,-0.1 3.58,0 7.31,1.22 10.24,3.71 3.41,2.9 5.43,7.4 5.48,11.98 -0.04,4.58 -2.07,9.08 -5.49,11.97 -2.93,2.48 -6.64,3.7 -10.21,3.7"
         style="fill:#f4ac12;fill-opacity:1;fill-rule:nonzero;stroke:none"
         id="path118" />
      <path
         d="m 2218.77,2271.88 c -4.53,0 -9.24,1.61 -12.87,4.78 -4.1,3.58 -6.55,9.07 -6.58,14.62 0.02,5.55 2.46,11.06 6.57,14.63 3.62,3.18 8.34,4.79 12.87,4.79 0.59,0 1.18,-0.02 1.76,-0.08 10.41,-0.91 17.63,-10.26 17.45,-19.34 0.18,-9.08 -7.05,-18.41 -17.45,-19.32 -0.58,-0.05 -1.16,-0.08 -1.75,-0.08 m 3.5,35.08 c -0.59,0 -1.18,-0.04 -1.75,-0.1 -8.39,-0.97 -13.84,-8.5 -13.71,-15.58 -0.14,-7.07 5.3,-14.63 13.71,-15.59 0.57,-0.06 1.15,-0.1 1.73,-0.1 3.58,0 7.31,1.23 10.24,3.72 3.42,2.89 5.44,7.39 5.48,11.97 -0.04,4.58 -2.07,9.08 -5.48,11.97 -2.93,2.48 -6.66,3.71 -10.22,3.71"
         style="fill:#f4ac12;fill-opacity:1;fill-rule:nonzero;stroke:none"
         id="path120" />
      <path
         d="m 2197.28,2142.49 c -4.53,0 -9.25,1.61 -12.89,4.79 -4.1,3.56 -6.55,9.06 -6.58,14.62 0.03,5.54 2.47,11.05 6.58,14.63 3.61,3.17 8.33,4.79 12.86,4.79 0.59,0 1.18,-0.03 1.76,-0.09 10.41,-0.91 17.65,-10.26 17.46,-19.33 0.19,-9.09 -7.06,-18.42 -17.46,-19.33 -0.57,-0.05 -1.15,-0.08 -1.73,-0.08 m 3.47,35.08 c -0.59,0 -1.16,-0.03 -1.74,-0.1 -8.38,-0.97 -13.82,-8.5 -13.71,-15.57 -0.12,-7.07 5.31,-14.64 13.71,-15.6 0.57,-0.06 1.15,-0.1 1.73,-0.1 3.58,0 7.31,1.23 10.26,3.72 3.4,2.89 5.43,7.4 5.47,11.98 -0.03,4.58 -2.07,9.08 -5.48,11.97 -2.94,2.48 -6.67,3.7 -10.24,3.7"
         style="fill:#f4ac12;fill-opacity:1;fill-rule:nonzero;stroke:none"
         id="path122" />
      <path
         d="m 2270.51,1936.14 c -4.53,0 -9.23,1.62 -12.86,4.79 -4.1,3.56 -6.56,9.06 -6.58,14.62 0.02,5.55 2.47,11.05 6.57,14.63 3.61,3.17 8.33,4.79 12.87,4.79 0.59,0 1.18,-0.03 1.77,-0.09 3.94,-0.34 7.44,-1.9 10.24,-4.2 -0.13,-0.55 -0.25,-1.12 -0.37,-1.68 -2.51,1.49 -5.36,2.22 -8.12,2.22 -0.59,0 -1.18,-0.04 -1.75,-0.11 -8.4,-0.96 -13.84,-8.49 -13.71,-15.56 -0.14,-7.07 5.3,-14.64 13.71,-15.6 0.56,-0.06 1.14,-0.09 1.72,-0.09 1.15,0 2.33,0.12 3.49,0.38 -0.11,-0.97 -0.21,-1.94 -0.31,-2.9 -1.53,-0.58 -3.18,-0.97 -4.9,-1.12 -0.59,-0.05 -1.17,-0.08 -1.77,-0.08"
         style="fill:#f4ac12;fill-opacity:1;fill-rule:nonzero;stroke:none"
         id="path124" />
      <path
         d="m 2175.76,2013.1 c -4.52,0 -9.23,1.62 -12.86,4.78 -4.11,3.58 -6.56,9.07 -6.59,14.63 0.03,5.55 2.47,11.06 6.57,14.63 3.63,3.18 8.34,4.79 12.87,4.79 0.59,0 1.19,-0.03 1.77,-0.08 10.41,-0.92 17.64,-10.27 17.45,-19.34 0.19,-9.08 -7.06,-18.42 -17.45,-19.33 -0.58,-0.05 -1.17,-0.08 -1.76,-0.08 m 3.52,35.08 c -0.59,0 -1.18,-0.04 -1.76,-0.1 -8.39,-0.97 -13.84,-8.5 -13.71,-15.57 -0.14,-7.07 5.3,-14.64 13.71,-15.59 0.57,-0.07 1.15,-0.1 1.73,-0.1 3.58,0 7.3,1.22 10.24,3.71 3.42,2.9 5.44,7.4 5.48,11.98 -0.04,4.58 -2.07,9.07 -5.48,11.96 -2.94,2.49 -6.65,3.71 -10.21,3.71"
         style="fill:#f4ac12;fill-opacity:1;fill-rule:nonzero;stroke:none"
         id="path126" />
      <path
         d="m 1800.94,1745.71 c -15.01,0 -30.2,1.2 -45.49,3.68 -153.91,24.93 -258.47,169.91 -233.53,323.82 22.45,138.62 142.3,237.21 278.33,237.21 15.01,0 30.2,-1.2 45.5,-3.67 153.91,-24.94 258.46,-169.92 233.53,-323.84 -22.46,-138.61 -142.31,-237.2 -278.34,-237.2"
         style="fill:#d59814;fill-opacity:1;fill-rule:nonzero;stroke:none"
         id="path128" />
      <path
         d="m 2024.1,1991.86 c -20,-123.44 -136.28,-207.29 -259.71,-187.3 -123.43,20 -207.29,136.28 -187.29,259.71 20,123.44 136.27,207.29 259.71,187.29 123.43,-20 207.28,-136.27 187.29,-259.7"
         style="fill:#17282f;fill-opacity:1;fill-rule:nonzero;stroke:none"
         id="path130" />
      <path
         d="m 1778.33,2058.22 -52.93,8.58 8.57,52.93 52.93,-8.58 -8.57,-52.93"
         style="fill:#fabb1e;fill-opacity:1;fill-rule:nonzero;stroke:none"
         id="path132" />
      <path
         d="m 1733.97,2119.73 -52.93,8.57 8.57,52.93 52.93,-8.57 -8.57,-52.93"
         style="fill:#fabb1e;fill-opacity:1;fill-rule:nonzero;stroke:none"
         id="path134" />
      <path
         d="m 1945.69,2085.42 -52.93,8.58 8.57,52.93 52.93,-8.58 -8.57,-52.93"
         style="fill:#fabb1e;fill-opacity:1;fill-rule:nonzero;stroke:none"
         id="path136" />
      <path
         d="m 1699.86,1909.2 -52.93,8.58 8.58,52.92 52.93,-8.57 -8.58,-52.93"
         style="fill:#fabb1e;fill-opacity:1;fill-rule:nonzero;stroke:none"
         id="path138" />
      <path
         d="m 1911.58,1874.89 -52.93,8.58 8.58,52.93 52.93,-8.58 -8.58,-52.93"
         style="fill:#fabb1e;fill-opacity:1;fill-rule:nonzero;stroke:none"
         id="path140" />
      <path
         d="m 1761.37,1953.56 -52.93,8.57 8.57,52.93 52.93,-8.57 -8.57,-52.93"
         style="fill:#fabb1e;fill-opacity:1;fill-rule:nonzero;stroke:none"
         id="path142" />
      <path
         d="m 1822.77,1997.32 -52.93,8.57 8.58,52.93 52.93,-8.57 -8.58,-52.93"
         style="fill:#fabb1e;fill-opacity:1;fill-rule:nonzero;stroke:none"
         id="path144" />
      <path
         d="m 1884.18,2041.07 -52.92,8.57 8.57,52.94 52.93,-8.58 -8.58,-52.93"
         style="fill:#fabb1e;fill-opacity:1;fill-rule:nonzero;stroke:none"
         id="path146" />
      <path
         d="m 1867.23,1936.4 -52.93,8.58 8.57,52.93 52.93,-8.57 -8.57,-52.94"
         style="fill:#fabb1e;fill-opacity:1;fill-rule:nonzero;stroke:none"
         id="path148" />
      <path
         d="m 2832.84,1844.48 c -36.05,-151.69 -188.25,-245.44 -339.94,-209.39 -151.69,36.05 -245.44,188.25 -209.38,339.94 36.04,151.69 188.24,245.44 339.93,209.39 151.7,-36.05 245.44,-188.25 209.39,-339.94"
         style="fill:#fabb1e;fill-opacity:1;fill-rule:nonzero;stroke:none"
         id="path150" />
      <path
         d="m 2558.41,1627.38 c -21.61,0 -43.57,2.5 -65.51,7.71 -129.76,30.84 -217.13,146.68 -217.1,274.49 0,20.23 2.2,40.78 6.77,61.32 -1.86,-8.5 -3.32,-16.95 -4.44,-25.39 l 54.89,-11.71 c -12.08,-111.74 60.6,-217.65 172.81,-244.33 17.6,-4.18 35.2,-6.18 52.53,-6.18 96.6,0 184.68,62.26 215.17,156.55 l 54.89,-11.7 c 0.33,1.08 0.66,2.17 0.98,3.26 -35.28,-122.51 -147.55,-204.02 -270.99,-204.02"
         style="fill:#d59814;fill-opacity:1;fill-rule:nonzero;stroke:none"
         id="path152" />
      <path
         d="m 2829.4,1831.4 c 1.25,4.31 2.39,8.68 3.44,13.08 0.69,2.9 1.33,5.8 1.93,8.7 l 0.02,-0.01 c -0.59,-2.9 -1.24,-5.83 -1.93,-8.73 -1.03,-4.44 -2.19,-8.75 -3.46,-13.04"
         style="fill:#d59814;fill-opacity:1;fill-rule:nonzero;stroke:none"
         id="path154" />
      <path
         d="m 2282.57,1970.9 c 0.3,1.39 0.61,2.77 0.94,4.16 0.68,2.89 1.41,5.77 2.18,8.61 h 0.02 c -0.77,-2.85 -1.51,-5.74 -2.19,-8.64 -0.33,-1.38 -0.65,-2.75 -0.95,-4.13"
         style="fill:#d59814;fill-opacity:1;fill-rule:nonzero;stroke:none"
         id="path156" />
      <path
         d="m 2828.42,1828.14 -54.89,11.7 c 1.86,5.74 3.5,11.59 4.92,17.56 0.69,2.91 1.32,5.81 1.89,8.72 l 54.43,-12.94 c -0.6,-2.9 -1.24,-5.8 -1.93,-8.7 -1.05,-4.4 -2.19,-8.77 -3.44,-13.08 -0.32,-1.09 -0.65,-2.18 -0.98,-3.26 m -495.4,105.66 -54.89,11.71 c 1.12,8.44 2.58,16.89 4.44,25.39 0.3,1.38 0.62,2.75 0.95,4.13 0.68,2.9 1.42,5.79 2.19,8.64 l 54.42,-12.93 c -0.79,-2.85 -1.54,-5.74 -2.23,-8.64 -2.24,-9.44 -3.86,-18.89 -4.88,-28.3"
         style="fill:#a27619;fill-opacity:1;fill-rule:nonzero;stroke:none"
         id="path158" />
      <path
         d="m 2778.45,1857.4 c -28.91,-121.65 -150.97,-196.83 -272.62,-167.93 -121.66,28.92 -196.85,150.98 -167.93,272.63 28.92,121.66 150.97,196.85 272.63,167.93 121.65,-28.91 196.83,-150.97 167.92,-272.63"
         style="fill:#17282f;fill-opacity:1;fill-rule:nonzero;stroke:none"
         id="path160" />
      <path
         d="m 2553.41,1773.72 -52.17,12.41 61.71,259.65 52.17,-12.39 -61.71,-259.67"
         style="fill:#fabb1e;fill-opacity:1;fill-rule:nonzero;stroke:none"
         id="path162" />
      <path
         d="m 2849.25,1849.74 -578.02,137.37 c 37.93,159.58 198.1,258.18 357.68,220.25 159.58,-37.92 258.26,-198.04 220.34,-357.62"
         style="fill:#fabb1e;fill-opacity:1;fill-rule:nonzero;stroke:none"
         id="path164" />
      <path
         d="m 2849.25,1849.74 -262.93,62.49 -52.16,12.39 -262.93,62.49 c 32.44,136.49 154.31,228.37 288.74,228.37 22.75,0 45.84,-2.63 68.94,-8.12 136.51,-32.44 228.46,-154.31 228.45,-288.77 0,-20.81 -2.21,-41.92 -6.79,-63.05 -0.04,-0.19 -0.09,-0.38 -0.13,-0.57 -0.38,-1.74 -0.78,-3.49 -1.19,-5.23"
         style="fill:#d59814;fill-opacity:1;fill-rule:nonzero;stroke:none"
         id="path166" />
      <path
         d="m 2224.7,1718.44 c -3.77,22.18 -9.5,43.7 -19.91,61.38 -10.33,17.8 -26.66,28.87 -46.14,30.6 -3.14,0.39 -6.27,0.59 -9.37,0.59 -16.52,0 -32.33,-5.54 -45.47,-16.64 -15.62,-13.16 -27.53,-32 -36.84,-52.43 1.46,22.56 9.76,45.45 26.12,63.56 8.07,9.12 18.83,16.28 30.7,20.64 8.87,3.26 18.27,4.52 27.54,4.52 3.18,0 6.34,-0.15 9.46,-0.41 12.43,-1.45 25.13,-5.83 35.48,-13.67 10.17,-8 17.95,-18.42 22.53,-29.65 9.42,-22.39 10.46,-46.3 5.9,-68.49"
         style="fill:#f4ac12;fill-opacity:1;fill-rule:nonzero;stroke:none"
         id="path168" />
      <path
         d="m 1503.42,2317.76 c 2.35,30.16 5.73,60.18 8.59,90.26 3.21,30.04 6.51,60.07 10.17,90.05 3.47,30 7.38,59.94 11.21,89.9 3.76,29.96 8.1,59.84 12.13,89.76 l 1.07,7.99 8.1,-0.5 c 65.14,-4.11 130.14,-9.37 195.05,-16.04 32.45,-3.33 64.86,-7.1 97.22,-11.27 32.31,-4.64 64.67,-8.91 96.79,-14.79 l -195.18,12.08 -194.96,12.61 9.17,7.48 c -4.43,-29.87 -8.55,-59.78 -13.24,-89.61 -4.61,-29.84 -9.16,-59.69 -14.14,-89.48 -4.8,-29.82 -9.96,-59.58 -15.2,-89.33 -5.6,-29.71 -10.67,-59.48 -16.78,-89.11"
         style="fill:#ffffff;fill-opacity:1;fill-rule:nonzero;stroke:none"
         id="path170" />
      <path
         d="m 1550.38,2089.59 c 6.55,36.26 23.03,70.82 45.16,100.9 5.51,7.57 11.78,14.57 17.81,21.76 6.53,6.74 13.33,13.25 20.03,19.87 7.3,5.94 14.69,11.83 22.19,17.54 7.97,5.06 15.83,10.33 23.94,15.18 8.53,4.09 17.01,8.32 25.62,12.21 l 26.82,9.28 27.76,5.73 c 9.32,1.37 18.79,1.65 28.14,2.36 37.65,0.97 74.69,-7.06 108.69,-20.83 -36.19,6.77 -72.25,10.54 -107.8,7.14 -35.46,-3.3 -69.92,-13.9 -100.73,-31.26 -31.05,-16.95 -58.55,-40.33 -81.78,-67.49 -23.14,-27.3 -42.29,-58.22 -55.85,-92.39"
         style="fill:#ffffff;fill-opacity:1;fill-rule:nonzero;stroke:none"
         id="path172" />
      <path
         d="m 2329.12,2013.33 c 11.51,35.01 32.6,66.95 58.67,93.69 6.5,6.74 13.68,12.81 20.65,19.09 7.39,5.78 15.02,11.29 22.58,16.92 8.05,4.87 16.18,9.69 24.39,14.32 8.59,3.9 17.11,8.03 25.81,11.71 9.01,2.89 18,5.9 27.06,8.57 l 27.85,5.49 28.28,1.83 c 9.42,0.07 18.84,-0.95 28.2,-1.55 37.42,-4.24 73,-17.3 104.77,-35.63 -34.91,11.7 -70.09,20.41 -105.78,21.96 -35.57,1.62 -71.17,-4.12 -104.08,-17.06 -33.1,-12.5 -63.55,-31.86 -90.31,-55.55 -26.69,-23.85 -49.92,-51.82 -68.09,-83.79"
         style="fill:#ffffff;fill-opacity:1;fill-rule:nonzero;stroke:none"
         id="path174" />
      <path
         d="m 1457.68,1108.63 c -72.32,0 -230.64,16.26 -332.52,147.25 -130.34,167.58 -83.24,489.14 -81.17,502.75 l 56.59,-8.59 c -0.47,-3.09 -45.44,-310.91 69.76,-459.02 112.63,-144.82 316.92,-124.03 318.97,-123.77 l 6.44,-56.88 c -2.24,-0.25 -16.25,-1.74 -38.07,-1.74"
         style="fill:#fabb1e;fill-opacity:1;fill-rule:nonzero;stroke:none"
         id="path176" />
      <path
         d="m 1453.15,1108.66 c -74.22,0.68 -228.19,18.91 -327.99,147.22 -74.72,96.06 -91.12,242.73 -91.13,352.98 0,82.07 9.08,143.97 9.96,149.77 l 56.59,-8.59 c -0.2,-1.36 -9.03,-61.7 -9.03,-141.47 -0.01,-101.55 14.27,-234.6 78.79,-317.55 80.33,-103.28 207.28,-122.33 274.23,-124.67 l 8.58,-57.69"
         style="fill:#fcd361;fill-opacity:1;fill-rule:nonzero;stroke:none"
         id="path178" />
      <path
         d="m 1117.24,1711.11 c -10.33,0 -20.86,0.85 -31.6,2.59 -95.452,15.46 -137.714,72.59 -156.367,117.79 -18.687,45.3 -23.007,100.09 -12.835,162.86 l 121.062,-19.62 c -6.3,-38.89 -4.47,-73.15 5.15,-96.48 6.86,-16.63 20.18,-36.61 62.61,-43.48 19.38,-3.14 40.33,-1.49 62.27,31.61 16.93,25.54 27.11,60.3 30.67,82.31 l 121.06,-19.61 c -2.8,-17.32 -14.66,-77.92 -49.52,-130.47 -37.91,-57.17 -91.26,-87.5 -152.5,-87.5"
         style="fill:#fabb1e;fill-opacity:1;fill-rule:nonzero;stroke:none"
         id="path180" />
      <path
         d="m 1577.26,944.828 c -0.21,2.602 -102.56,18.961 -102.56,18.961 l -49.68,334.051 123.96,48.97 28.28,-401.982"
         style="fill:#fabb1e;fill-opacity:1;fill-rule:nonzero;stroke:none"
         id="path182" />
      <path
         d="m 1563.52,948.422 c -27.95,5.637 -88.82,15.367 -88.82,15.367 l -49.68,334.051 110.83,43.78 c 3.65,-120.63 15.16,-264.22 27.67,-393.198"
         style="fill:#d59814;fill-opacity:1;fill-rule:nonzero;stroke:none"
         id="path184" />
      <path
         d="m 2589.22,944.211 c 0.27,2.598 102.96,16.68 102.96,16.68 l 57.05,332.879 -122.85,51.69 -37.16,-401.249"
         style="fill:#fabb1e;fill-opacity:1;fill-rule:nonzero;stroke:none"
         id="path186" />
      <path
         d="m 2714.97,1093.9 29.8,201.75 4.46,-1.88 -34.26,-199.87 m -86.53,182.96 c 2.51,24.34 4.76,46.22 6.69,64.92 l 102.2,-43 -28.57,5.24 -80.32,-27.16 m 80.32,27.16 v 0 0"
         style="fill:#d59814;fill-opacity:1;fill-rule:nonzero;stroke:none"
         id="path188" />
      <path
         d="m 1534.67,1421.6 c 0,0 827.86,35.4 1107.51,-11.21 0,0 -82.12,-801.05 -86.55,-816.589 0,0 -823.52,2.219 -952.25,0 0,0 -69.77,532.669 -68.71,827.799"
         style="fill:#fabb1e;fill-opacity:1;fill-rule:nonzero;stroke:none"
         id="path190" />
      <path
         d="m 2343.47,784.672 c 0,0 -199.81,0.5 -353.83,0.5 -58.22,0 -109.86,-0.07 -141.74,-0.274 l -33.57,418.222 c 53.88,1.82 177.06,5.47 300.05,5.47 107.94,0 215.73,-2.81 276.34,-12.14 v 0 l -47.25,-411.778 v 0"
         style="fill:#d59814;fill-opacity:1;fill-rule:nonzero;stroke:none"
         id="path192" />
      <path
         d="m 1823.61,784.641 c 0,0 -30.84,276.509 -37.51,417.479 0,0 10.28,0.4 28.23,1 v 0 c -17.94,-0.61 -28.2,-1.02 -28.2,-1.02 6.62,-140.97 37.5,-417.428 37.5,-417.428 5.72,0.09 13.96,0.168 24.27,0.226 v -0.046 c -10.35,0 -18.55,-0.141 -24.29,-0.211"
         style="fill:#d59814;fill-opacity:1;fill-rule:nonzero;stroke:none"
         id="path194" />
      <path
         d="m 1823.63,784.672 c 0,0 -30.88,276.458 -37.5,417.428 0,0 10.26,0.41 28.2,1.01 l 33.57,-418.212 c -10.31,-0.058 -18.55,-0.136 -24.27,-0.226"
         style="fill:#a27619;fill-opacity:1;fill-rule:nonzero;stroke:none"
         id="path196" />
      <path
         d="m 2007,1043.9 c -7.01,-22.26 -30.7,-34.6 -52.93,-27.6 -22.23,7.01 -34.58,30.69 -27.57,52.96 7.01,22.23 30.7,34.57 52.96,27.56 22.21,-7 34.55,-30.7 27.54,-52.92 z m -25.79,58.52 c -25.34,7.98 -52.32,-6.08 -60.31,-31.39 -7.98,-25.35 6.09,-52.32 31.42,-60.31 25.31,-7.97 52.27,6.08 60.25,31.41 7.98,25.3 -6.06,52.32 -31.36,60.29 z M 2007,1043.9 c -7.01,-22.26 -30.7,-34.6 -52.93,-27.6 -22.23,7.01 -34.58,30.69 -27.57,52.96 7.01,22.23 30.7,34.57 52.96,27.56 22.21,-7 34.55,-30.7 27.54,-52.92 z m -25.79,58.52 c -25.34,7.98 -52.32,-6.08 -60.31,-31.39 -7.98,-25.35 6.09,-52.32 31.42,-60.31 25.31,-7.97 52.27,6.08 60.25,31.41 7.98,25.3 -6.06,52.32 -31.36,60.29 z M 2007,1043.9 c -7.01,-22.26 -30.7,-34.6 -52.93,-27.6 -22.23,7.01 -34.58,30.69 -27.57,52.96 7.01,22.23 30.7,34.57 52.96,27.56 22.21,-7 34.55,-30.7 27.54,-52.92 z m 5.57,-1.77 c 7.98,25.3 -6.06,52.32 -31.36,60.29 -25.34,7.98 -52.32,-6.08 -60.31,-31.39 -7.98,-25.35 6.09,-52.32 31.42,-60.31 25.31,-7.97 52.27,6.08 60.25,31.41 z m 7.15,-2.24 c -9.21,-29.22 -40.45,-45.499 -69.66,-36.3 -29.2,9.2 -45.48,40.44 -36.27,69.66 9.21,29.23 40.47,45.49 69.67,36.28 29.18,-9.2 45.46,-40.44 36.26,-69.64 z m -22.5,113.31 c -53.41,16.82 -110.28,-12.85 -127.1,-66.18 -16.81,-53.36 12.8,-110.27 66.18,-127.079 53.34,-16.8 110.26,12.84 127.06,66.189 16.83,53.33 -12.8,110.28 -66.14,127.07 z m 9.78,-109.3 c -7.01,-22.26 -30.7,-34.6 -52.93,-27.6 -22.23,7.01 -34.58,30.69 -27.57,52.96 7.01,22.23 30.7,34.57 52.96,27.56 22.21,-7 34.55,-30.7 27.54,-52.92 z m -25.79,58.52 c -25.34,7.98 -52.32,-6.08 -60.31,-31.39 -7.98,-25.35 6.09,-52.32 31.42,-60.31 25.31,-7.97 52.27,6.08 60.25,31.41 7.98,25.3 -6.06,52.32 -31.36,60.29 z M 2007,1043.9 c -7.01,-22.26 -30.7,-34.6 -52.93,-27.6 -22.23,7.01 -34.58,30.69 -27.57,52.96 7.01,22.23 30.7,34.57 52.96,27.56 22.21,-7 34.55,-30.7 27.54,-52.92 z m -25.79,58.52 c -25.34,7.98 -52.32,-6.08 -60.31,-31.39 -7.98,-25.35 6.09,-52.32 31.42,-60.31 25.31,-7.97 52.27,6.08 60.25,31.41 7.98,25.3 -6.06,52.32 -31.36,60.29 z M 2007,1043.9 c -7.01,-22.26 -30.7,-34.6 -52.93,-27.6 -22.23,7.01 -34.58,30.69 -27.57,52.96 7.01,22.23 30.7,34.57 52.96,27.56 22.21,-7 34.55,-30.7 27.54,-52.92 z m -25.79,58.52 c -25.34,7.98 -52.32,-6.08 -60.31,-31.39 -7.98,-25.35 6.09,-52.32 31.42,-60.31 25.31,-7.97 52.27,6.08 60.25,31.41 7.98,25.3 -6.06,52.32 -31.36,60.29"
         style="fill:#fabb1e;fill-opacity:1;fill-rule:nonzero;stroke:none"
         id="path198" />
      <path
         d="m 1956.14,958.109 -37.16,11.7 -6.23,-26.95 33.05,-10.41 10.34,25.66"
         style="fill:#fabb1e;fill-opacity:1;fill-rule:nonzero;stroke:none"
         id="path200" />
      <path
         d="m 1889.37,992.898 -18,34.552 -23.46,-14.65 16.01,-30.722 25.45,10.82"
         style="fill:#fabb1e;fill-opacity:1;fill-rule:nonzero;stroke:none"
         id="path202" />
      <path
         d="m 1866.76,1064.73 11.71,37.16 -26.95,6.23 -10.42,-33.05 25.66,-10.34"
         style="fill:#fabb1e;fill-opacity:1;fill-rule:nonzero;stroke:none"
         id="path204" />
      <path
         d="m 1901.56,1131.51 34.55,17.98 -14.64,23.47 -30.74,-16.01 10.83,-25.44"
         style="fill:#fabb1e;fill-opacity:1;fill-rule:nonzero;stroke:none"
         id="path206" />
      <path
         d="m 1973.38,1154.11 37.16,-11.71 6.23,26.96 -33.04,10.41 -10.35,-25.66"
         style="fill:#fabb1e;fill-opacity:1;fill-rule:nonzero;stroke:none"
         id="path208" />
      <path
         d="m 2040.16,1119.31 17.99,-34.55 23.46,14.65 -16,30.73 -25.45,-10.83"
         style="fill:#fabb1e;fill-opacity:1;fill-rule:nonzero;stroke:none"
         id="path210" />
      <path
         d="m 2062.77,1047.48 -11.71,-37.15 26.95,-6.24 10.41,33.05 -25.65,10.34"
         style="fill:#fabb1e;fill-opacity:1;fill-rule:nonzero;stroke:none"
         id="path212" />
      <path
         d="m 2027.96,980.711 -34.55,-17.992 14.65,-23.457 30.73,16 -10.83,25.449"
         style="fill:#fabb1e;fill-opacity:1;fill-rule:nonzero;stroke:none"
         id="path214" />
      <path
         d="m 2150.75,918.41 c -8.56,-13.16 -26.16,-16.879 -39.31,-8.32 -13.15,8.558 -16.87,26.148 -8.3,39.332 8.56,13.137 26.16,16.859 39.32,8.297 13.14,-8.571 16.86,-26.16 8.29,-39.309 z m -6.14,42.621 c -14.98,9.758 -35.03,5.508 -44.78,-9.461 -9.76,-15 -5.51,-35.031 9.47,-44.781 14.97,-9.758 35,-5.519 44.75,9.473 9.75,14.957 5.53,35.019 -9.44,44.769 z m 6.14,-42.621 c -8.56,-13.16 -26.16,-16.879 -39.31,-8.32 -13.15,8.558 -16.87,26.148 -8.3,39.332 8.56,13.137 26.16,16.859 39.32,8.297 13.14,-8.571 16.86,-26.16 8.29,-39.309 z m -6.14,42.621 c -14.98,9.758 -35.03,5.508 -44.78,-9.461 -9.76,-15 -5.51,-35.031 9.47,-44.781 14.97,-9.758 35,-5.519 44.75,9.473 9.75,14.957 5.53,35.019 -9.44,44.769 z m 6.14,-42.621 c -8.56,-13.16 -26.16,-16.879 -39.31,-8.32 -13.15,8.558 -16.87,26.148 -8.3,39.332 8.56,13.137 26.16,16.859 39.32,8.297 13.14,-8.571 16.86,-26.16 8.29,-39.309 z m 3.3,-2.148 c 9.75,14.957 5.53,35.019 -9.44,44.769 -14.98,9.758 -35.03,5.508 -44.78,-9.461 -9.76,-15 -5.51,-35.031 9.47,-44.781 14.97,-9.758 35,-5.519 44.75,9.473 z m 4.23,-2.742 c -11.26,-17.29 -34.46,-22.2 -51.74,-10.95 -17.27,11.25 -22.17,34.45 -10.92,51.739 11.26,17.281 34.47,22.179 51.74,10.929 17.26,-11.238 22.17,-34.449 10.92,-51.718 z m 5.9,77.55 c -31.59,20.56 -73.84,11.61 -94.39,-19.941 -20.55,-31.57 -11.64,-73.82 19.94,-94.379 31.55,-20.539 73.82,-11.609 94.36,19.949 20.56,31.539 11.64,73.832 -19.91,94.371 z m -13.43,-72.66 c -8.56,-13.16 -26.16,-16.879 -39.31,-8.32 -13.15,8.558 -16.87,26.148 -8.3,39.332 8.56,13.137 26.16,16.859 39.32,8.297 13.14,-8.571 16.86,-26.16 8.29,-39.309 z m -6.14,42.621 c -14.98,9.758 -35.03,5.508 -44.78,-9.461 -9.76,-15 -5.51,-35.031 9.47,-44.781 14.97,-9.758 35,-5.519 44.75,9.473 9.75,14.957 5.53,35.019 -9.44,44.769 z m 6.14,-42.621 c -8.56,-13.16 -26.16,-16.879 -39.31,-8.32 -13.15,8.558 -16.87,26.148 -8.3,39.332 8.56,13.137 26.16,16.859 39.32,8.297 13.14,-8.571 16.86,-26.16 8.29,-39.309 z m -6.14,42.621 c -14.98,9.758 -35.03,5.508 -44.78,-9.461 -9.76,-15 -5.51,-35.031 9.47,-44.781 14.97,-9.758 35,-5.519 44.75,9.473 9.75,14.957 5.53,35.019 -9.44,44.769 z m 6.14,-42.621 c -8.56,-13.16 -26.16,-16.879 -39.31,-8.32 -13.15,8.558 -16.87,26.148 -8.3,39.332 8.56,13.137 26.16,16.859 39.32,8.297 13.14,-8.571 16.86,-26.16 8.29,-39.309 z m -6.14,42.621 c -14.98,9.758 -35.03,5.508 -44.78,-9.461 -9.76,-15 -5.51,-35.031 9.47,-44.781 14.97,-9.758 35,-5.519 44.75,9.473 9.75,14.957 5.53,35.019 -9.44,44.769"
         style="fill:#d4d6d3;fill-opacity:1;fill-rule:nonzero;stroke:none"
         id="path216" />
      <path
         d="m 2102.26,871.969 -21.98,14.312 -8.91,-16.351 19.55,-12.719 11.34,14.758"
         style="fill:#d4d6d3;fill-opacity:1;fill-rule:nonzero;stroke:none"
         id="path218" />
      <path
         d="m 2065.25,906.609 -5.42,25.672 -17.87,-5.269 4.83,-22.821 18.46,2.418"
         style="fill:#d4d6d3;fill-opacity:1;fill-rule:nonzero;stroke:none"
         id="path220" />
      <path
         d="m 2063.57,957.281 14.32,21.981 -16.35,8.918 -12.73,-19.559 14.76,-11.34"
         style="fill:#d4d6d3;fill-opacity:1;fill-rule:nonzero;stroke:none"
         id="path222" />
      <path
         d="m 2098.22,994.289 25.66,5.43 -5.26,17.861 -22.82,-4.82 2.42,-18.471"
         style="fill:#d4d6d3;fill-opacity:1;fill-rule:nonzero;stroke:none"
         id="path224" />
      <path
         d="m 2148.89,995.969 21.98,-14.321 8.91,16.352 -19.55,12.73 -11.34,-14.761"
         style="fill:#d4d6d3;fill-opacity:1;fill-rule:nonzero;stroke:none"
         id="path226" />
      <path
         d="m 2185.9,961.32 5.42,-25.648 17.86,5.25 -4.81,22.816 -18.47,-2.418"
         style="fill:#d4d6d3;fill-opacity:1;fill-rule:nonzero;stroke:none"
         id="path228" />
      <path
         d="m 2187.57,910.66 -14.31,-21.988 16.35,-8.91 12.72,19.547 -14.76,11.351"
         style="fill:#d4d6d3;fill-opacity:1;fill-rule:nonzero;stroke:none"
         id="path230" />
      <path
         d="m 2152.93,873.641 -25.66,-5.422 5.25,-17.86 22.82,4.821 -2.41,18.461"
         style="fill:#d4d6d3;fill-opacity:1;fill-rule:nonzero;stroke:none"
         id="path232" />
      <path
         d="m 2622.21,687.012 31.8,-5.91 91.01,616.258 -36.26,6.66 -86.55,-617.008"
         style="fill:#fabb1e;fill-opacity:1;fill-rule:nonzero;stroke:none"
         id="path234" />
      <path
         d="m 2343.47,784.672 47.25,411.778 318.04,107.57 c 0,0 -86.55,-623.668 -86.55,-617.008 l -278.74,97.66"
         style="fill:#fabb1e;fill-opacity:1;fill-rule:nonzero;stroke:none"
         id="path236" />
      <g
         id="g238">
        <g
           id="g240"
           clip-path="url(#clipPath244)">
          <path
             d="m 2622.23,687.012 h 86.5313 V 1304.02 H 2622.23 Z"
             style="fill:#fcd361;fill-opacity:1;fill-rule:nonzero;stroke:none"
             id="path246" />
        </g>
      </g>
      <path
         d="m 2622.21,686.961 c 0,0 0,0.019 0,0.051 l -53.58,18.777 -225.16,78.883 47.25,411.778 318.04,107.57 v 0 c -0.29,-2.1 -84.76,-610.731 -86.53,-617.008 0,-0.032 -0.01,-0.051 -0.02,-0.051"
         style="fill:#fcd361;fill-opacity:1;fill-rule:nonzero;stroke:none"
         id="path248" />
      <path
         d="m 1572.66,1179.77 c -5.18,34.11 -7.98,68.49 -10.11,102.91 -0.97,17.21 -1.41,34.46 -1.79,51.7 -0.35,17.24 -0.65,34.5 -0.13,51.75 l 0.13,4.53 4.41,0.24 c 63.18,3.39 126.32,7.54 189.54,10.3 63.19,3.12 126.4,5.95 189.65,7.93 -63.06,-5.71 -126.14,-10.57 -189.24,-15.14 -63.07,-4.94 -126.23,-8.47 -189.34,-12.78 l 4.55,4.77 -0.26,-51.5 0.6,-51.51 c 0.09,-17.19 0.4,-34.37 0.9,-51.56 l 1.09,-51.64"
         style="fill:#ffffff;fill-opacity:1;fill-rule:nonzero;stroke:none"
         id="path250" />
      <path
         d="m 2435.09,1190.4 c 19.7,9.36 39.71,18.06 59.96,26.1 20.18,8.22 40.57,15.99 61.17,23.14 20.64,7.05 41.35,13.95 62.4,19.8 21.03,5.92 42.25,11.39 63.93,14.94 l 5.33,0.87 -0.96,-5.09 c -4.99,-26.66 -10.21,-53.28 -16.38,-79.76 2.31,27.08 5.57,54.02 9.06,80.92 l 4.37,-4.22 c -21,-5.01 -41.84,-10.87 -62.62,-17.01 -20.76,-6.2 -41.46,-12.74 -62.1,-19.47 l -124.16,-40.22"
         style="fill:#ffffff;fill-opacity:1;fill-rule:nonzero;stroke:none"
         id="path252" />
      <path
         d="m 1738.56,595.488 -5.37,102.992 -4.58,103.032 -7.93,206.068 -6.19,206.14 -2.49,103.1 -1.23,73.9 c 0.35,0.03 0.69,0.05 1.03,0.07 l 3.84,-73.85 4.59,-103.02 7.94,-206.08 6.21,-206.141 2.48,-103.09 1.7,-103.121 m -27.93,803.592 -0.34,20.85 1.08,-20.81 c -0.24,-0.02 -0.49,-0.03 -0.74,-0.04"
         style="fill:#f4ac12;fill-opacity:1;fill-rule:nonzero;stroke:none"
         id="path254" />
      <path
         d="m 1710.77,1390.72 -0.14,8.36 c 0.25,0.01 0.5,0.02 0.74,0.04 l 0.43,-8.33 c -0.34,-0.02 -0.68,-0.04 -1.03,-0.07"
         style="fill:#e0e1de;fill-opacity:1;fill-rule:nonzero;stroke:none"
         id="path256" />
      <path
         d="m 1661.92,1334.65 c -3.31,0 -6.69,0.82 -9.68,2.53 -4.73,2.68 -8.22,7.59 -9.34,13.03 -1.08,5.45 0.23,11.32 3.55,15.64 3.3,4.34 8.37,6.97 13.4,7.51 0.7,0.08 1.4,0.12 2.08,0.12 9.48,0 17.35,-7.29 18.86,-15.63 -0.95,4.49 -3.82,8.49 -7.74,10.65 -2.38,1.31 -5.02,1.92 -7.6,1.92 -1.67,0 -3.32,-0.26 -4.85,-0.75 -8.03,-2.62 -11.88,-11.06 -10.36,-17.98 1.2,-6.59 7.39,-12.63 15.21,-12.63 0.43,0 0.87,0.02 1.31,0.05 4.09,0.35 8.25,2.4 11.02,5.92 2.78,3.51 3.88,8.32 3.01,12.82 1.98,-8.86 -3.28,-19.45 -13.29,-22.39 -1.78,-0.54 -3.67,-0.81 -5.58,-0.81"
         style="fill:#f4ac12;fill-opacity:1;fill-rule:nonzero;stroke:none"
         id="path258" />
      <path
         d="m 1669.01,1211.16 c -3.31,0 -6.68,0.82 -9.68,2.52 -4.73,2.7 -8.22,7.6 -9.34,13.04 -1.07,5.44 0.22,11.33 3.55,15.64 3.3,4.33 8.37,6.98 13.41,7.5 0.7,0.08 1.39,0.12 2.07,0.12 9.48,0 17.36,-7.29 18.86,-15.62 -0.94,4.48 -3.82,8.49 -7.74,10.65 -2.38,1.31 -5.01,1.92 -7.58,1.92 -1.68,0 -3.33,-0.26 -4.87,-0.76 -8.03,-2.6 -11.88,-11.06 -10.36,-17.97 1.2,-6.59 7.38,-12.63 15.2,-12.63 0.43,0 0.88,0.02 1.32,0.06 4.08,0.35 8.25,2.39 11.03,5.91 2.77,3.51 3.86,8.33 3,12.82 1.98,-8.87 -3.28,-19.45 -13.29,-22.4 -1.78,-0.53 -3.67,-0.8 -5.58,-0.8"
         style="fill:#f4ac12;fill-opacity:1;fill-rule:nonzero;stroke:none"
         id="path260" />
      <path
         d="m 1673.51,1080.07 c -3.31,0 -6.69,0.82 -9.68,2.53 -4.73,2.7 -8.22,7.6 -9.35,13.04 -1.07,5.44 0.24,11.32 3.56,15.63 3.3,4.34 8.37,6.98 13.41,7.51 0.69,0.08 1.39,0.12 2.07,0.12 9.48,0 17.36,-7.29 18.86,-15.63 -0.94,4.49 -3.83,8.5 -7.74,10.66 -2.37,1.3 -5.01,1.92 -7.58,1.92 -1.68,0 -3.33,-0.26 -4.87,-0.76 -8.03,-2.61 -11.88,-11.06 -10.36,-17.98 1.2,-6.58 7.38,-12.62 15.19,-12.62 0.44,0 0.88,0.01 1.33,0.05 4.08,0.35 8.25,2.4 11.03,5.91 2.77,3.52 3.87,8.33 3,12.82 1.98,-8.86 -3.28,-19.44 -13.29,-22.39 -1.78,-0.53 -3.67,-0.81 -5.58,-0.81"
         style="fill:#f4ac12;fill-opacity:1;fill-rule:nonzero;stroke:none"
         id="path262" />
      <path
         d="m 1678.01,948.988 c -3.31,0 -6.69,0.821 -9.68,2.532 -4.73,2.691 -8.22,7.589 -9.34,13.031 -1.08,5.437 0.22,11.328 3.54,15.64 3.31,4.329 8.38,6.981 13.42,7.508 0.7,0.082 1.39,0.11 2.07,0.11 9.48,0 17.36,-7.289 18.86,-15.618 -0.95,4.481 -3.82,8.5 -7.74,10.649 -2.38,1.308 -5.01,1.922 -7.59,1.922 -1.67,0 -3.32,-0.262 -4.86,-0.75 -8.03,-2.614 -11.88,-11.071 -10.36,-17.981 1.2,-6.59 7.38,-12.633 15.19,-12.633 0.44,0 0.88,0.024 1.33,0.063 4.08,0.348 8.25,2.391 11.03,5.91 2.77,3.508 3.86,8.328 3,12.82 1.98,-8.871 -3.28,-19.441 -13.29,-22.39 -1.78,-0.539 -3.67,-0.813 -5.58,-0.813"
         style="fill:#f4ac12;fill-opacity:1;fill-rule:nonzero;stroke:none"
         id="path264" />
      <path
         d="m 1682.51,817.898 c -3.31,0 -6.69,0.821 -9.68,2.532 -4.73,2.699 -8.22,7.601 -9.35,13.039 -1.07,5.441 0.24,11.332 3.55,15.633 3.3,4.339 8.38,6.988 13.41,7.507 0.7,0.082 1.4,0.121 2.08,0.121 9.48,0 17.35,-7.289 18.86,-15.621 -0.95,4.481 -3.83,8.493 -7.74,10.653 -2.38,1.308 -5.01,1.918 -7.59,1.918 -1.67,0 -3.32,-0.258 -4.86,-0.758 -8.03,-2.613 -11.88,-11.063 -10.36,-17.981 1.2,-6.582 7.38,-12.621 15.19,-12.621 0.44,0 0.88,0.02 1.33,0.051 4.08,0.359 8.25,2.399 11.02,5.91 2.78,3.52 3.87,8.328 3.01,12.828 1.97,-8.867 -3.28,-19.449 -13.29,-22.398 -1.78,-0.531 -3.67,-0.813 -5.58,-0.813"
         style="fill:#f4ac12;fill-opacity:1;fill-rule:nonzero;stroke:none"
         id="path266" />
      <path
         d="m 1687.01,686.82 c -3.31,0 -6.69,0.821 -9.69,2.532 -4.72,2.687 -8.21,7.597 -9.34,13.027 -1.07,5.441 0.23,11.332 3.55,15.641 3.3,4.339 8.38,6.98 13.41,7.511 0.7,0.078 1.39,0.11 2.08,0.11 9.48,0 17.35,-7.282 18.86,-15.621 -0.95,4.48 -3.82,8.5 -7.75,10.66 -2.37,1.3 -5,1.91 -7.58,1.91 -1.67,0 -3.32,-0.25 -4.86,-0.75 -8.03,-2.61 -11.88,-11.07 -10.36,-17.981 1.2,-6.589 7.38,-12.629 15.19,-12.629 0.44,0 0.88,0.02 1.33,0.059 4.08,0.352 8.25,2.391 11.02,5.91 2.78,3.512 3.87,8.321 3.01,12.821 1.98,-8.872 -3.28,-19.438 -13.29,-22.391 -1.78,-0.539 -3.67,-0.809 -5.58,-0.809"
         style="fill:#f4ac12;fill-opacity:1;fill-rule:nonzero;stroke:none"
         id="path268" />
      <path
         d="m 1294.39,312.781 -16.6,54.77 468.76,142.051 16.6,-54.774 -468.76,-142.047"
         style="fill:#fabb1e;fill-opacity:1;fill-rule:nonzero;stroke:none"
         id="path270" />
      <path
         d="m 1358.26,332.141 -10.32,56.668 398.61,120.793 16.6,-54.774 -404.89,-122.687"
         style="fill:#fcd361;fill-opacity:1;fill-rule:nonzero;stroke:none"
         id="path272" />
      <path
         d="m 1493.2,362.012 -25.76,81.008 54.54,17.339 25.76,-81 -54.54,-17.347"
         style="fill:#fabb1e;fill-opacity:1;fill-rule:nonzero;stroke:none"
         id="path274" />
      <path
         d="M 1290.53,232.52 1169.57,756.309 804.473,669.762 984.246,159.281 1290.53,232.52"
         style="fill:#fabb1e;fill-opacity:1;fill-rule:nonzero;stroke:none"
         id="path276" />
      <path
         d="m 1371.54,259.16 -81.01,-26.64 -120.96,523.789 116.52,-27.731 85.45,-469.418"
         style="fill:#fabb1e;fill-opacity:1;fill-rule:nonzero;stroke:none"
         id="path278" />
      <path
         d="m 1290.53,232.52 v 0 l -120.96,523.789 116.52,-27.731 85.45,-469.418 -81.01,-26.64"
         style="fill:#d59814;fill-opacity:1;fill-rule:nonzero;stroke:none"
         id="path280" />
      <path
         d="m 1817,482.211 c 0,-34.32 -27.82,-62.141 -62.15,-62.141 -34.32,0 -62.14,27.821 -62.14,62.141 0,34.32 27.82,62.148 62.14,62.148 34.33,0 62.15,-27.828 62.15,-62.148"
         style="fill:#fabb1e;fill-opacity:1;fill-rule:nonzero;stroke:none"
         id="path282" />
      <path
         d="m 2846.14,313.238 -468.45,143.043 16.7,54.739 468.47,-143.04 -16.72,-54.742"
         style="fill:#fabb1e;fill-opacity:1;fill-rule:nonzero;stroke:none"
         id="path284" />
      <path
         d="m 2782.32,332.73 -404.63,123.551 16.7,54.739 398.36,-121.629 -10.43,-56.661"
         style="fill:#fcd361;fill-opacity:1;fill-rule:nonzero;stroke:none"
         id="path286" />
      <path
         d="m 2647.43,362.891 -54.5,17.468 25.95,80.95 54.5,-17.457 -25.95,-80.961"
         style="fill:#fabb1e;fill-opacity:1;fill-rule:nonzero;stroke:none"
         id="path288" />
      <path
         d="M 2849.83,232.98 2971.9,756.52 3336.83,669.18 3155.96,159.082 2849.83,232.98"
         style="fill:#fabb1e;fill-opacity:1;fill-rule:nonzero;stroke:none"
         id="path290" />
      <path
         d="m 2768.88,259.789 80.95,-26.809 122.07,523.54 -116.58,-27.5 -86.44,-469.231"
         style="fill:#fabb1e;fill-opacity:1;fill-rule:nonzero;stroke:none"
         id="path292" />
      <path
         d="m 2849.83,232.98 -80.95,26.809 86.44,469.231 116.58,27.5 -122.07,-523.54"
         style="fill:#d59814;fill-opacity:1;fill-rule:nonzero;stroke:none"
         id="path294" />
      <path
         d="m 2323.9,483.781 c -0.07,-34.32 27.69,-62.199 62.01,-62.269 34.32,-0.071 62.21,27.687 62.27,62.008 0.08,34.32 -27.68,62.199 -62.01,62.281 -34.31,0.07 -62.2,-27.692 -62.27,-62.02"
         style="fill:#fabb1e;fill-opacity:1;fill-rule:nonzero;stroke:none"
         id="path296" />
      <path
         d="m 2792.88,1129.84 c 1.48,1.37 152.04,141.02 329.15,93.26 181.12,-48.87 330.67,-321.67 332.15,-324.428 l 50.34,27.219 c -6.54,12.109 -162.51,297.239 -367.59,352.459 -208.57,56.25 -376.42,-100.33 -383.46,-107.03 l 39.41,-41.48"
         style="fill:#fabb1e;fill-opacity:1;fill-rule:nonzero;stroke:none"
         id="path298" />
      <path
         d="m 3454.18,898.672 c -1.48,2.758 -151.03,275.558 -332.15,324.428 -25.85,6.97 -51.13,9.95 -75.46,9.95 -142.42,0 -252.43,-102.04 -253.69,-103.21 l -39.41,41.48 c 5.97,5.68 127.63,119.2 291.73,119.2 29.35,0 60.09,-3.63 91.73,-12.17 205.08,-55.22 361.05,-340.35 367.59,-352.459 l -50.34,-27.219"
         style="fill:#fcd361;fill-opacity:1;fill-rule:nonzero;stroke:none"
         id="path300" />
      <path
         d="m 3387.43,624.031 108.47,57.27 c -10.42,19.719 -23.23,53.59 -25.1,84.179 -2.41,39.641 13.32,53.579 30.67,62.739 38.01,20.07 60.68,12.113 76.18,2.992 21.73,-12.832 43.82,-39.082 62.21,-73.91 l 108.46,57.25 c -29.69,56.219 -66.13,97.371 -108.34,122.281 -42.11,24.809 -110.24,44.988 -195.77,-0.16 -66.66,-35.192 -100.69,-98.633 -95.82,-178.641 3.83,-62.949 30.86,-118.472 39.04,-134"
         style="fill:#fabb1e;fill-opacity:1;fill-rule:nonzero;stroke:none"
         id="path302" />
      <path
         d="m 2815.75,1320.93 c 23.51,16.25 47.58,31.54 71.72,46.7 24.09,15.25 48.58,29.83 73.08,44.41 24.61,14.37 49.24,28.72 74.25,42.41 l 37.53,20.5 c 12.71,6.52 25.23,13.33 38.09,19.58 -11.71,-8.2 -23.74,-15.86 -35.6,-23.81 l -36.12,-22.9 c -24.09,-15.25 -48.58,-29.83 -73.07,-44.39 -24.62,-14.36 -49.25,-28.71 -74.27,-42.39 -24.96,-13.78 -50,-27.42 -75.61,-40.11"
         style="fill:#17282f;fill-opacity:1;fill-rule:nonzero;stroke:none"
         id="path304" />
      <path
         d="m 2753.47,1086.92 c 33.66,-19.18 65.56,-40.82 97.04,-63.08 31.3,-22.49 62.16,-45.61 91.25,-71.211 -33.68,19.16 -65.59,40.812 -97.05,63.071 -31.29,22.51 -62.15,45.64 -91.24,71.22"
         style="fill:#17282f;fill-opacity:1;fill-rule:nonzero;stroke:none"
         id="path306" />
      <path
         d="m 2808.75,1115.7 c 25.98,-7.89 51.56,-16.8 77.08,-25.87 25.56,-8.97 50.83,-18.67 76.11,-28.36 25.19,-9.93 50.36,-19.87 75.27,-30.52 l 37.34,-16.03 c 12.31,-5.68 24.75,-11.04 36.95,-17.01 -13.02,3.86 -25.82,8.31 -38.73,12.44 l -38.35,13.43 c -25.55,8.97 -50.84,18.66 -76.1,28.37 -25.18,9.94 -50.37,19.87 -75.26,30.54 -24.94,10.56 -49.83,21.28 -74.31,33.01"
         style="fill:#17282f;fill-opacity:1;fill-rule:nonzero;stroke:none"
         id="path308" />
      <path
         d="m 2882.56,1298.98 c 24.9,6.47 49.99,11.86 75.11,17.09 25.08,5.34 50.32,9.91 75.55,14.47 25.28,4.32 50.55,8.63 75.96,12.19 l 38.12,5.28 c 12.78,1.4 25.48,3.14 38.32,4.25 -12.44,-3.34 -24.98,-6.05 -37.47,-9.08 l -37.63,-8.03 c -25.1,-5.33 -50.33,-9.9 -75.57,-14.45 -25.27,-4.32 -50.55,-8.64 -75.97,-12.17 -25.39,-3.66 -50.81,-7.14 -76.42,-9.55"
         style="fill:#17282f;fill-opacity:1;fill-rule:nonzero;stroke:none"
         id="path310" />
      <path
         d="m 2282.48,1143.28 c 4.22,20.24 11.01,39.95 19.79,58.75 8.79,18.77 19.55,36.79 33.05,52.8 13.54,15.84 30.2,29.81 50.25,37.54 20.05,7.48 43,7.42 63.11,-0.61 20.35,-7.93 36.4,-25.04 45.05,-44.69 4.48,-9.82 7.31,-20.35 8.46,-31.12 1.01,-10.75 0.58,-21.94 -3.7,-32.67 -2.18,-5.28 -5.59,-10.61 -11.05,-14.16 -2.64,-1.84 -5.87,-2.89 -9.04,-3.38 -3.13,-0.45 -6.32,-0.31 -9.96,0.95 -6.69,2.84 -10.04,8.23 -12.91,13.08 -2.57,5.04 -4.56,10.19 -5.91,15.41 -5.62,20.87 -6.19,42.11 -5.2,63.09 2.98,41.81 13.96,83.63 36.49,119.61 11.38,17.78 25.63,34.14 43.36,46.11 17.5,12.04 37.99,20.32 58.9,22.72 10.3,2.5 20.93,2.26 31.44,2.77 5.26,0.56 10.5,-0.71 15.74,-0.99 5.22,-0.7 10.55,-0.6 15.63,-2.11 20.77,-3.72 40.31,-12.07 58.54,-22.16 18.14,-10.45 34.28,-23.87 49.02,-38.43 14.61,-14.7 27.9,-30.8 38.58,-48.51 -23.65,33.75 -54.1,63.04 -90.01,82.67 -18.06,9.39 -37.16,17.09 -57.27,20.22 -4.9,1.36 -10.04,1.13 -15.07,1.69 -5.05,0.14 -10.08,1.3 -15.14,0.62 -10.1,-0.74 -20.25,-0.69 -30.1,-3.34 -20.16,-2.84 -38.86,-10.94 -55.32,-22.24 -16.53,-11.32 -29.88,-26.86 -40.6,-43.86 -21.23,-34.39 -31.62,-75.01 -34.22,-115.37 -1.13,-20.17 -0.62,-40.79 4.42,-59.95 2.41,-9.16 6.74,-19.49 13.05,-22.37 0.81,-0.07 1.34,-0.51 2.32,-0.54 0.99,0.07 2.03,-0.14 2.96,0.09 1.89,0.32 3.75,0.83 5.34,1.97 3.28,2.06 5.88,5.72 7.63,9.92 3.5,8.49 4.15,18.57 3.26,28.29 -0.98,9.77 -3.48,19.46 -7.52,28.47 -7.91,17.98 -21.94,33.52 -40.12,41.14 -18.08,7.67 -39.26,8.3 -58.01,1.77 -18.87,-6.77 -35.16,-19.78 -48.75,-34.85 -27.2,-30.49 -45.57,-68.64 -56.49,-108.33"
         style="fill:#17282f;fill-opacity:1;fill-rule:nonzero;stroke:none"
         id="path312" />
      <path
         d="m 1358.43,884.121 c 9.66,18.188 23.85,33.93 40.42,46.367 16.55,12.442 35.55,22.094 56,26.832 20.34,4.871 42.19,4.95 62.53,-1.23 20.36,-6.102 38.7,-18.039 53.38,-33.238 14.78,-15.204 25.83,-33.672 33.42,-53.301 7.46,-19.672 11.92,-40.742 10.34,-62.289 -1.07,-10.602 -3.22,-22.043 -11.6,-31.211 -4.16,-4.52 -10.59,-7.492 -16.85,-7.59 -6.02,0.059 -11.71,0.949 -17.24,3.898 -5.48,2.821 -9.88,7.75 -12.4,13.192 -2.54,5.449 -3.5,11.219 -3.75,16.801 -0.4,11.199 2.01,21.828 5.31,31.949 6.71,20.269 17.73,38.531 30.61,55.09 12.95,16.531 28.19,31.25 45.27,43.5 33.88,24.609 77.03,38.269 119.14,32.769 20.78,-2.82 41.4,-8.808 59.59,-19.41 18.35,-10.25 34.26,-24.48 47.23,-40.738 12.96,-16.332 23.06,-34.684 30.84,-53.801 7.78,-19.129 13.52,-39.102 16.34,-59.481 -8.4,40.071 -24.88,78.989 -51.13,110.051 -12.99,15.508 -28.66,28.828 -46.45,38.219 -17.63,9.738 -37.41,14.961 -57.32,17.191 -40,4.348 -80.58,-8.41 -112.85,-32.281 -32.22,-23.711 -58.6,-56.801 -71.93,-94.23 -3.14,-9.321 -5.33,-19.09 -5.04,-28.481 0.22,-9.34 3.5,-18.301 10.99,-22.078 3.52,-2.031 8.31,-2.832 12.5,-2.891 4.05,0.102 7.65,1.719 10.53,4.711 5.84,6.098 8.35,16.059 9.23,25.61 1.57,19.539 -2.47,39.738 -9.46,58.418 -7.09,18.722 -17.6,36.179 -31.2,50.781 -13.56,14.59 -30.66,25.969 -49.59,32.16 -18.89,6.289 -39.6,6.809 -59.27,2.629 -39.38,-8.359 -75.86,-32.98 -97.59,-67.918"
         style="fill:#17282f;fill-opacity:1;fill-rule:nonzero;stroke:none"
         id="path314" />
      <path
         d="m 895.793,3299.08 c -1.129,41.15 -9.863,82.58 -29.016,118.69 -9.593,17.87 -22.308,34.39 -39.007,45.46 -16.665,10.82 -37.375,15.27 -56.762,12.13 -19.473,-3.06 -36.809,-14.81 -48.785,-30.38 -6.071,-7.78 -10.821,-16.59 -14.098,-25.85 -3.18,-9.22 -4.961,-19.16 -3.582,-28.25 0.691,-4.5 2.344,-8.67 5.035,-11.45 1.281,-1.49 2.957,-2.43 4.719,-3.18 0.851,-0.45 1.914,-0.5 2.851,-0.8 0.957,-0.21 1.582,0.09 2.387,-0.03 6.813,1.29 13.488,10.29 18.008,18.6 9.465,17.4 14.891,37.32 18.602,57.17 7.109,39.81 6.707,81.74 -5.7,120.2 -6.343,19.07 -15.601,37.34 -28.961,52.27 -13.285,14.91 -29.507,27.25 -48.41,34.81 -8.929,4.92 -18.804,7.3 -28.429,10.43 -4.758,1.86 -9.907,1.95 -14.848,3.01 -5.012,0.66 -9.953,2.11 -15.051,1.95 -20.262,1.77 -40.652,-1.16 -60.433,-5.96 -39.547,-10.49 -76.114,-31.67 -107.133,-58.8 14.593,14.65 31.34,27.11 49.043,37.9 17.793,10.63 36.668,19.8 56.769,25.63 20.113,5.44 41.082,8.88 62.145,7.54 5.289,0.26 10.445,-1.11 15.668,-1.68 5.164,-0.98 10.547,-0.99 15.535,-2.79 10.082,-3.01 20.461,-5.32 29.855,-10.2 19.743,-7.32 37.664,-20.26 51.785,-36.12 14.36,-15.85 24.301,-35.15 31.102,-55.13 13.285,-40.31 13.977,-83.55 6.887,-124.86 -4.043,-20.62 -9.668,-41.1 -20.106,-60.02 -2.558,-4.74 -5.715,-9.28 -9.414,-13.56 -3.945,-4.02 -8.484,-8.45 -15.664,-9.62 -3.836,-0.35 -6.972,0.28 -9.894,1.46 -2.965,1.23 -5.852,3.02 -7.969,5.44 -4.453,4.75 -6.5,10.74 -7.356,16.38 -1.597,11.44 0.657,22.41 4.204,32.61 3.691,10.18 8.941,19.73 15.644,28.21 13.094,17.01 32.762,29.79 54.41,32.64 21.446,3 43.75,-2.43 61.438,-14.47 17.625,-12.28 30.468,-29.83 39.836,-48.45 9.293,-18.77 15.437,-38.83 19.492,-59.16 4.039,-20.35 5.93,-41.12 5.203,-61.77"
         style="fill:#17282f;fill-opacity:1;fill-rule:nonzero;stroke:none"
         id="path316" />
      <path
         d="m 3103.96,2777.44 c -40.28,8.51 -82.6,9.69 -122.18,-0.51 -19.62,-5.17 -38.65,-13.67 -53.31,-27.33 -14.42,-13.68 -23.57,-32.78 -25.04,-52.36 -1.57,-19.65 5.81,-39.25 18.16,-54.53 6.14,-7.72 13.61,-14.39 21.84,-19.74 8.23,-5.24 17.48,-9.3 26.64,-10.07 4.53,-0.38 8.97,0.26 12.31,2.22 1.74,0.9 3.05,2.31 4.19,3.85 l 1.45,2.58 0.58,2.32 c 0.33,6.93 -6.86,15.51 -13.89,21.85 -14.71,13.27 -32.81,23.18 -51.24,31.43 -37.06,16.2 -77.93,25.6 -118.23,22.5 -20.02,-1.72 -39.94,-6.45 -57.58,-15.96 -17.59,-9.44 -33.37,-22.34 -45.14,-38.95 -6.88,-7.54 -11.48,-16.59 -16.78,-25.22 -2.92,-4.19 -4.2,-9.18 -6.38,-13.74 -1.81,-4.71 -4.38,-9.18 -5.42,-14.17 -6.45,-19.29 -8.35,-39.8 -8.3,-60.16 0.97,-40.9 13.03,-81.4 32.18,-117.89 -10.85,17.61 -19.05,36.8 -25.42,56.53 -6.17,19.77 -10.69,40.27 -11.66,61.18 -0.6,20.83 0.94,42.02 7.16,62.19 0.99,5.2 3.52,9.9 5.29,14.85 2.16,4.79 3.43,10.02 6.34,14.45 5.27,9.1 9.94,18.66 16.88,26.66 11.73,17.48 28.49,31.89 47.21,41.92 18.76,10.26 39.85,15.42 60.86,17.38 42.31,3.51 84.5,-5.91 123.02,-22.44 19.11,-8.74 37.72,-18.99 53.68,-33.55 4.02,-3.6 7.69,-7.73 10.99,-12.32 2.99,-4.78 6.23,-10.23 5.69,-17.48 -0.54,-3.81 -1.89,-6.71 -3.72,-9.29 -1.89,-2.58 -4.31,-4.97 -7.15,-6.48 -5.65,-3.22 -11.96,-3.8 -17.64,-3.32 -11.51,1.12 -21.64,5.86 -30.74,11.7 -9.04,5.97 -17.1,13.29 -23.77,21.79 -13.5,16.7 -21.33,38.8 -19.05,60.52 2.09,21.56 12.57,41.98 28.4,56.37 16.06,14.27 36.12,22.67 56.42,27.43 20.42,4.66 41.35,5.95 62.07,5.15 20.73,-0.82 41.36,-3.82 61.28,-9.36"
         style="fill:#17282f;fill-opacity:1;fill-rule:nonzero;stroke:none"
         id="path318" />
      <path
         d="m 2484.85,3424.44 c -6.83,23.7 -7.76,49.03 -3.9,73.51 3.83,24.46 12.12,48.54 25.66,69.62 13.34,21.11 31.95,39.35 54.46,50.98 22.46,11.72 48.03,16.81 73.22,16.04 25.25,-0.69 50.07,-7.22 72.91,-17.64 22.75,-10.58 44.13,-24.86 60.68,-44.5 7.89,-9.89 15.51,-21.41 15.98,-35.9 0.19,-7.14 -2.71,-14.78 -7.83,-19.96 -5.08,-4.86 -10.63,-8.81 -17.62,-10.84 -6.88,-2.11 -14.53,-1.59 -21.09,0.91 -6.59,2.48 -12.13,6.55 -16.95,11.05 -9.59,9.14 -16.39,20.2 -21.99,31.56 -11.13,22.86 -16.99,47.62 -19.82,72.5 -2.75,24.91 -2.04,50.19 2.3,74.91 8.35,49.27 33.76,96.87 74.21,127.34 20.06,14.97 42.63,27.09 66.98,33.27 24.2,6.6 49.66,7.78 74.34,4.77 24.72,-3.06 48.73,-10.23 71.41,-20.02 22.69,-9.8 44.36,-22.01 63.9,-37.01 -40.62,27.48 -87.3,47.16 -135.87,51.96 -24.18,2.46 -48.84,0.81 -72.03,-6.03 -23.35,-6.4 -44.78,-18.49 -63.8,-33.26 -18.8,-15.06 -34.79,-33.56 -46.49,-54.61 -11.79,-21 -19.5,-44.21 -23.57,-68 -7.78,-47.47 -2.76,-98.05 17.31,-141.52 5.16,-10.69 11.5,-20.96 19.75,-28.89 8.1,-7.91 18.79,-13.08 28.8,-9.91 4.92,1.28 9.77,4.68 13.54,8.25 3.54,3.63 5.38,8.32 5.33,13.5 -0.14,10.5 -6.47,21.21 -13.76,30.21 -15.15,18.2 -35.62,32.16 -57.35,42.34 -21.83,10.13 -45.57,16.32 -69.57,17.41 -23.95,1.1 -48.26,-3.51 -69.74,-14.16 -21.54,-10.55 -39.77,-27.55 -53.12,-47.69 -26.7,-40.34 -37.16,-92.12 -26.28,-140.19"
         style="fill:#17282f;fill-opacity:1;fill-rule:nonzero;stroke:none"
         id="path320" />
      <path
         d="m 1347.82,830.172 c -6.2,-19.692 -27.16,-30.621 -46.82,-24.422 -19.67,6.199 -30.59,27.16 -24.39,46.852 6.2,19.668 27.15,30.589 46.85,24.378 19.64,-6.191 30.56,-27.14 24.36,-46.808 z m -22.81,51.769 c -22.42,7.071 -46.29,-5.39 -53.35,-27.781 -7.06,-22.43 5.39,-46.281 27.79,-53.34 22.39,-7.058 46.24,5.371 53.3,27.782 7.06,22.39 -5.36,46.277 -27.74,53.339 z m 22.81,-51.769 c -6.2,-19.692 -27.16,-30.621 -46.82,-24.422 -19.67,6.199 -30.59,27.16 -24.39,46.852 6.2,19.668 27.15,30.589 46.85,24.378 19.64,-6.191 30.56,-27.14 24.36,-46.808 z m -22.81,51.769 c -22.42,7.071 -46.29,-5.39 -53.35,-27.781 -7.06,-22.43 5.39,-46.281 27.79,-53.34 22.39,-7.058 46.24,5.371 53.3,27.782 7.06,22.39 -5.36,46.277 -27.74,53.339 z m 22.81,-51.769 c -6.2,-19.692 -27.16,-30.621 -46.82,-24.422 -19.67,6.199 -30.59,27.16 -24.39,46.852 6.2,19.668 27.15,30.589 46.85,24.378 19.64,-6.191 30.56,-27.14 24.36,-46.808 z m 4.93,-1.57 c 7.06,22.39 -5.36,46.277 -27.74,53.339 -22.42,7.071 -46.29,-5.39 -53.35,-27.781 -7.06,-22.43 5.39,-46.281 27.79,-53.34 22.39,-7.058 46.24,5.371 53.3,27.782 z m 6.32,-1.981 c -8.15,-25.851 -35.78,-40.25 -61.61,-32.121 -25.84,8.148 -40.24,35.781 -32.09,61.629 8.14,25.859 35.8,40.242 61.63,32.09 25.81,-8.129 40.21,-35.77 32.07,-61.598 z m -19.89,100.238 c -47.25,14.879 -97.56,-11.371 -112.45,-58.55 -14.86,-47.2 11.33,-97.547 58.55,-112.411 47.19,-14.859 97.53,11.352 112.4,58.551 14.88,47.18 -11.32,97.551 -58.5,112.41 z m 8.64,-96.687 c -6.2,-19.692 -27.16,-30.621 -46.82,-24.422 -19.67,6.199 -30.59,27.16 -24.39,46.852 6.2,19.668 27.15,30.589 46.85,24.378 19.64,-6.191 30.56,-27.14 24.36,-46.808 z m -22.81,51.769 c -22.42,7.071 -46.29,-5.39 -53.35,-27.781 -7.06,-22.43 5.39,-46.281 27.79,-53.34 22.39,-7.058 46.24,5.371 53.3,27.782 7.06,22.39 -5.36,46.277 -27.74,53.339 z m 22.81,-51.769 c -6.2,-19.692 -27.16,-30.621 -46.82,-24.422 -19.67,6.199 -30.59,27.16 -24.39,46.852 6.2,19.668 27.15,30.589 46.85,24.378 19.64,-6.191 30.56,-27.14 24.36,-46.808 z m -22.81,51.769 c -22.42,7.071 -46.29,-5.39 -53.35,-27.781 -7.06,-22.43 5.39,-46.281 27.79,-53.34 22.39,-7.058 46.24,5.371 53.3,27.782 7.06,22.39 -5.36,46.277 -27.74,53.339 z m 22.81,-51.769 c -6.2,-19.692 -27.16,-30.621 -46.82,-24.422 -19.67,6.199 -30.59,27.16 -24.39,46.852 6.2,19.668 27.15,30.589 46.85,24.378 19.64,-6.191 30.56,-27.14 24.36,-46.808 z m -22.81,51.769 c -22.42,7.071 -46.29,-5.39 -53.35,-27.781 -7.06,-22.43 5.39,-46.281 27.79,-53.34 22.39,-7.058 46.24,5.371 53.3,27.782 7.06,22.39 -5.36,46.277 -27.74,53.339"
         style="fill:#33535f;fill-opacity:1;fill-rule:nonzero;stroke:none"
         id="path322" />
      <path
         d="m 1302.83,754.27 -32.87,10.359 -5.51,-23.84 29.23,-9.219 9.15,22.7"
         style="fill:#33535f;fill-opacity:1;fill-rule:nonzero;stroke:none"
         id="path324" />
      <path
         d="m 1243.76,785.059 -15.92,30.562 -20.75,-12.949 14.16,-27.192 22.51,9.579"
         style="fill:#33535f;fill-opacity:1;fill-rule:nonzero;stroke:none"
         id="path326" />
      <path
         d="m 1223.76,848.602 10.36,32.867 -23.84,5.5 -9.22,-29.219 22.7,-9.148"
         style="fill:#33535f;fill-opacity:1;fill-rule:nonzero;stroke:none"
         id="path328" />
      <path
         d="m 1254.55,907.672 30.56,15.918 -12.96,20.75 -27.18,-14.16 9.58,-22.508"
         style="fill:#33535f;fill-opacity:1;fill-rule:nonzero;stroke:none"
         id="path330" />
      <path
         d="m 1318.09,927.672 32.86,-10.363 5.52,23.832 -29.24,9.211 -9.14,-22.68"
         style="fill:#33535f;fill-opacity:1;fill-rule:nonzero;stroke:none"
         id="path332" />
      <path
         d="m 1377.15,896.879 15.92,-30.57 20.76,12.961 -14.16,27.191 -22.52,-9.582"
         style="fill:#33535f;fill-opacity:1;fill-rule:nonzero;stroke:none"
         id="path334" />
      <path
         d="m 1397.15,833.34 -10.35,-32.871 23.84,-5.508 9.21,29.23 -22.7,9.149"
         style="fill:#33535f;fill-opacity:1;fill-rule:nonzero;stroke:none"
         id="path336" />
      <path
         d="m 1366.37,774.27 -30.56,-15.918 12.95,-20.75 27.19,14.148 -9.58,22.52"
         style="fill:#33535f;fill-opacity:1;fill-rule:nonzero;stroke:none"
         id="path338" />
      <path
         d="m 2924.37,1211.17 c -21.08,-28.39 -61.13,-34.31 -89.5,-13.26 -28.39,21.07 -34.31,61.12 -13.24,89.51 21.05,28.37 61.1,34.3 89.49,13.23 28.37,-21.06 34.3,-61.11 13.25,-89.48 z m 58.63,-43.51 c 45.08,60.74 32.37,146.54 -28.36,191.62 -60.76,45.1 -146.57,32.39 -191.64,-28.34 -45.1,-60.76 -32.39,-146.57 28.36,-191.66 60.74,-45.08 146.55,-32.38 191.64,28.38"
         style="fill:#17282f;fill-opacity:1;fill-rule:nonzero;stroke:none"
         id="path340" />
      <path
         d="m 2815.89,1128.16 -42.3,31.39 -19.88,-31.68 37.62,-27.92 24.56,28.21"
         style="fill:#17282f;fill-opacity:1;fill-rule:nonzero;stroke:none"
         id="path342" />
      <path
         d="m 2745.96,1202.16 -7.72,52.11 -36.45,-8.34 6.85,-46.35 37.32,2.58"
         style="fill:#17282f;fill-opacity:1;fill-rule:nonzero;stroke:none"
         id="path344" />
      <path
         d="m 2748.84,1303.95 31.38,42.29 -31.67,19.88 -27.92,-37.61 28.21,-24.56"
         style="fill:#17282f;fill-opacity:1;fill-rule:nonzero;stroke:none"
         id="path346" />
      <path
         d="m 2822.83,1373.88 52.11,7.71 -8.34,36.46 -46.35,-6.86 2.58,-37.31"
         style="fill:#17282f;fill-opacity:1;fill-rule:nonzero;stroke:none"
         id="path348" />
      <path
         d="m 2924.62,1371 42.29,-31.39 19.89,31.67 -37.62,27.93 -24.56,-28.21"
         style="fill:#17282f;fill-opacity:1;fill-rule:nonzero;stroke:none"
         id="path350" />
      <path
         d="m 2994.55,1296.99 7.72,-52.11 36.45,8.34 -6.85,46.35 -37.32,-2.58"
         style="fill:#17282f;fill-opacity:1;fill-rule:nonzero;stroke:none"
         id="path352" />
      <path
         d="m 2991.68,1195.22 -31.4,-42.31 31.68,-19.88 27.92,37.63 -28.2,24.56"
         style="fill:#17282f;fill-opacity:1;fill-rule:nonzero;stroke:none"
         id="path354" />
      <path
         d="m 2917.67,1125.28 -52.1,-7.71 8.34,-36.46 46.34,6.86 -2.58,37.31"
         style="fill:#17282f;fill-opacity:1;fill-rule:nonzero;stroke:none"
         id="path356" />
      <path
         d="m 2879.09,1261.51 c 6.6,-4.91 7.97,-14.18 3.08,-20.78 -4.88,-6.58 -14.17,-7.97 -20.77,-3.07 -6.58,4.87 -7.95,14.2 -3.08,20.77 4.9,6.6 14.2,7.95 20.77,3.08 z m -55.16,-18.78 29.1,-36.7 46.34,6.87 17.19,43.54 -29.07,36.68 -46.35,-6.84 -17.21,-43.55"
         style="fill:#17282f;fill-opacity:1;fill-rule:nonzero;stroke:none"
         id="path358" />
      <path
         d="m 3105.66,3789.84 c -5.43,-17.22 -23.76,-26.78 -40.97,-21.35 -17.21,5.42 -26.77,23.76 -21.34,40.98 5.43,17.22 23.76,26.77 40.99,21.34 17.19,-5.42 26.74,-23.75 21.32,-40.97 z m -19.97,45.31 c -19.61,6.18 -40.49,-4.71 -46.67,-24.3 -6.19,-19.63 4.71,-40.5 24.32,-46.68 19.59,-6.18 40.46,4.7 46.64,24.31 6.17,19.59 -4.7,40.49 -24.29,46.67 z m 19.97,-45.31 c -5.43,-17.22 -23.76,-26.78 -40.97,-21.35 -17.21,5.42 -26.77,23.76 -21.34,40.98 5.43,17.22 23.76,26.77 40.99,21.34 17.19,-5.42 26.74,-23.75 21.32,-40.97 z m -19.97,45.31 c -19.61,6.18 -40.49,-4.71 -46.67,-24.3 -6.19,-19.63 4.71,-40.5 24.32,-46.68 19.59,-6.18 40.46,4.7 46.64,24.31 6.17,19.59 -4.7,40.49 -24.29,46.67 z m 19.97,-45.31 c -5.43,-17.22 -23.76,-26.78 -40.97,-21.35 -17.21,5.42 -26.77,23.76 -21.34,40.98 5.43,17.22 23.76,26.77 40.99,21.34 17.19,-5.42 26.74,-23.75 21.32,-40.97 z m 4.32,-1.36 c 6.17,19.59 -4.7,40.49 -24.29,46.67 -19.61,6.18 -40.49,-4.71 -46.67,-24.3 -6.19,-19.63 4.71,-40.5 24.32,-46.68 19.59,-6.18 40.46,4.7 46.64,24.31 z m 5.53,-1.73 c -7.13,-22.62 -31.31,-35.23 -53.92,-28.11 -22.61,7.13 -35.21,31.31 -28.08,53.93 7.13,22.63 31.32,35.21 53.93,28.09 22.59,-7.13 35.19,-31.31 28.07,-53.91 z m -17.41,87.71 c -41.35,13.02 -85.37,-9.95 -98.39,-51.23 -13.01,-41.3 9.91,-85.35 51.23,-98.37 41.29,-13.01 85.34,9.93 98.35,51.23 13.03,41.29 -9.9,85.36 -51.19,98.37 z m 7.56,-84.62 c -5.43,-17.22 -23.76,-26.78 -40.97,-21.35 -17.21,5.42 -26.77,23.76 -21.34,40.98 5.43,17.22 23.76,26.77 40.99,21.34 17.19,-5.42 26.74,-23.75 21.32,-40.97 z m -19.97,45.31 c -19.61,6.18 -40.49,-4.71 -46.67,-24.3 -6.19,-19.63 4.71,-40.5 24.32,-46.68 19.59,-6.18 40.46,4.7 46.64,24.31 6.17,19.59 -4.7,40.49 -24.29,46.67 z m 19.97,-45.31 c -5.43,-17.22 -23.76,-26.78 -40.97,-21.35 -17.21,5.42 -26.77,23.76 -21.34,40.98 5.43,17.22 23.76,26.77 40.99,21.34 17.19,-5.42 26.74,-23.75 21.32,-40.97 z m -19.97,45.31 c -19.61,6.18 -40.49,-4.71 -46.67,-24.3 -6.19,-19.63 4.71,-40.5 24.32,-46.68 19.59,-6.18 40.46,4.7 46.64,24.31 6.17,19.59 -4.7,40.49 -24.29,46.67 z m 19.97,-45.31 c -5.43,-17.22 -23.76,-26.78 -40.97,-21.35 -17.21,5.42 -26.77,23.76 -21.34,40.98 5.43,17.22 23.76,26.77 40.99,21.34 17.19,-5.42 26.74,-23.75 21.32,-40.97 z m -19.97,45.31 c -19.61,6.18 -40.49,-4.71 -46.67,-24.3 -6.19,-19.63 4.71,-40.5 24.32,-46.68 19.59,-6.18 40.46,4.7 46.64,24.31 6.17,19.59 -4.7,40.49 -24.29,46.67"
         style="fill:#17282f;fill-opacity:1;fill-rule:nonzero;stroke:none"
         id="path360" />
      <path
         d="m 3066.29,3723.43 -28.76,9.07 -4.82,-20.86 25.58,-8.07 8,19.86"
         style="fill:#17282f;fill-opacity:1;fill-rule:nonzero;stroke:none"
         id="path362" />
      <path
         d="m 3014.6,3750.38 -13.93,26.74 -18.16,-11.34 12.39,-23.79 19.7,8.39"
         style="fill:#17282f;fill-opacity:1;fill-rule:nonzero;stroke:none"
         id="path364" />
      <path
         d="m 2997.1,3805.97 9.06,28.76 -20.86,4.83 -8.05,-25.58 19.85,-8.01"
         style="fill:#17282f;fill-opacity:1;fill-rule:nonzero;stroke:none"
         id="path366" />
      <path
         d="m 3024.04,3857.66 26.75,13.93 -11.34,18.16 -23.79,-12.39 8.38,-19.7"
         style="fill:#17282f;fill-opacity:1;fill-rule:nonzero;stroke:none"
         id="path368" />
      <path
         d="m 3079.64,3875.16 28.76,-9.06 4.82,20.86 -25.57,8.06 -8.01,-19.86"
         style="fill:#17282f;fill-opacity:1;fill-rule:nonzero;stroke:none"
         id="path370" />
      <path
         d="m 3131.33,3848.22 13.92,-26.74 18.17,11.34 -12.38,23.78 -19.71,-8.38"
         style="fill:#17282f;fill-opacity:1;fill-rule:nonzero;stroke:none"
         id="path372" />
      <path
         d="m 3148.83,3792.63 -9.06,-28.77 20.86,-4.82 8.06,25.58 -19.86,8.01"
         style="fill:#17282f;fill-opacity:1;fill-rule:nonzero;stroke:none"
         id="path374" />
      <path
         d="m 3121.9,3740.93 -26.75,-13.92 11.33,-18.17 23.79,12.39 -8.37,19.7"
         style="fill:#17282f;fill-opacity:1;fill-rule:nonzero;stroke:none"
         id="path376" />
      <path
         d="m 2723.51,2361.19 c -5.43,-17.22 -23.77,-26.78 -40.98,-21.35 -17.21,5.42 -26.77,23.76 -21.34,40.98 5.43,17.21 23.76,26.77 40.99,21.34 17.2,-5.42 26.75,-23.75 21.33,-40.97 z m -19.97,45.31 c -19.61,6.18 -40.5,-4.71 -46.68,-24.3 -6.19,-19.63 4.71,-40.5 24.32,-46.69 19.59,-6.17 40.46,4.71 46.64,24.32 6.17,19.59 -4.69,40.49 -24.28,46.67 z m 19.97,-45.31 c -5.43,-17.22 -23.77,-26.78 -40.98,-21.35 -17.21,5.42 -26.77,23.76 -21.34,40.98 5.43,17.21 23.76,26.77 40.99,21.34 17.2,-5.42 26.75,-23.75 21.33,-40.97 z m -19.97,45.31 c -19.61,6.18 -40.5,-4.71 -46.68,-24.3 -6.19,-19.63 4.71,-40.5 24.32,-46.69 19.59,-6.17 40.46,4.71 46.64,24.32 6.17,19.59 -4.69,40.49 -24.28,46.67 z m 19.97,-45.31 c -5.43,-17.22 -23.77,-26.78 -40.98,-21.35 -17.21,5.42 -26.77,23.76 -21.34,40.98 5.43,17.21 23.76,26.77 40.99,21.34 17.2,-5.42 26.75,-23.75 21.33,-40.97 z m 4.31,-1.36 c 6.17,19.59 -4.69,40.49 -24.28,46.67 -19.61,6.18 -40.5,-4.71 -46.68,-24.3 -6.19,-19.63 4.71,-40.5 24.32,-46.69 19.59,-6.17 40.46,4.71 46.64,24.32 z m 5.53,-1.73 c -7.13,-22.63 -31.32,-35.23 -53.92,-28.11 -22.6,7.13 -35.21,31.31 -28.08,53.93 7.13,22.62 31.33,35.21 53.93,28.08 22.59,-7.12 35.19,-31.3 28.07,-53.9 z m -17.41,87.71 c -41.35,13.01 -85.37,-9.95 -98.39,-51.23 -13.02,-41.31 9.9,-85.36 51.23,-98.37 41.29,-13.01 85.34,9.93 98.35,51.23 13.03,41.29 -9.91,85.36 -51.19,98.37 z m 7.57,-84.62 c -5.43,-17.22 -23.77,-26.78 -40.98,-21.35 -17.21,5.42 -26.77,23.76 -21.34,40.98 5.43,17.21 23.76,26.77 40.99,21.34 17.2,-5.42 26.75,-23.75 21.33,-40.97 z m -19.97,45.31 c -19.61,6.18 -40.5,-4.71 -46.68,-24.3 -6.19,-19.63 4.71,-40.5 24.32,-46.69 19.59,-6.17 40.46,4.71 46.64,24.32 6.17,19.59 -4.69,40.49 -24.28,46.67 z m 19.97,-45.31 c -5.43,-17.22 -23.77,-26.78 -40.98,-21.35 -17.21,5.42 -26.77,23.76 -21.34,40.98 5.43,17.21 23.76,26.77 40.99,21.34 17.2,-5.42 26.75,-23.75 21.33,-40.97 z m -19.97,45.31 c -19.61,6.18 -40.5,-4.71 -46.68,-24.3 -6.19,-19.63 4.71,-40.5 24.32,-46.69 19.59,-6.17 40.46,4.71 46.64,24.32 6.17,19.59 -4.69,40.49 -24.28,46.67 z m 19.97,-45.31 c -5.43,-17.22 -23.77,-26.78 -40.98,-21.35 -17.21,5.42 -26.77,23.76 -21.34,40.98 5.43,17.21 23.76,26.77 40.99,21.34 17.2,-5.42 26.75,-23.75 21.33,-40.97 z m -19.97,45.31 c -19.61,6.18 -40.5,-4.71 -46.68,-24.3 -6.19,-19.63 4.71,-40.5 24.32,-46.69 19.59,-6.17 40.46,4.71 46.64,24.32 6.17,19.59 -4.69,40.49 -24.28,46.67"
         style="fill:#17282f;fill-opacity:1;fill-rule:nonzero;stroke:none"
         id="path378" />
      <path
         d="m 2684.13,2294.78 -28.76,9.06 -4.82,-20.85 25.58,-8.06 8,19.85"
         style="fill:#17282f;fill-opacity:1;fill-rule:nonzero;stroke:none"
         id="path380" />
      <path
         d="m 2632.44,2321.72 -13.92,26.75 -18.17,-11.34 12.39,-23.79 19.7,8.38"
         style="fill:#17282f;fill-opacity:1;fill-rule:nonzero;stroke:none"
         id="path382" />
      <path
         d="m 2614.94,2377.32 9.06,28.76 -20.86,4.83 -8.05,-25.58 19.85,-8.01"
         style="fill:#17282f;fill-opacity:1;fill-rule:nonzero;stroke:none"
         id="path384" />
      <path
         d="m 2641.89,2429.01 26.73,13.93 -11.33,18.16 -23.78,-12.39 8.38,-19.7"
         style="fill:#17282f;fill-opacity:1;fill-rule:nonzero;stroke:none"
         id="path386" />
      <path
         d="m 2697.48,2446.51 28.76,-9.06 4.82,20.86 -25.57,8.06 -8.01,-19.86"
         style="fill:#17282f;fill-opacity:1;fill-rule:nonzero;stroke:none"
         id="path388" />
      <path
         d="m 2749.17,2419.57 13.93,-26.75 18.16,11.35 -12.38,23.78 -19.71,-8.38"
         style="fill:#17282f;fill-opacity:1;fill-rule:nonzero;stroke:none"
         id="path390" />
      <path
         d="m 2766.67,2363.97 -9.06,-28.76 20.86,-4.82 8.06,25.58 -19.86,8"
         style="fill:#17282f;fill-opacity:1;fill-rule:nonzero;stroke:none"
         id="path392" />
      <path
         d="m 2739.74,2312.28 -26.75,-13.92 11.34,-18.17 23.79,12.39 -8.38,19.7"
         style="fill:#17282f;fill-opacity:1;fill-rule:nonzero;stroke:none"
         id="path394" />
      <path
         d="m 455.391,3546.11 c -7.207,-29.59 -36.993,-47.7 -66.547,-40.5 -29.582,7.21 -47.696,37 -40.492,66.57 7.199,29.56 36.992,47.68 66.57,40.47 29.551,-7.2 47.672,-36.99 40.469,-66.54 z m 61.086,-14.89 c 15.414,63.28 -23.395,127.1 -86.672,142.51 -63.305,15.43 -127.117,-23.39 -142.539,-86.66 -15.418,-63.3 23.39,-127.12 86.695,-142.54 63.277,-15.42 127.09,23.39 142.516,86.69"
         style="fill:#17282f;fill-opacity:1;fill-rule:nonzero;stroke:none"
         id="path396" />
      <path
         d="m 397.141,3443.92 -44.071,10.74 -5.164,-31.78 39.199,-9.56 10.036,30.6"
         style="fill:#17282f;fill-opacity:1;fill-rule:nonzero;stroke:none"
         id="path398" />
      <path
         d="m 316.879,3479.21 -23.566,38.75 -26.129,-18.83 20.961,-34.47 28.734,14.55"
         style="fill:#17282f;fill-opacity:1;fill-rule:nonzero;stroke:none"
         id="path400" />
      <path
         d="m 285.074,3560.91 10.739,44.07 -31.79,5.16 -9.55,-39.19 30.601,-10.04"
         style="fill:#17282f;fill-opacity:1;fill-rule:nonzero;stroke:none"
         id="path402" />
      <path
         d="m 320.355,3641.18 38.758,23.56 -18.824,26.13 -34.473,-20.96 14.539,-28.73"
         style="fill:#17282f;fill-opacity:1;fill-rule:nonzero;stroke:none"
         id="path404" />
      <path
         d="m 402.063,3672.98 44.07,-10.74 5.16,31.78 -39.191,9.55 -10.039,-30.59"
         style="fill:#17282f;fill-opacity:1;fill-rule:nonzero;stroke:none"
         id="path406" />
      <path
         d="m 482.324,3637.69 23.571,-38.75 26.128,18.83 -20.964,34.46 -28.735,-14.54"
         style="fill:#17282f;fill-opacity:1;fill-rule:nonzero;stroke:none"
         id="path408" />
      <path
         d="m 514.133,3555.99 -10.738,-44.07 31.785,-5.17 9.55,39.2 -30.597,10.04"
         style="fill:#17282f;fill-opacity:1;fill-rule:nonzero;stroke:none"
         id="path410" />
      <path
         d="m 478.844,3475.72 -38.75,-23.56 18.824,-26.13 34.465,20.96 -14.539,28.73"
         style="fill:#17282f;fill-opacity:1;fill-rule:nonzero;stroke:none"
         id="path412" />
      <path
         d="m 402.621,3570.87 c 6.875,-1.68 11.07,-8.58 9.395,-15.45 -1.668,-6.85 -8.575,-11.07 -15.45,-9.4 -6.847,1.67 -11.062,8.6 -9.394,15.45 1.676,6.88 8.601,11.07 15.449,9.4 z m -37.473,-33.37 35.375,-19.37 34.454,20.97 -0.938,40.29 -35.344,19.37 -34.476,-20.95 0.929,-40.31"
         style="fill:#17282f;fill-opacity:1;fill-rule:nonzero;stroke:none"
         id="path414" />
      <path
         d="m 3182.16,2311.77 c -26.91,40.97 -42.02,87.03 -42.02,135.73 0,171.96 188.83,311.39 421.62,311.39 232.79,0 421.44,-139.43 421.44,-311.39 0,-171.95 -188.65,-311.38 -421.44,-311.38 -112.88,0 -215.21,32.71 -290.81,86.16 l -145.24,-36.93 56.45,126.42"
         style="fill:#ffffff;fill-opacity:1;fill-rule:nonzero;stroke:none"
         id="path416" />
      <path
         d="m 3182.16,2311.77 -55.44,-126.87 -1.27,1.51 144.93,38.07 1,0.27 0.89,-0.61 c 74.77,-51.63 164.97,-78.49 255.24,-83.32 45.23,-2.8 90.73,0.91 135.18,8.94 44.39,8.25 88.13,21.44 128.57,41.62 40.46,19.94 78.15,45.84 109.46,78.13 31.25,32.18 55.96,71.11 68.44,114.12 12.86,42.88 11.64,89.44 -1.65,131.96 -13.2,42.73 -38.48,81.24 -70.14,112.98 -31.73,31.85 -69.69,57.29 -110.34,76.77 -10.36,4.46 -20.42,9.67 -31.03,13.52 l -31.91,11.38 -32.71,8.9 c -10.91,2.94 -22.15,4.47 -33.22,6.78 -44.55,7.55 -90,10.3 -135.19,7.41 -45.14,-3.21 -89.94,-11.42 -133.01,-25.38 -43.07,-13.87 -84.36,-33.77 -121.09,-60.27 -36.74,-26.33 -69.09,-59.23 -92.43,-98.05 -23.75,-38.64 -35.61,-84.08 -35.09,-129.46 0.94,-45.47 16.01,-90.19 40.81,-128.4 z m 0,0 c -25.38,37.81 -41.29,82.46 -42.96,128.33 -1.25,45.77 10.02,92.08 33.52,131.69 22.98,39.91 55.74,73.54 92.74,100.6 37.04,27.22 78.75,47.76 122.27,62.22 43.55,14.54 88.92,23.27 134.68,26.92 45.83,3.35 91.98,0.51 137.27,-6.97 11.24,-2.31 22.66,-3.85 33.78,-6.8 l 33.3,-8.96 32.53,-11.49 c 10.82,-3.9 21.09,-9.17 31.67,-13.69 41.53,-19.75 80.46,-45.63 113.19,-78.3 32.66,-32.54 58.99,-72.3 72.88,-116.79 13.87,-44.32 14.87,-92.99 1.39,-137.57 -13.13,-44.73 -38.86,-84.9 -71.08,-117.87 -32.28,-33.1 -70.9,-59.44 -112.21,-79.64 -41.3,-20.44 -85.8,-33.75 -130.93,-41.95 -45.21,-7.76 -91.34,-11.09 -137.12,-7.86 -45.77,2.89 -91.25,11.26 -134.8,25.64 -43.52,14.33 -85.39,34.34 -122.65,61.14 l 1.87,-0.35 -145.51,-35.78 -2.21,-0.54 0.94,2.05 57.44,125.97"
         style="fill:#17282f;fill-opacity:1;fill-rule:nonzero;stroke:none"
         id="path418" />
      <path
         d="m 3344.87,2396.52 v -23.15 h -94.34 v 135.87 h 92.62 v -23.15 h -66.21 v -32.73 h 57.22 v -21.43 h -57.22 v -35.41 h 67.93"
         style="fill:#17282f;fill-opacity:1;fill-rule:nonzero;stroke:none"
         id="path420" />
      <path
         d="m 3391.96,2442.07 h 33.11 c 2.42,0 4.69,0.57 6.79,1.72 2.11,1.15 3.92,2.71 5.45,4.69 1.54,1.98 2.75,4.3 3.64,6.99 0.9,2.68 1.35,5.55 1.35,8.61 0,3.19 -0.52,6.12 -1.54,8.8 -1.02,2.68 -2.39,5.01 -4.12,6.98 -1.72,1.98 -3.7,3.52 -5.93,4.6 -2.23,1.08 -4.5,1.63 -6.79,1.63 h -31.96 z m -26.41,-68.7 v 135.87 h 60.09 c 6.25,0 12.03,-1.31 17.32,-3.92 5.29,-2.62 9.85,-6.06 13.68,-10.33 3.83,-4.28 6.83,-9.13 9,-14.55 2.16,-5.42 3.25,-10.88 3.25,-16.36 0,-8.8 -2.2,-16.81 -6.6,-24.02 -4.4,-7.21 -10.37,-12.41 -17.9,-15.6 l 31.01,-51.09 h -29.67 l -27.74,45.54 h -26.03 v -45.54 h -26.41"
         style="fill:#17282f;fill-opacity:1;fill-rule:nonzero;stroke:none"
         id="path422" />
      <path
         d="m 3519.22,2442.07 h 33.1 c 2.43,0 4.69,0.57 6.79,1.72 2.11,1.15 3.93,2.71 5.46,4.69 1.53,1.98 2.74,4.3 3.63,6.99 0.9,2.68 1.35,5.55 1.35,8.61 0,3.19 -0.52,6.12 -1.53,8.8 -1.03,2.68 -2.39,5.01 -4.12,6.98 -1.72,1.98 -3.7,3.52 -5.93,4.6 -2.24,1.08 -4.5,1.63 -6.8,1.63 h -31.95 z m -26.42,-68.7 v 135.87 h 60.1 c 6.25,0 12.02,-1.31 17.32,-3.92 5.29,-2.62 9.85,-6.06 13.68,-10.33 3.82,-4.28 6.82,-9.13 8.99,-14.55 2.17,-5.42 3.25,-10.88 3.25,-16.36 0,-8.8 -2.19,-16.81 -6.6,-24.02 -4.39,-7.21 -10.36,-12.41 -17.89,-15.6 l 31.01,-51.09 h -29.67 l -27.75,45.54 h -26.02 v -45.54 h -26.42"
         style="fill:#17282f;fill-opacity:1;fill-rule:nonzero;stroke:none"
         id="path424" />
      <path
         d="m 3638.63,2441.31 c 0,-5.87 0.89,-11.55 2.68,-17.04 1.79,-5.48 4.37,-10.33 7.75,-14.54 3.38,-4.21 7.53,-7.59 12.44,-10.14 4.92,-2.56 10.49,-3.83 16.75,-3.83 6.38,0 12.02,1.3 16.94,3.92 4.91,2.61 9.05,6.09 12.44,10.43 3.38,4.34 5.92,9.22 7.65,14.64 1.72,5.42 2.58,10.94 2.58,16.56 0,5.86 -0.93,11.54 -2.77,17.03 -1.86,5.48 -4.46,10.33 -7.84,14.54 -3.39,4.21 -7.53,7.56 -12.45,10.05 -4.91,2.49 -10.42,3.73 -16.55,3.73 -6.38,0 -12.06,-1.31 -17.03,-3.92 -4.98,-2.62 -9.13,-6.06 -12.44,-10.34 -3.32,-4.27 -5.84,-9.12 -7.56,-14.54 -1.73,-5.43 -2.59,-10.94 -2.59,-16.55 z m 39.43,-68.9 c -9.95,0 -18.98,1.94 -27.08,5.83 -8.11,3.9 -15.06,9.06 -20.86,15.51 -5.81,6.44 -10.31,13.81 -13.5,22.1 -3.18,8.29 -4.77,16.78 -4.77,25.46 0,9.05 1.69,17.72 5.06,26.02 3.38,8.29 8.04,15.63 13.97,22.01 5.94,6.38 12.99,11.45 21.15,15.21 8.17,3.77 17.03,5.65 26.6,5.65 9.83,0 18.78,-2.01 26.89,-6.03 8.1,-4.02 15.03,-9.28 20.76,-15.79 5.74,-6.5 10.21,-13.91 13.4,-22.2 3.19,-8.29 4.78,-16.71 4.78,-25.26 0,-9.06 -1.66,-17.7 -4.97,-25.93 -3.32,-8.23 -7.92,-15.5 -13.78,-21.81 -5.87,-6.32 -12.89,-11.36 -21.05,-15.13 -8.17,-3.76 -17.03,-5.64 -26.6,-5.64"
         style="fill:#17282f;fill-opacity:1;fill-rule:nonzero;stroke:none"
         id="path426" />
      <path
         d="m 3791.16,2442.07 h 33.11 c 2.42,0 4.69,0.57 6.78,1.72 2.11,1.15 3.93,2.71 5.46,4.69 1.54,1.98 2.75,4.3 3.64,6.99 0.9,2.68 1.34,5.55 1.34,8.61 0,3.19 -0.51,6.12 -1.53,8.8 -1.02,2.68 -2.39,5.01 -4.12,6.98 -1.72,1.98 -3.7,3.52 -5.93,4.6 -2.23,1.08 -4.5,1.63 -6.79,1.63 h -31.96 z m -26.41,-68.7 v 135.87 h 60.09 c 6.25,0 12.03,-1.31 17.32,-3.92 5.29,-2.62 9.85,-6.06 13.68,-10.33 3.83,-4.28 6.83,-9.13 8.99,-14.55 2.17,-5.42 3.26,-10.88 3.26,-16.36 0,-8.8 -2.2,-16.81 -6.61,-24.02 -4.39,-7.21 -10.36,-12.41 -17.89,-15.6 l 31.01,-51.09 h -29.67 l -27.74,45.54 h -26.03 v -45.54 h -26.41"
         style="fill:#17282f;fill-opacity:1;fill-rule:nonzero;stroke:none"
         id="path428" />
    </g>
  </g>
</svg>
