<svg width="172" height="98" viewBox="0 0 172 98" fill="none" xmlns="http://www.w3.org/2000/svg">
<g opacity="0.75">
<path d="M24.418 4.73108C24.418 7.27819 22.3531 9.34302 19.806 9.34302C17.2589 9.34302 15.1941 7.27819 15.1941 4.73108C15.1941 2.18398 17.2589 0.119141 19.806 0.119141C22.3531 0.119141 24.418 2.18398 24.418 4.73108Z" fill="white"/>
<path d="M24.418 29.328C24.418 31.8751 22.3531 33.9399 19.806 33.9399C17.2589 33.9399 15.1941 31.8751 15.1941 29.328C15.1941 26.7809 17.2589 24.7161 19.806 24.7161C22.3531 24.7161 24.418 26.7809 24.418 29.328Z" fill="white"/>
<path d="M24.418 53.9252C24.418 56.4723 22.3531 58.5371 19.806 58.5371C17.2589 58.5371 15.1941 56.4723 15.1941 53.9252C15.1941 51.3781 17.2589 49.3132 19.806 49.3132C22.3531 49.3132 24.418 51.3781 24.418 53.9252Z" fill="white"/>
<path d="M24.418 78.5221C24.418 81.0692 22.3531 83.134 19.806 83.134C17.2589 83.134 15.1941 81.0692 15.1941 78.5221C15.1941 75.975 17.2589 73.9102 19.806 73.9102C22.3531 73.9102 24.418 75.975 24.418 78.5221Z" fill="white"/>
<path d="M49.0149 4.73108C49.0149 7.27819 46.9501 9.34302 44.403 9.34302C41.8559 9.34302 39.791 7.27819 39.791 4.73108C39.791 2.18398 41.8559 0.119141 44.403 0.119141C46.9501 0.119141 49.0149 2.18398 49.0149 4.73108Z" fill="white"/>
<path d="M49.0149 29.328C49.0149 31.8751 46.9501 33.9399 44.403 33.9399C41.8559 33.9399 39.791 31.8751 39.791 29.328C39.791 26.7809 41.8559 24.7161 44.403 24.7161C46.9501 24.7161 49.0149 26.7809 49.0149 29.328Z" fill="white"/>
<path d="M49.0149 53.9252C49.0149 56.4723 46.9501 58.5371 44.403 58.5371C41.8559 58.5371 39.791 56.4723 39.791 53.9252C39.791 51.3781 41.8559 49.3132 44.403 49.3132C46.9501 49.3132 49.0149 51.3781 49.0149 53.9252Z" fill="white"/>
<path d="M49.0149 78.5221C49.0149 81.0692 46.9501 83.134 44.403 83.134C41.8559 83.134 39.791 81.0692 39.791 78.5221C39.791 75.975 41.8559 73.9102 44.403 73.9102C46.9501 73.9102 49.0149 75.975 49.0149 78.5221Z" fill="white"/>
<path d="M73.6118 4.73108C73.6118 7.27819 71.547 9.34302 68.9999 9.34302C66.4528 9.34302 64.3879 7.27819 64.3879 4.73108C64.3879 2.18398 66.4528 0.119141 68.9999 0.119141C71.547 0.119141 73.6118 2.18398 73.6118 4.73108Z" fill="white"/>
<path d="M73.6118 29.328C73.6118 31.8751 71.547 33.9399 68.9999 33.9399C66.4528 33.9399 64.3879 31.8751 64.3879 29.328C64.3879 26.7809 66.4528 24.7161 68.9999 24.7161C71.547 24.7161 73.6118 26.7809 73.6118 29.328Z" fill="white"/>
<path d="M73.6118 53.9252C73.6118 56.4723 71.547 58.5371 68.9999 58.5371C66.4528 58.5371 64.3879 56.4723 64.3879 53.9252C64.3879 51.3781 66.4528 49.3132 68.9999 49.3132C71.547 49.3132 73.6118 51.3781 73.6118 53.9252Z" fill="white"/>
<path d="M73.6118 78.5221C73.6118 81.0692 71.547 83.134 68.9999 83.134C66.4528 83.134 64.3879 81.0692 64.3879 78.5221C64.3879 75.975 66.4528 73.9102 68.9999 73.9102C71.547 73.9102 73.6118 75.975 73.6118 78.5221Z" fill="white"/>
<path d="M98.209 4.73108C98.209 7.27819 96.1442 9.34302 93.597 9.34302C91.0499 9.34302 88.9851 7.27819 88.9851 4.73108C88.9851 2.18398 91.0499 0.119141 93.597 0.119141C96.1442 0.119141 98.209 2.18398 98.209 4.73108Z" fill="white"/>
<path d="M98.209 29.328C98.209 31.8751 96.1442 33.9399 93.597 33.9399C91.0499 33.9399 88.9851 31.8751 88.9851 29.328C88.9851 26.7809 91.0499 24.7161 93.597 24.7161C96.1442 24.7161 98.209 26.7809 98.209 29.328Z" fill="white"/>
<path d="M98.209 53.9252C98.209 56.4723 96.1442 58.5371 93.597 58.5371C91.0499 58.5371 88.9851 56.4723 88.9851 53.9252C88.9851 51.3781 91.0499 49.3132 93.597 49.3132C96.1442 49.3132 98.209 51.3781 98.209 53.9252Z" fill="white"/>
<path d="M98.209 78.5221C98.209 81.0692 96.1442 83.134 93.597 83.134C91.0499 83.134 88.9851 81.0692 88.9851 78.5221C88.9851 75.975 91.0499 73.9102 93.597 73.9102C96.1442 73.9102 98.209 75.975 98.209 78.5221Z" fill="white"/>
<path d="M122.806 4.73108C122.806 7.27819 120.741 9.34302 118.194 9.34302C115.647 9.34302 113.582 7.27819 113.582 4.73108C113.582 2.18398 115.647 0.119141 118.194 0.119141C120.741 0.119141 122.806 2.18398 122.806 4.73108Z" fill="white"/>
<path d="M122.806 29.328C122.806 31.8751 120.741 33.9399 118.194 33.9399C115.647 33.9399 113.582 31.8751 113.582 29.328C113.582 26.7809 115.647 24.7161 118.194 24.7161C120.741 24.7161 122.806 26.7809 122.806 29.328Z" fill="white"/>
<path d="M122.806 53.9252C122.806 56.4723 120.741 58.5371 118.194 58.5371C115.647 58.5371 113.582 56.4723 113.582 53.9252C113.582 51.3781 115.647 49.3132 118.194 49.3132C120.741 49.3132 122.806 51.3781 122.806 53.9252Z" fill="white"/>
<path d="M122.806 78.5221C122.806 81.0692 120.741 83.134 118.194 83.134C115.647 83.134 113.582 81.0692 113.582 78.5221C113.582 75.975 115.647 73.9102 118.194 73.9102C120.741 73.9102 122.806 75.975 122.806 78.5221Z" fill="white"/>
<path d="M147.403 4.73108C147.403 7.27819 145.338 9.34302 142.791 9.34302C140.244 9.34302 138.179 7.27819 138.179 4.73108C138.179 2.18398 140.244 0.119141 142.791 0.119141C145.338 0.119141 147.403 2.18398 147.403 4.73108Z" fill="white"/>
<path d="M147.403 29.328C147.403 31.8751 145.338 33.9399 142.791 33.9399C140.244 33.9399 138.179 31.8751 138.179 29.328C138.179 26.7809 140.244 24.7161 142.791 24.7161C145.338 24.7161 147.403 26.7809 147.403 29.328Z" fill="white"/>
<path d="M147.403 53.9252C147.403 56.4723 145.338 58.5371 142.791 58.5371C140.244 58.5371 138.179 56.4723 138.179 53.9252C138.179 51.3781 140.244 49.3132 142.791 49.3132C145.338 49.3132 147.403 51.3781 147.403 53.9252Z" fill="white"/>
<path d="M147.403 78.5221C147.403 81.0692 145.338 83.134 142.791 83.134C140.244 83.134 138.179 81.0692 138.179 78.5221C138.179 75.975 140.244 73.9102 142.791 73.9102C145.338 73.9102 147.403 75.975 147.403 78.5221Z" fill="white"/>
<path d="M172 4.73108C172 7.27819 169.935 9.34302 167.388 9.34302C164.841 9.34302 162.776 7.27819 162.776 4.73108C162.776 2.18398 164.841 0.119141 167.388 0.119141C169.935 0.119141 172 2.18398 172 4.73108Z" fill="white"/>
<path d="M172 29.328C172 31.8751 169.935 33.9399 167.388 33.9399C164.841 33.9399 162.776 31.8751 162.776 29.328C162.776 26.7809 164.841 24.7161 167.388 24.7161C169.935 24.7161 172 26.7809 172 29.328Z" fill="white"/>
<path d="M172 53.9252C172 56.4723 169.935 58.5371 167.388 58.5371C164.841 58.5371 162.776 56.4723 162.776 53.9252C162.776 51.3781 164.841 49.3132 167.388 49.3132C169.935 49.3132 172 51.3781 172 53.9252Z" fill="white"/>
<path d="M172 78.5221C172 81.0692 169.935 83.134 167.388 83.134C164.841 83.134 162.776 81.0692 162.776 78.5221C162.776 75.975 164.841 73.9102 167.388 73.9102C169.935 73.9102 172 75.975 172 78.5221Z" fill="white"/>
</g>
</svg>
