<svg width="781" height="528" viewBox="0 0 781 528" fill="none" xmlns="http://www.w3.org/2000/svg">
<g clip-path="url(#clip0_322_140)">
<rect width="781" height="528" fill="white"/>
<rect y="24.3574" width="781.12" height="477.285" fill="white"/>
<path fill-rule="evenodd" clip-rule="evenodd" d="M618.294 274.593C630.71 254.586 641.004 232.837 649.047 209.845C629.865 209.924 610.025 209.966 589.714 209.966C423.536 209.966 288.822 207.173 288.822 203.728C288.822 200.283 423.536 197.49 589.714 197.49C611.449 197.49 632.645 197.538 653.073 197.629C657.946 181.888 661.792 165.625 664.57 148.99C664.57 59.2494 614.262 73.2371 538.602 94.2736C497.364 105.739 448.595 119.299 396.336 119.299C344.076 119.299 295.307 105.739 254.069 94.2735C179.16 73.4459 129.103 59.5279 128.116 146.348C174.61 145.737 229.726 145.384 288.822 145.384C455 145.384 589.714 148.177 589.714 151.622C589.714 155.067 455 157.86 288.822 157.86C229.775 157.86 174.701 157.508 128.232 156.898C129.118 183.715 134.498 209.471 143.69 233.532C286.752 234.014 395.969 236.587 395.969 239.689C395.969 242.754 289.336 245.303 148.784 245.828C152.422 253.965 156.505 261.886 161.004 269.562C295.471 270.185 395.969 272.674 395.969 275.65C395.969 278.569 299.238 281.02 168.599 281.7C215.971 352.76 300.254 400.042 396.336 400.042C438.26 400.042 476.087 391.019 509.302 374.944C463.829 363.759 436.332 349.191 436.332 333.26C436.332 306.961 511.264 284.376 618.294 274.593Z" fill="#F9A825" fill-opacity="0.1"/>
<ellipse cx="394.149" cy="435.386" rx="64.9487" ry="12.5946" fill="#F9A825" fill-opacity="0.1"/>
<path d="M135.404 139.907V113.356H240.895V139.907H204.388V234.73H171.911V139.907H135.404ZM286.484 183.526V234.73H253.77V113.356H285.299V161.005H286.247C288.302 155.197 291.719 150.673 296.5 147.433C301.281 144.154 307.029 142.514 313.746 142.514C320.186 142.514 325.777 143.976 330.518 146.9C335.299 149.824 338.993 153.854 341.601 158.99C344.248 164.126 345.552 170.013 345.512 176.651V234.73H312.798V183.526C312.837 179.022 311.711 175.485 309.42 172.917C307.168 170.349 303.948 169.065 299.76 169.065C297.113 169.065 294.781 169.658 292.766 170.843C290.791 171.989 289.25 173.648 288.144 175.821C287.077 177.955 286.524 180.523 286.484 183.526ZM387.027 236.153C381.219 236.153 376.083 235.205 371.618 233.308C367.193 231.372 363.716 228.448 361.188 224.537C358.659 220.625 357.395 215.647 357.395 209.602C357.395 204.624 358.244 200.377 359.943 196.86C361.642 193.304 364.013 190.4 367.055 188.148C370.097 185.896 373.633 184.178 377.663 182.992C381.733 181.807 386.118 181.037 390.82 180.681C395.917 180.286 400.006 179.812 403.088 179.259C406.209 178.666 408.461 177.856 409.844 176.829C411.227 175.762 411.918 174.359 411.918 172.621V172.384C411.918 170.013 411.01 168.196 409.192 166.932C407.375 165.667 405.044 165.035 402.199 165.035C399.078 165.035 396.529 165.727 394.554 167.109C392.618 168.453 391.452 170.527 391.057 173.332H360.951C361.346 167.801 363.104 162.704 366.225 158.042C369.386 153.34 373.989 149.587 380.034 146.782C386.079 143.937 393.625 142.514 402.673 142.514C409.192 142.514 415.04 143.285 420.215 144.826C425.391 146.327 429.796 148.441 433.431 151.167C437.066 153.854 439.832 157.015 441.728 160.649C443.664 164.245 444.632 168.156 444.632 172.384V234.73H414.052V221.929H413.341C411.523 225.327 409.311 228.073 406.703 230.167C404.135 232.261 401.191 233.782 397.873 234.73C394.593 235.679 390.978 236.153 387.027 236.153ZM397.695 215.529C400.184 215.529 402.515 215.015 404.688 213.988C406.901 212.961 408.698 211.479 410.081 209.543C411.464 207.607 412.155 205.256 412.155 202.49V194.905C411.286 195.26 410.358 195.596 409.37 195.912C408.422 196.228 407.394 196.524 406.288 196.801C405.221 197.078 404.076 197.334 402.851 197.571C401.665 197.809 400.421 198.026 399.117 198.223C396.588 198.618 394.514 199.27 392.894 200.179C391.314 201.048 390.129 202.135 389.338 203.439C388.588 204.703 388.212 206.125 388.212 207.706C388.212 210.234 389.101 212.17 390.879 213.514C392.657 214.857 394.929 215.529 397.695 215.529ZM492.978 183.526V234.73H460.264V143.7H491.318V161.005H492.267C494.242 155.237 497.719 150.713 502.697 147.433C507.715 144.154 513.562 142.514 520.239 142.514C526.68 142.514 532.27 143.996 537.011 146.959C541.792 149.883 545.486 153.913 548.094 159.049C550.741 164.186 552.045 170.053 552.005 176.651V234.73H519.291V183.526C519.331 179.022 518.185 175.485 515.854 172.917C513.562 170.349 510.362 169.065 506.253 169.065C503.566 169.065 501.215 169.658 499.2 170.843C497.225 171.989 495.704 173.648 494.637 175.821C493.57 177.955 493.017 180.523 492.978 183.526ZM597.55 213.158L597.787 174.28H602.054L624.101 143.7H660.845L623.864 191.349H614.619L597.55 213.158ZM568.155 234.73V113.356H600.869V234.73H568.155ZM624.338 234.73L603.477 198.697L624.812 175.466L661.793 234.73H624.338ZM224.93 315.356H261.675L285.381 364.664H286.329L310.035 315.356H346.779L302.212 398.564V436.73H269.498V398.564L224.93 315.356ZM529.092 315.356H562.043V393.112C562.043 402.357 559.831 410.358 555.406 417.114C551.02 423.831 544.896 429.026 537.034 432.7C529.171 436.335 520.044 438.153 509.653 438.153C499.183 438.153 490.017 436.335 482.154 432.7C474.292 429.026 468.168 423.831 463.782 417.114C459.436 410.358 457.263 402.357 457.263 393.112V315.356H490.214V390.267C490.214 394.02 491.044 397.379 492.704 400.342C494.363 403.266 496.655 405.557 499.578 407.217C502.542 408.876 505.9 409.706 509.653 409.706C513.446 409.706 516.805 408.876 519.728 407.217C522.652 405.557 524.944 403.266 526.603 400.342C528.262 397.379 529.092 394.02 529.092 390.267V315.356Z" fill="#F9A825"/>
<path d="M139.807 136.235H139.073V136.969H139.807V136.235ZM139.807 109.685V108.951H139.073V109.685H139.807ZM245.298 109.685H246.032V108.951H245.298V109.685ZM245.298 136.235V136.969H246.032V136.235H245.298ZM208.791 136.235V135.502H208.057V136.235H208.791ZM208.791 231.059V231.793H209.525V231.059H208.791ZM176.314 231.059H175.58V231.793H176.314V231.059ZM176.314 136.235H177.048V135.502H176.314V136.235ZM140.541 136.235V109.685H139.073V136.235H140.541ZM139.807 110.419H245.298V108.951H139.807V110.419ZM244.564 109.685V136.235H246.032V109.685H244.564ZM245.298 135.502H208.791V136.969H245.298V135.502ZM208.057 136.235V231.059H209.525V136.235H208.057ZM208.791 230.325H176.314V231.793H208.791V230.325ZM177.048 231.059V136.235H175.58V231.059H177.048ZM176.314 135.502H139.807V136.969H176.314V135.502ZM290.888 179.854L290.154 179.845V179.854H290.888ZM290.888 231.059V231.793H291.622V231.059H290.888ZM258.174 231.059H257.44V231.793H258.174V231.059ZM258.174 109.685V108.951H257.44V109.685H258.174ZM289.702 109.685H290.436V108.951H289.702V109.685ZM289.702 157.334H288.968V158.068H289.702V157.334ZM290.651 157.334V158.068H291.169L291.342 157.578L290.651 157.334ZM300.903 143.762L301.315 144.37L301.319 144.367L300.903 143.762ZM334.921 143.229L334.536 143.853L334.538 143.855L334.921 143.229ZM346.004 155.319L345.35 155.651L345.352 155.655L346.004 155.319ZM349.915 172.98L349.181 172.975V172.98H349.915ZM349.915 231.059V231.793H350.649V231.059H349.915ZM317.201 231.059H316.467V231.793H317.201V231.059ZM317.201 179.854L316.467 179.848V179.854H317.201ZM313.823 169.246L313.271 169.73L313.276 169.735L313.823 169.246ZM297.17 167.172L297.538 167.806L297.542 167.804L297.17 167.172ZM292.547 172.15L291.893 171.817L291.891 171.822L292.547 172.15ZM290.154 179.854V231.059H291.622V179.854H290.154ZM290.888 230.325H258.174V231.793H290.888V230.325ZM258.907 231.059V109.685H257.44V231.059H258.907ZM258.174 110.419H289.702V108.951H258.174V110.419ZM288.968 109.685V157.334H290.436V109.685H288.968ZM289.702 158.068H290.651V156.6H289.702V158.068ZM291.342 157.578C293.348 151.908 296.673 147.515 301.315 144.37L300.492 143.155C295.572 146.488 292.062 151.144 289.959 157.089L291.342 157.578ZM301.319 144.367C305.958 141.184 311.557 139.577 318.149 139.577V138.109C311.309 138.109 305.41 139.781 300.488 143.157L301.319 144.367ZM318.149 139.577C324.475 139.577 329.928 141.012 334.536 143.853L335.307 142.604C330.432 139.598 324.704 138.109 318.149 138.109V139.577ZM334.538 143.855C339.2 146.706 342.802 150.632 345.35 155.651L346.658 154.986C343.991 149.733 340.204 145.599 335.304 142.603L334.538 143.855ZM345.352 155.655C347.937 160.671 349.22 166.438 349.182 172.975L350.649 172.984C350.689 166.246 349.365 160.239 346.656 154.982L345.352 155.655ZM349.181 172.98V231.059H350.649V172.98H349.181ZM349.915 230.325H317.201V231.793H349.915V230.325ZM317.935 231.059V179.854H316.467V231.059H317.935ZM317.935 179.861C317.976 175.232 316.817 171.499 314.371 168.757L313.276 169.735C315.412 172.129 316.506 175.468 316.467 179.848L317.935 179.861ZM314.375 168.762C311.953 166 308.51 164.66 304.163 164.66V166.128C308.192 166.128 311.19 167.356 313.271 169.73L314.375 168.762ZM304.163 164.66C301.403 164.66 298.94 165.279 296.798 166.539L297.542 167.804C299.43 166.694 301.629 166.128 304.163 166.128V164.66ZM296.802 166.537C294.695 167.758 293.059 169.527 291.893 171.817L293.201 172.483C294.248 170.427 295.693 168.876 297.538 167.806L296.802 166.537ZM291.891 171.822C290.763 174.076 290.194 176.759 290.154 179.845L291.621 179.864C291.66 176.944 292.197 174.49 293.203 172.478L291.891 171.822ZM376.022 229.637L375.727 230.309L375.735 230.312L376.022 229.637ZM365.591 220.866L364.975 221.264L364.975 221.264L365.591 220.866ZM364.346 193.189L365.007 193.508L365.009 193.505L364.346 193.189ZM371.458 184.477L371.895 185.067L371.895 185.067L371.458 184.477ZM382.067 179.321L381.861 178.616L381.859 178.617L382.067 179.321ZM395.223 177.01L395.279 177.741L395.28 177.741L395.223 177.01ZM407.491 175.587L407.621 176.31L407.628 176.308L407.491 175.587ZM414.247 173.157L414.685 173.747L414.696 173.738L414.247 173.157ZM413.595 163.26L413.176 163.863L413.176 163.863L413.595 163.26ZM398.957 163.438L399.375 164.041L399.378 164.039L398.957 163.438ZM395.46 169.661V170.395H396.098L396.187 169.763L395.46 169.661ZM365.354 169.661L364.622 169.608L364.566 170.395H365.354V169.661ZM370.628 154.37L370.019 153.961L370.019 153.962L370.628 154.37ZM384.437 143.11L384.746 143.776L384.75 143.774L384.437 143.11ZM424.619 141.154L424.409 141.858L424.414 141.859L424.619 141.154ZM437.835 147.496L437.394 148.083L437.398 148.086L437.835 147.496ZM446.132 156.978L445.481 157.318L445.486 157.326L446.132 156.978ZM449.036 231.059V231.793H449.77V231.059H449.036ZM418.455 231.059H417.721V231.793H418.455V231.059ZM418.455 218.258H419.189V217.524H418.455V218.258ZM417.744 218.258V217.524H417.304L417.097 217.912L417.744 218.258ZM411.106 226.496L410.647 225.923L410.643 225.927L411.106 226.496ZM402.276 231.059L402.074 230.353L402.072 230.354L402.276 231.059ZM409.091 210.316L408.782 209.651L408.778 209.653L409.091 210.316ZM414.484 205.872L413.887 205.445L413.887 205.445L414.484 205.872ZM416.559 191.233H417.293V190.14L416.281 190.554L416.559 191.233ZM413.773 192.241L413.55 191.542L413.541 191.544L413.773 192.241ZM410.691 193.13L410.513 192.418L410.507 192.419L410.691 193.13ZM407.254 193.9L407.115 193.18L407.11 193.18L407.254 193.9ZM403.52 194.552L403.41 193.826L403.407 193.827L403.52 194.552ZM397.298 196.508L397.651 197.151L397.657 197.148L397.298 196.508ZM393.742 199.767L393.114 199.387L393.111 199.393L393.742 199.767ZM395.283 209.842L395.725 209.257L395.725 209.257L395.283 209.842ZM391.43 231.748C385.702 231.748 380.666 230.812 376.308 228.961L375.735 230.312C380.306 232.254 385.543 233.215 391.43 233.215V231.748ZM376.316 228.964C372.017 227.084 368.655 224.253 366.207 220.467L364.975 221.264C367.584 225.301 371.175 228.318 375.727 230.309L376.316 228.964ZM366.207 220.467C363.775 216.705 362.532 211.876 362.532 205.931H361.064C361.064 212.076 362.349 217.203 364.975 221.264L366.207 220.467ZM362.532 205.931C362.532 201.034 363.368 196.901 365.007 193.508L363.686 192.87C361.927 196.509 361.064 200.871 361.064 205.931H362.532ZM365.009 193.505C366.658 190.053 368.953 187.245 371.895 185.067L371.021 183.887C367.879 186.214 365.433 189.213 363.684 192.873L365.009 193.505ZM371.895 185.067C374.861 182.871 378.317 181.189 382.274 180.025L381.859 178.617C377.756 179.824 374.14 181.578 371.021 183.887L371.895 185.067ZM382.272 180.026C386.287 178.856 390.622 178.094 395.279 177.741L395.168 176.278C390.421 176.637 385.985 177.415 381.861 178.616L382.272 180.026ZM395.28 177.741C400.388 177.345 404.505 176.869 407.621 176.31L407.361 174.865C404.314 175.412 400.252 175.884 395.167 176.278L395.28 177.741ZM407.628 176.308C410.781 175.71 413.166 174.875 414.685 173.747L413.81 172.568C412.562 173.495 410.444 174.28 407.354 174.866L407.628 176.308ZM414.696 173.738C416.258 172.534 417.055 170.917 417.055 168.95H415.588C415.588 170.459 415.003 171.648 413.799 172.576L414.696 173.738ZM417.055 168.95V168.713H415.588V168.95H417.055ZM417.055 168.713C417.055 166.122 416.045 164.07 414.014 162.658L413.176 163.863C414.781 164.979 415.588 166.562 415.588 168.713H417.055ZM414.014 162.658C412.043 161.286 409.554 160.63 406.602 160.63V162.098C409.34 162.098 411.513 162.705 413.176 163.863L414.014 162.658ZM406.602 160.63C403.374 160.63 400.667 161.345 398.536 162.837L399.378 164.039C401.198 162.765 403.587 162.098 406.602 162.098V160.63ZM398.539 162.835C396.401 164.318 395.151 166.595 394.734 169.558L396.187 169.763C396.56 167.116 397.641 165.244 399.375 164.041L398.539 162.835ZM395.46 168.927H365.354V170.395H395.46V168.927ZM366.086 169.713C366.472 164.311 368.187 159.336 371.238 154.779L370.019 153.962C366.827 158.729 365.026 163.948 364.622 169.608L366.086 169.713ZM371.237 154.78C374.311 150.208 378.801 146.535 384.746 143.776L384.128 142.444C377.983 145.296 373.267 149.13 370.019 153.961L371.237 154.78ZM384.75 143.774C390.669 140.989 398.1 139.577 407.076 139.577V138.109C397.957 138.109 390.296 139.542 384.125 142.446L384.75 143.774ZM407.076 139.577C413.539 139.577 419.314 140.341 424.409 141.858L424.828 140.451C419.572 138.886 413.652 138.109 407.076 138.109V139.577ZM424.414 141.859C429.52 143.34 433.842 145.419 437.394 148.083L438.275 146.909C434.557 144.12 430.069 141.971 424.823 140.45L424.414 141.859ZM437.398 148.086C440.953 150.713 443.641 153.791 445.481 157.318L446.782 156.639C444.829 152.895 441.986 149.652 438.271 146.906L437.398 148.086ZM445.486 157.326C447.362 160.811 448.302 164.602 448.302 168.713H449.77C449.77 164.368 448.774 160.336 446.778 156.63L445.486 157.326ZM448.302 168.713V231.059H449.77V168.713H448.302ZM449.036 230.325H418.455V231.793H449.036V230.325ZM419.189 231.059V218.258H417.721V231.059H419.189ZM418.455 217.524H417.744V218.992H418.455V217.524ZM417.097 217.912C415.319 221.236 413.166 223.9 410.647 225.923L411.566 227.068C414.261 224.903 416.534 222.076 418.391 218.604L417.097 217.912ZM410.643 225.927C408.155 227.955 405.301 229.431 402.074 230.353L402.477 231.765C405.888 230.79 408.922 229.224 411.57 227.064L410.643 225.927ZM402.072 230.354C398.868 231.28 395.323 231.748 391.43 231.748V233.215C395.44 233.215 399.125 232.734 402.48 231.764L402.072 230.354ZM402.098 212.591C404.692 212.591 407.13 212.055 409.405 210.98L408.778 209.653C406.706 210.632 404.483 211.123 402.098 211.123V212.591ZM409.4 210.982C411.725 209.903 413.623 208.34 415.082 206.298L413.887 205.445C412.58 207.275 410.883 208.676 408.782 209.651L409.4 210.982ZM415.082 206.298C416.567 204.218 417.293 201.712 417.293 198.819H415.825C415.825 201.457 415.167 203.653 413.887 205.445L415.082 206.298ZM417.293 198.819V191.233H415.825V198.819H417.293ZM416.281 190.554C415.431 190.902 414.521 191.231 413.55 191.542L413.997 192.94C415.001 192.618 415.948 192.276 416.837 191.912L416.281 190.554ZM413.541 191.544C412.613 191.854 411.604 192.145 410.513 192.418L410.869 193.842C411.991 193.561 413.037 193.26 414.005 192.937L413.541 191.544ZM410.507 192.419C409.457 192.691 408.326 192.945 407.115 193.18L407.394 194.621C408.631 194.381 409.792 194.121 410.876 193.84L410.507 192.419ZM407.11 193.18C405.937 193.415 404.704 193.63 403.41 193.826L403.63 195.278C404.945 195.078 406.2 194.859 407.398 194.62L407.11 193.18ZM403.407 193.827C400.822 194.231 398.657 194.903 396.939 195.868L397.657 197.148C399.178 196.295 401.161 195.663 403.634 195.277L403.407 193.827ZM396.944 195.865C395.272 196.785 393.982 197.954 393.114 199.387L394.369 200.148C395.082 198.973 396.163 197.969 397.651 197.151L396.944 195.865ZM393.111 199.393C392.288 200.779 391.882 202.332 391.882 204.034H393.35C393.35 202.576 393.694 201.284 394.373 200.142L393.111 199.393ZM391.882 204.034C391.882 206.758 392.852 208.926 394.84 210.428L395.725 209.257C394.157 208.072 393.35 206.368 393.35 204.034H391.882ZM394.84 210.428C396.774 211.889 399.212 212.591 402.098 212.591V211.123C399.453 211.123 397.347 210.483 395.725 209.257L394.84 210.428ZM497.381 179.854L496.647 179.845V179.854H497.381ZM497.381 231.059V231.793H498.115V231.059H497.381ZM464.667 231.059H463.933V231.793H464.667V231.059ZM464.667 140.028V139.294H463.933V140.028H464.667ZM495.722 140.028H496.455V139.294H495.722V140.028ZM495.722 157.334H494.988V158.068H495.722V157.334ZM496.67 157.334V158.068H497.194L497.364 157.571L496.67 157.334ZM507.1 143.762L506.699 143.148L506.697 143.149L507.1 143.762ZM541.415 143.288L541.026 143.91L541.032 143.914L541.415 143.288ZM552.497 155.378L551.843 155.71L551.845 155.714L552.497 155.378ZM556.409 172.98L555.675 172.975V172.98H556.409ZM556.409 231.059V231.793H557.143V231.059H556.409ZM523.695 231.059H522.961V231.793H523.695V231.059ZM523.695 179.854L522.961 179.848V179.854H523.695ZM520.257 169.246L519.71 169.735L519.714 169.739L520.257 169.246ZM503.604 167.172L503.972 167.806L503.976 167.804L503.604 167.172ZM499.04 172.15L499.697 172.478L499.699 172.473L499.04 172.15ZM496.647 179.854V231.059H498.115V179.854H496.647ZM497.381 230.325H464.667V231.793H497.381V230.325ZM465.401 231.059V140.028H463.933V231.059H465.401ZM464.667 140.762H495.722V139.294H464.667V140.762ZM494.988 140.028V157.334H496.455V140.028H494.988ZM495.722 158.068H496.67V156.6H495.722V158.068ZM497.364 157.571C499.288 151.953 502.665 147.563 507.504 144.375L506.697 143.149C501.579 146.52 498.002 151.178 495.976 157.096L497.364 157.571ZM507.502 144.376C512.387 141.184 518.091 139.577 524.643 139.577V138.109C517.84 138.109 511.849 139.782 506.699 143.148L507.502 144.376ZM524.643 139.577C530.967 139.577 536.418 141.03 541.026 143.91L541.804 142.666C536.929 139.619 531.199 138.109 524.643 138.109V139.577ZM541.032 143.914C545.693 146.765 549.295 150.692 551.843 155.71L553.152 155.046C550.484 149.792 546.698 145.659 541.798 142.662L541.032 143.914ZM551.845 155.714C554.431 160.731 555.714 166.479 555.675 172.975L557.143 172.984C557.183 166.284 555.858 160.297 553.15 155.042L551.845 155.714ZM555.675 172.98V231.059H557.143V172.98H555.675ZM556.409 230.325H523.695V231.793H556.409V230.325ZM524.428 231.059V179.854H522.961V231.059H524.428ZM524.428 179.861C524.469 175.229 523.289 171.494 520.801 168.753L519.714 169.739C521.887 172.134 522.999 175.472 522.961 179.848L524.428 179.861ZM520.805 168.757C518.347 166.003 514.93 164.66 510.656 164.66V166.128C514.6 166.128 517.584 167.353 519.71 169.735L520.805 168.757ZM510.656 164.66C507.859 164.66 505.375 165.278 503.232 166.539L503.976 167.804C505.862 166.695 508.081 166.128 510.656 166.128V164.66ZM503.236 166.537C501.127 167.76 499.508 169.531 498.382 171.826L499.699 172.473C500.706 170.422 502.13 168.875 503.972 167.806L503.236 166.537ZM498.384 171.822C497.257 174.076 496.688 176.759 496.647 179.845L498.115 179.864C498.153 176.944 498.691 174.49 499.697 172.478L498.384 171.822ZM601.954 209.487L601.22 209.482L601.207 211.632L602.532 209.939L601.954 209.487ZM602.191 170.609V169.875H601.461L601.457 170.605L602.191 170.609ZM606.458 170.609V171.343H606.833L607.053 171.038L606.458 170.609ZM628.504 140.028V139.294H628.129L627.909 139.599L628.504 140.028ZM665.248 140.028L665.828 140.478L666.747 139.294H665.248V140.028ZM628.267 187.677V188.411H628.627L628.847 188.127L628.267 187.677ZM619.022 187.677V186.943H618.664L618.444 187.225L619.022 187.677ZM572.558 231.059H571.824V231.793H572.558V231.059ZM572.558 109.685V108.951H571.824V109.685H572.558ZM605.272 109.685H606.006V108.951H605.272V109.685ZM605.272 231.059V231.793H606.006V231.059H605.272ZM628.741 231.059L628.106 231.427L628.318 231.793H628.741V231.059ZM607.88 195.026L607.34 194.53L606.975 194.927L607.245 195.394L607.88 195.026ZM629.215 171.794L629.838 171.406L629.327 170.587L628.675 171.298L629.215 171.794ZM666.197 231.059V231.793H667.52L666.819 230.671L666.197 231.059ZM602.688 209.491L602.925 170.613L601.457 170.605L601.22 209.482L602.688 209.491ZM602.191 171.343H606.458V169.875H602.191V171.343ZM607.053 171.038L629.1 140.458L627.909 139.599L605.862 170.18L607.053 171.038ZM628.504 140.762H665.248V139.294H628.504V140.762ZM664.669 139.578L627.687 187.227L628.847 188.127L665.828 140.478L664.669 139.578ZM628.267 186.943H619.022V188.411H628.267V186.943ZM618.444 187.225L601.376 209.034L602.532 209.939L619.6 188.13L618.444 187.225ZM573.292 231.059V109.685H571.824V231.059H573.292ZM572.558 110.419H605.272V108.951H572.558V110.419ZM604.539 109.685V231.059H606.006V109.685H604.539ZM605.272 230.325H572.558V231.793H605.272V230.325ZM629.376 230.691L608.515 194.658L607.245 195.394L628.106 231.427L629.376 230.691ZM608.421 195.522L629.756 172.291L628.675 171.298L607.34 194.53L608.421 195.522ZM628.593 172.183L665.574 231.448L666.819 230.671L629.838 171.406L628.593 172.183ZM666.197 230.325H628.741V231.793H666.197V230.325ZM229.334 311.685V310.951H228.108L228.687 312.031L229.334 311.685ZM266.078 311.685L266.739 311.367L266.539 310.951H266.078V311.685ZM289.784 360.993L289.122 361.311L289.322 361.727H289.784V360.993ZM290.732 360.993V361.727H291.194L291.394 361.311L290.732 360.993ZM314.438 311.685V310.951H313.977L313.777 311.367L314.438 311.685ZM351.182 311.685L351.829 312.031L352.408 310.951H351.182V311.685ZM306.615 394.893L305.968 394.546L305.881 394.708V394.893H306.615ZM306.615 433.059V433.793H307.349V433.059H306.615ZM273.901 433.059H273.167V433.793H273.901V433.059ZM273.901 394.893H274.635V394.708L274.548 394.546L273.901 394.893ZM229.334 312.419H266.078V310.951H229.334V312.419ZM265.417 312.003L289.122 361.311L290.445 360.675L266.739 311.367L265.417 312.003ZM289.784 361.727H290.732V360.259H289.784V361.727ZM291.394 361.311L315.099 312.003L313.777 311.367L290.071 360.675L291.394 361.311ZM314.438 312.419H351.182V310.951H314.438V312.419ZM350.535 311.338L305.968 394.546L307.262 395.239L351.829 312.031L350.535 311.338ZM305.881 394.893V433.059H307.349V394.893H305.881ZM306.615 432.325H273.901V433.793H306.615V432.325ZM274.635 433.059V394.893H273.167V433.059H274.635ZM274.548 394.546L229.981 311.338L228.687 312.031L273.254 395.239L274.548 394.546ZM533.495 311.685V310.951H532.762V311.685H533.495ZM566.447 311.685H567.181V310.951H566.447V311.685ZM559.809 413.442L559.195 413.04L559.195 413.041L559.809 413.442ZM541.437 429.029L541.745 429.695L541.748 429.694L541.437 429.029ZM486.558 429.029L486.247 429.694L486.25 429.695L486.558 429.029ZM468.186 413.442L467.568 413.839L467.571 413.844L468.186 413.442ZM461.667 311.685V310.951H460.933V311.685H461.667ZM494.618 311.685H495.352V310.951H494.618V311.685ZM497.107 396.671L496.467 397.029L496.469 397.033L497.107 396.671ZM503.982 403.545L503.619 404.183L503.623 404.186L503.982 403.545ZM524.132 403.545L524.494 404.183L524.494 404.183L524.132 403.545ZM531.006 396.671L531.645 397.033L531.647 397.029L531.006 396.671ZM533.495 312.419H566.447V310.951H533.495V312.419ZM565.713 311.685V389.44H567.181V311.685H565.713ZM565.713 389.44C565.713 398.564 563.531 406.42 559.195 413.04L560.423 413.845C564.937 406.952 567.181 398.807 567.181 389.44H565.713ZM559.195 413.041C554.89 419.634 548.875 424.743 541.126 428.364L541.748 429.694C549.723 425.967 555.957 420.684 560.424 413.844L559.195 413.041ZM541.129 428.363C533.38 431.945 524.362 433.748 514.057 433.748V435.215C524.533 435.215 533.769 433.383 541.745 429.695L541.129 428.363ZM514.057 433.748C503.671 433.748 494.614 431.945 486.866 428.363L486.25 429.695C494.227 433.383 503.502 435.215 514.057 435.215V433.748ZM486.868 428.364C479.119 424.743 473.105 419.634 468.8 413.041L467.571 413.844C472.038 420.684 478.271 425.967 486.247 429.694L486.868 428.364ZM468.803 413.045C464.544 406.425 462.4 398.566 462.4 389.44H460.933C460.933 398.805 463.135 406.948 467.568 413.839L468.803 413.045ZM462.4 389.44V311.685H460.933V389.44H462.4ZM461.667 312.419H494.618V310.951H461.667V312.419ZM493.884 311.685V386.595H495.352V311.685H493.884ZM493.884 386.595C493.884 390.461 494.74 393.945 496.467 397.029L497.747 396.312C496.155 393.469 495.352 390.237 495.352 386.595H493.884ZM496.469 397.033C498.193 400.072 500.58 402.459 503.619 404.183L504.344 402.907C501.535 401.313 499.339 399.117 497.745 396.308L496.469 397.033ZM503.623 404.186C506.707 405.913 510.191 406.768 514.057 406.768V405.3C510.415 405.3 507.183 404.497 504.34 402.905L503.623 404.186ZM514.057 406.768C517.96 406.768 521.446 405.913 524.494 404.183L523.769 402.907C520.97 404.496 517.739 405.3 514.057 405.3V406.768ZM524.494 404.183C527.533 402.459 529.92 400.072 531.645 397.033L530.368 396.308C528.774 399.117 526.578 401.313 523.769 402.907L524.494 404.183ZM531.647 397.029C533.374 393.945 534.229 390.461 534.229 386.595H532.762C532.762 390.237 531.958 393.469 530.366 396.312L531.647 397.029ZM534.229 386.595V311.685H532.762V386.595H534.229Z" fill="#464646"/>
<circle cx="393.782" cy="383.895" r="51.3719" fill="#F9A825"/>
<ellipse cx="379.838" cy="370.319" rx="5.13719" ry="6.9719" fill="#3F3E43"/>
<ellipse cx="409.927" cy="370.319" rx="5.13719" ry="6.9719" fill="#3F3E43"/>
<path d="M429.008 394.797C429.008 409.042 413.401 420.59 394.149 420.59C374.896 420.59 359.289 409.042 359.289 394.797C359.289 380.552 374.896 391.746 394.149 391.746C413.401 391.746 429.008 380.552 429.008 394.797Z" fill="#3F3E43"/>
<path d="M426.073 396.943C426.073 401.896 411.616 405.912 393.782 405.912C375.948 405.912 361.491 401.896 361.491 396.943C361.491 391.989 376.315 397.618 394.149 397.618C411.983 397.618 426.073 391.989 426.073 396.943Z" fill="white"/>
<path d="M367.437 343.657C368.095 344.131 364.541 348.421 360.39 354.173C356.24 359.925 353.064 364.96 352.407 364.486C351.749 364.011 354.581 358.964 358.732 353.212C362.882 347.461 366.78 343.182 367.437 343.657Z" fill="#ED9F21"/>
<g clip-path="url(#clip1_322_140)">
<path d="M535.803 115.472C533.726 120.006 531.752 122.46 531.752 122.46C531.752 122.46 572.288 123.331 562.422 98.4528C545.313 88.0621 540.406 105.414 535.803 115.472Z" fill="#F9A825"/>
<path d="M533.833 121.313C533.833 121.313 536.226 120.009 539.668 117.805C543.109 115.609 547.591 112.503 551.739 109.02C553.812 107.278 555.793 105.428 557.532 103.592C557.97 103.131 558.388 102.677 558.781 102.22C559.19 101.773 559.565 101.313 559.922 100.861C560.295 100.418 560.633 99.9721 560.942 99.54C561.27 99.1101 561.57 98.6857 561.842 98.2669C562.122 97.8578 562.384 97.4554 562.609 97.0661C562.842 96.678 563.073 96.316 563.241 95.9553C563.426 95.5968 563.591 95.2623 563.753 94.954C563.889 94.6338 564.013 94.3475 564.124 94.0863C564.365 93.5661 564.462 93.1347 564.577 92.8473C564.675 92.549 564.721 92.395 564.721 92.395L566.403 92.9191C566.403 92.9191 566.338 93.0885 566.22 93.4021C566.086 93.7048 565.955 94.1942 565.666 94.744C565.535 95.0206 565.381 95.3386 565.225 95.6742C565.044 95.9978 564.851 96.3465 564.636 96.7281C564.43 97.1107 564.181 97.4793 563.919 97.8817C563.666 98.2852 563.376 98.702 563.068 99.1165C562.76 99.5399 562.44 99.9796 562.078 100.405C561.732 100.842 561.358 101.293 560.959 101.732C560.568 102.18 560.157 102.635 559.722 103.079C559.303 103.533 558.85 103.983 558.387 104.432C556.536 106.236 554.457 108.022 552.294 109.699C547.967 113.055 543.347 115.984 539.817 118.036C536.276 120.104 533.833 121.313 533.833 121.313Z" fill="#C28A30"/>
</g>
<g clip-path="url(#clip2_322_140)">
<path d="M533.244 90.9368C534.563 89.5515 535.586 88.9076 535.586 88.9076C535.586 88.9076 520.99 83.5328 521.464 93.7888C526.373 99.6932 530.319 94.0111 533.244 90.9368Z" fill="#F9A825"/>
<path d="M534.688 89.065C534.688 89.065 533.657 89.2394 532.133 89.6095C530.611 89.9765 528.597 90.5438 526.658 91.2898C525.688 91.6628 524.739 92.0869 523.879 92.5358C523.663 92.6483 523.454 92.7609 523.255 92.8778C523.051 92.9887 522.857 93.1086 522.671 93.2284C522.481 93.3423 522.302 93.462 522.136 93.5801C521.964 93.6952 521.802 93.8117 521.651 93.9296C521.498 94.043 521.353 94.1563 521.223 94.2695C521.09 94.3812 520.961 94.4837 520.855 94.5936C520.743 94.7005 520.641 94.8013 520.544 94.8929C520.455 94.992 520.374 95.0805 520.301 95.1613C520.149 95.32 520.06 95.4644 519.983 95.5543C519.91 95.6502 519.874 95.7004 519.874 95.7004L519.329 95.3004C519.329 95.3004 519.374 95.247 519.456 95.148C519.542 95.0549 519.651 94.8937 519.824 94.7303C519.906 94.6463 520.002 94.5502 520.1 94.4479C520.206 94.3532 520.32 94.2508 520.445 94.1392C520.568 94.0261 520.704 93.9235 520.849 93.8101C520.992 93.6953 521.149 93.5804 521.312 93.4684C521.477 93.3533 521.648 93.2337 521.832 93.1245C522.012 93.0093 522.204 92.8924 522.404 92.783C522.602 92.6691 522.807 92.5551 523.02 92.4486C523.229 92.3361 523.45 92.2295 523.674 92.1244C524.57 91.7008 525.547 91.3126 526.541 90.9741C528.53 90.2969 530.571 89.8109 532.108 89.5071C533.65 89.1987 534.688 89.065 534.688 89.065Z" fill="#C28A30"/>
</g>
<ellipse cx="630.459" cy="453.04" rx="23.8512" ry="3.40732" fill="#F6A726"/>
<path d="M628.634 443.111C630.713 447.037 630.925 450.999 629.108 451.961C627.291 452.923 624.133 450.52 622.054 446.594C619.976 442.668 619.763 438.705 621.58 437.743C623.397 436.781 626.555 439.184 628.634 443.111Z" fill="#F6A726"/>
<path d="M634.574 445.006C633.954 449.405 631.8 452.739 629.765 452.452C627.729 452.165 626.581 448.366 627.202 443.967C627.822 439.568 629.975 436.235 632.011 436.522C634.046 436.809 635.194 440.607 634.574 445.006Z" fill="#F6A726"/>
<path d="M640.829 446.221C639.194 450.352 636.319 453.087 634.408 452.331C632.496 451.574 632.271 447.612 633.906 443.482C635.54 439.351 638.415 436.615 640.327 437.372C642.238 438.128 642.463 442.09 640.829 446.221Z" fill="#F6A726"/>
<ellipse cx="180.589" cy="394.328" rx="23.8512" ry="3.40732" fill="#F6A726"/>
<path d="M178.763 384.399C180.842 388.325 181.054 392.288 179.237 393.25C177.42 394.212 174.262 391.809 172.183 387.883C170.105 383.957 169.892 379.994 171.709 379.032C173.526 378.07 176.684 380.473 178.763 384.399Z" fill="#F6A726"/>
<path d="M184.703 386.295C184.083 390.694 181.929 394.027 179.894 393.74C177.858 393.453 176.71 389.655 177.331 385.256C177.951 380.857 180.104 377.523 182.14 377.81C184.175 378.097 185.323 381.896 184.703 386.295Z" fill="#F6A726"/>
<path d="M190.958 387.509C189.323 391.64 186.448 394.376 184.537 393.619C182.625 392.863 182.4 388.901 184.035 384.77C185.669 380.639 188.544 377.904 190.456 378.66C192.367 379.417 192.592 383.379 190.958 387.509Z" fill="#F6A726"/>
</g>
<defs>
<clipPath id="clip0_322_140">
<rect width="781" height="528" fill="white"/>
</clipPath>
<clipPath id="clip1_322_140">
<rect width="30.8231" height="33.8324" fill="white" transform="translate(562.349 126.188) rotate(-173.052)"/>
</clipPath>
<clipPath id="clip2_322_140">
<rect width="11.8244" height="12.9788" fill="white" transform="translate(524.952 83.7378) rotate(25.9327)"/>
</clipPath>
</defs>
</svg>
