<svg width="30" height="30" viewBox="0 0 30 30" fill="none" xmlns="http://www.w3.org/2000/svg">
<mask id="path-1-inside-1_6_2621" fill="white">
<path fill-rule="evenodd" clip-rule="evenodd" d="M9.9842 15.1892C9.98299 15.2822 10.0188 15.372 10.0838 15.4387C10.1487 15.5053 10.2375 15.5435 10.3306 15.5447L18.6081 15.6529L16.3704 17.8322C16.3036 17.8972 16.2654 17.9861 16.2642 18.0793C16.263 18.1725 16.2988 18.2624 16.3639 18.3291C16.4289 18.3959 16.5178 18.4341 16.611 18.4353C16.7042 18.4365 16.7941 18.4007 16.8608 18.3356L19.7051 15.5647C19.7383 15.5325 19.7647 15.4941 19.7829 15.4517C19.8012 15.4093 19.8109 15.3637 19.8115 15.3176C19.8121 15.2714 19.8036 15.2256 19.7865 15.1827C19.7693 15.1399 19.7439 15.1008 19.7116 15.0678L16.9407 12.2235C16.9085 12.1904 16.8701 12.164 16.8277 12.1458C16.7853 12.1276 16.7397 12.1179 16.6936 12.1173C16.6004 12.1161 16.5105 12.1519 16.4438 12.217C16.377 12.282 16.3388 12.3709 16.3376 12.4641C16.3364 12.5573 16.3722 12.6471 16.4373 12.7139L18.6173 14.951L10.3397 14.8428C10.2467 14.8416 10.1569 14.8774 10.0902 14.9423C10.0236 15.0073 9.98542 15.0961 9.9842 15.1892Z"/>
</mask>
<path fill-rule="evenodd" clip-rule="evenodd" d="M9.9842 15.1892C9.98299 15.2822 10.0188 15.372 10.0838 15.4387C10.1487 15.5053 10.2375 15.5435 10.3306 15.5447L18.6081 15.6529L16.3704 17.8322C16.3036 17.8972 16.2654 17.9861 16.2642 18.0793C16.263 18.1725 16.2988 18.2624 16.3639 18.3291C16.4289 18.3959 16.5178 18.4341 16.611 18.4353C16.7042 18.4365 16.7941 18.4007 16.8608 18.3356L19.7051 15.5647C19.7383 15.5325 19.7647 15.4941 19.7829 15.4517C19.8012 15.4093 19.8109 15.3637 19.8115 15.3176C19.8121 15.2714 19.8036 15.2256 19.7865 15.1827C19.7693 15.1399 19.7439 15.1008 19.7116 15.0678L16.9407 12.2235C16.9085 12.1904 16.8701 12.164 16.8277 12.1458C16.7853 12.1276 16.7397 12.1179 16.6936 12.1173C16.6004 12.1161 16.5105 12.1519 16.4438 12.217C16.377 12.282 16.3388 12.3709 16.3376 12.4641C16.3364 12.5573 16.3722 12.6471 16.4373 12.7139L18.6173 14.951L10.3397 14.8428C10.2467 14.8416 10.1569 14.8774 10.0902 14.9423C10.0236 15.0073 9.98542 15.0961 9.9842 15.1892Z" fill="white"/>
<path d="M18.6081 15.6529L20.7012 17.8021L25.891 12.7478L18.6473 12.6531L18.6081 15.6529ZM16.3704 17.8322L14.2773 15.683L14.277 15.6833L16.3704 17.8322ZM16.611 18.4353L16.5718 21.4351L16.611 18.4353ZM16.8608 18.3356L18.9543 20.4845L18.9543 20.4845L16.8608 18.3356ZM19.7051 15.5647L17.6144 13.4132L17.6117 13.4159L19.7051 15.5647ZM19.8115 15.3176L22.8112 15.3568L19.8115 15.3176ZM19.7116 15.0678L17.5628 17.1612L17.5654 17.1639L19.7116 15.0678ZM16.9407 12.2235L19.0896 10.13L16.9407 12.2235ZM16.6936 12.1173L16.6544 15.117L16.6936 12.1173ZM16.4373 12.7139L14.2884 14.8073L14.2887 14.8077L16.4373 12.7139ZM18.6173 14.951L18.5781 17.9507L25.8218 18.0454L20.7658 12.8572L18.6173 14.951ZM6.98446 15.15C6.97285 16.0386 7.31472 16.8955 7.93489 17.5321L12.2326 13.3452C12.7229 13.8485 12.9931 14.5259 12.9839 15.2284L6.98446 15.15ZM7.93489 17.5321C8.55506 18.1687 9.40271 18.5328 10.2914 18.5444L10.3698 12.545C11.0723 12.5541 11.7424 12.842 12.2326 13.3452L7.93489 17.5321ZM10.2914 18.5444L18.5689 18.6526L18.6473 12.6531L10.3698 12.545L10.2914 18.5444ZM16.5151 13.5037L14.2773 15.683L18.4635 19.9814L20.7012 17.8021L16.5151 13.5037ZM14.277 15.6833C13.6403 16.3036 13.2761 17.1513 13.2645 18.0401L19.264 18.1185C19.2548 18.8209 18.967 19.4909 18.4638 19.9811L14.277 15.6833ZM13.2645 18.0401C13.2529 18.9289 13.5948 19.7859 14.215 20.4226L18.5127 16.2357C19.0029 16.7389 19.2731 17.4161 19.264 18.1185L13.2645 18.0401ZM14.215 20.4226C14.8353 21.0592 15.683 21.4234 16.5718 21.4351L16.6502 15.4356C17.3526 15.4447 18.0226 15.7326 18.5127 16.2357L14.215 20.4226ZM16.5718 21.4351C17.4606 21.4467 18.3176 21.1048 18.9543 20.4845L14.7674 16.1868C15.2706 15.6966 15.9478 15.4264 16.6502 15.4356L16.5718 21.4351ZM18.9543 20.4845L21.7986 17.7136L17.6117 13.4159L14.7674 16.1868L18.9543 20.4845ZM21.7958 17.7162C22.112 17.409 22.3644 17.0425 22.5386 16.6377L17.0273 14.2658C17.165 13.9458 17.3646 13.656 17.6144 13.4132L21.7958 17.7162ZM22.5386 16.6377C22.7128 16.2328 22.8055 15.7975 22.8112 15.3568L16.8118 15.2784C16.8163 14.93 16.8896 14.5859 17.0273 14.2658L22.5386 16.6377ZM22.8112 15.3568C22.817 14.9161 22.7358 14.4785 22.5722 14.0692L17.0008 16.2962C16.8714 15.9727 16.8072 15.6268 16.8118 15.2784L22.8112 15.3568ZM22.5722 14.0692C22.4086 13.66 22.1658 13.287 21.8579 12.9716L17.5654 17.1639C17.322 16.9146 17.1301 16.6198 17.0008 16.2962L22.5722 14.0692ZM21.8605 12.9743L19.0896 10.13L14.7919 14.3169L17.5628 17.1612L21.8605 12.9743ZM19.0896 10.13C18.7825 9.81478 18.4163 9.56311 18.0119 9.38939L15.6435 14.9022C15.324 14.7649 15.0346 14.566 14.7919 14.3169L19.0896 10.13ZM18.0119 9.38939C17.6075 9.21567 17.1729 9.12329 16.7328 9.11754L16.6544 15.117C16.3066 15.1125 15.9631 15.0395 15.6435 14.9022L18.0119 9.38939ZM16.7328 9.11754C15.844 9.10592 14.987 9.44785 14.3503 10.0681L18.5372 14.3658C18.034 14.856 17.3568 15.1262 16.6544 15.117L16.7328 9.11754ZM14.3503 10.0681C13.7137 10.6883 13.3495 11.5361 13.3379 12.4249L19.3373 12.5033C19.3282 13.2057 19.0403 13.8756 18.5372 14.3658L14.3503 10.0681ZM13.3379 12.4249C13.3262 13.3137 13.6682 14.1707 14.2884 14.8073L18.5861 10.6205C19.0763 11.1236 19.3465 11.8009 19.3373 12.5033L13.3379 12.4249ZM14.2887 14.8077L16.4688 17.0447L20.7658 12.8572L18.5858 10.6201L14.2887 14.8077ZM18.6565 11.9512L10.3789 11.843L10.3005 17.8425L18.5781 17.9507L18.6565 11.9512ZM10.3789 11.843C9.49028 11.8314 8.6334 12.1733 7.99682 12.7935L12.1837 17.0912C11.6804 17.5814 11.003 17.8517 10.3005 17.8425L10.3789 11.843ZM7.99682 12.7935C7.36023 13.4136 6.99607 14.2613 6.98446 15.15L12.9839 15.2284C12.9748 15.9309 12.6869 16.6009 12.1837 17.0912L7.99682 12.7935Z" fill="white" mask="url(#path-1-inside-1_6_2621)"/>
<mask id="path-3-inside-2_6_2621" fill="white">
<path d="M4.80988 15.9977C4.60286 16.0201 4.45255 16.2063 4.4824 16.4124C4.77316 18.4198 5.63818 20.3035 6.97698 21.8344C8.39863 23.4601 10.2858 24.6093 12.3825 25.1262C14.4793 25.6432 16.6844 25.5029 18.6988 24.7244C20.7132 23.946 22.4395 22.5669 23.6437 20.7742C24.8479 18.9816 25.4717 16.862 25.4307 14.7028C25.3896 12.5436 24.6857 10.4492 23.4142 8.70361C22.1427 6.95799 20.3653 5.64555 18.3228 4.94418C16.3993 4.28369 14.3283 4.19522 12.36 4.68514C12.1579 4.73543 12.0424 4.94498 12.0999 5.14511V5.14511C12.1574 5.34525 12.3661 5.46014 12.5683 5.4104C14.3879 4.96284 16.3007 5.04712 18.0779 5.65738C19.9741 6.30851 21.6243 7.52697 22.8047 9.14757C23.9851 10.7682 24.6387 12.7125 24.6768 14.7171C24.7149 16.7217 24.1357 18.6895 23.0177 20.3538C21.8997 22.018 20.2971 23.2983 18.4269 24.0211C16.5568 24.7438 14.5097 24.874 12.5631 24.3941C10.6164 23.9141 8.86444 22.8472 7.54461 21.338C6.30762 19.9235 5.5063 18.1847 5.23259 16.331C5.20217 16.125 5.01689 15.9752 4.80988 15.9977V15.9977Z"/>
</mask>
<path d="M4.80988 15.9977C4.60286 16.0201 4.45255 16.2063 4.4824 16.4124C4.77316 18.4198 5.63818 20.3035 6.97698 21.8344C8.39863 23.4601 10.2858 24.6093 12.3825 25.1262C14.4793 25.6432 16.6844 25.5029 18.6988 24.7244C20.7132 23.946 22.4395 22.5669 23.6437 20.7742C24.8479 18.9816 25.4717 16.862 25.4307 14.7028C25.3896 12.5436 24.6857 10.4492 23.4142 8.70361C22.1427 6.95799 20.3653 5.64555 18.3228 4.94418C16.3993 4.28369 14.3283 4.19522 12.36 4.68514C12.1579 4.73543 12.0424 4.94498 12.0999 5.14511V5.14511C12.1574 5.34525 12.3661 5.46014 12.5683 5.4104C14.3879 4.96284 16.3007 5.04712 18.0779 5.65738C19.9741 6.30851 21.6243 7.52697 22.8047 9.14757C23.9851 10.7682 24.6387 12.7125 24.6768 14.7171C24.7149 16.7217 24.1357 18.6895 23.0177 20.3538C21.8997 22.018 20.2971 23.2983 18.4269 24.0211C16.5568 24.7438 14.5097 24.874 12.5631 24.3941C10.6164 23.9141 8.86444 22.8472 7.54461 21.338C6.30762 19.9235 5.5063 18.1847 5.23259 16.331C5.20217 16.125 5.01689 15.9752 4.80988 15.9977V15.9977Z" stroke="white" stroke-width="4" mask="url(#path-3-inside-2_6_2621)"/>
</svg>
