<svg width="18" height="11" viewBox="0 0 18 11" fill="none" xmlns="http://www.w3.org/2000/svg">
<mask id="mask0_31_41" style="mask-type:luminance" maskUnits="userSpaceOnUse" x="0" y="0" width="18" height="11">
<path fill-rule="evenodd" clip-rule="evenodd" d="M17.1098 5.65164C17.1119 5.48973 17.0495 5.33338 16.9364 5.21726C16.8234 5.1013 16.6688 5.03479 16.5067 5.03271L2.09522 4.84432L5.99115 1.05007C6.10745 0.936905 6.17396 0.782127 6.17605 0.619861C6.17814 0.457596 6.11581 0.301077 6.00246 0.18495C5.8893 0.0686483 5.73452 0.00214013 5.57225 5.08769e-05C5.40999 -0.00203837 5.25347 0.0602909 5.13734 0.173633L0.185298 4.99788C0.127495 5.05394 0.081532 5.1208 0.049845 5.19462C0.017984 5.26844 0.00109632 5.34783 5.16906e-05 5.42809C-0.000992934 5.50853 0.0138052 5.58827 0.0435771 5.66296C0.073523 5.73748 0.117745 5.80555 0.17398 5.86301L4.99823 10.8151C5.05429 10.8727 5.12115 10.9186 5.19497 10.9503C5.26879 10.982 5.34818 10.9989 5.42844 10.9999C5.59071 11.002 5.74723 10.9397 5.86336 10.8264C5.97966 10.7132 6.04617 10.5584 6.04825 10.3962C6.05034 10.2339 5.98801 10.0775 5.87467 9.96124L2.0792 6.06636L16.4908 6.25474C16.6528 6.25683 16.8091 6.1945 16.9252 6.08151C17.0412 5.96834 17.1077 5.81373 17.1098 5.65164Z" fill="white"/>
</mask>
<g mask="url(#mask0_31_41)">
<path d="M2.09583 4.84433L-1.54836 1.10249L-10.584 9.90223L2.02758 10.0671L2.09583 4.84433ZM0.185905 4.99789L3.8259 8.74374L3.8306 8.73904L0.185905 4.99789ZM0.174588 5.86302L3.91574 2.21832L3.91121 2.21362L0.174588 5.86302ZM2.07981 6.06637L2.14806 0.843768L-10.4635 0.678892L-1.66087 9.71176L2.07981 6.06637ZM22.333 5.7199C22.3534 4.17281 21.7581 2.68092 20.6783 1.57257L13.1958 8.86213C12.3422 7.98587 11.8718 6.80649 11.8878 5.5834L22.333 5.7199ZM20.6783 1.57257C19.5985 0.464221 18.1228 -0.169693 16.5755 -0.189889L16.439 10.2553C15.216 10.2395 14.0493 9.73823 13.1958 8.86213L20.6783 1.57257ZM16.5755 -0.189889L2.16408 -0.37827L2.02758 10.0671L16.439 10.2553L16.5755 -0.189889ZM5.73983 8.58618L9.63593 4.79193L2.34758 -2.69176L-1.54836 1.10249L5.73983 8.58618ZM9.63593 4.79193C10.7444 3.71196 11.3791 2.23556 11.3993 0.688119L0.953879 0.551622C0.969896 -0.671286 1.47149 -1.83831 2.34758 -2.69176L9.63593 4.79193ZM11.3993 0.688119C11.4195 -0.859319 10.8242 -2.35139 9.74439 -3.45986L2.26192 3.82965C1.40846 2.95356 0.938035 1.77453 0.953879 0.551622L11.3993 0.688119ZM9.74439 -3.45986C8.66443 -4.56833 7.18855 -5.20242 5.64111 -5.22265L5.50461 5.22266C4.2817 5.20682 3.11521 4.70557 2.26192 3.82965L9.74439 -3.45986ZM5.64111 -5.22265C4.09367 -5.24286 2.6016 -4.64756 1.49308 -3.56768L8.78265 3.91479C7.90655 4.76825 6.72752 5.23868 5.50461 5.22266L5.64111 -5.22265ZM1.49308 -3.56768L-3.45891 1.25657L3.8306 8.73904L8.78265 3.91479L1.49308 -3.56768ZM-3.45418 1.25204C-4.00454 1.78689 -4.44398 2.42498 -4.74732 3.12975L4.84807 7.25933C4.60832 7.81646 4.26081 8.32102 3.8259 8.74374L-3.45418 1.25204ZM-4.74732 3.12975C-5.05068 3.8347 -5.21198 4.59258 -5.22201 5.35985L5.22326 5.49635C5.21542 6.10293 5.08781 6.70202 4.84807 7.25933L-4.74732 3.12975ZM-5.22201 5.35985C-5.23204 6.12713 -5.0906 6.88901 -4.80576 7.60162L4.8942 3.72432C5.11949 4.28755 5.23127 4.88977 5.22326 5.49635L-5.22201 5.35985ZM-4.80576 7.60162C-4.52093 8.31405 -4.09833 8.96346 -3.56212 9.51259L3.91121 2.21362C4.33498 2.64766 4.66909 3.16092 4.8942 3.72432L-4.80576 7.60162ZM-3.56674 9.50788L1.25752 14.4599L8.73999 7.17036L3.91574 2.21832L-3.56674 9.50788ZM1.25752 14.4599C1.79219 15.0087 2.42976 15.4469 3.13384 15.7493L7.25732 6.15133C7.81358 6.39038 8.31744 6.73667 8.73999 7.17036L1.25752 14.4599ZM3.13384 15.7493C3.83791 16.0518 4.59457 16.2126 5.3608 16.2227L5.4973 5.77736C6.10283 5.78519 6.70088 5.91229 7.25732 6.15133L3.13384 15.7493ZM5.3608 16.2227C6.90824 16.2429 8.40031 15.6477 9.50883 14.5677L2.21927 7.08523C3.09536 6.23177 4.27439 5.76134 5.4973 5.77736L5.3608 16.2227ZM9.50883 14.5677C10.6172 13.4879 11.2513 12.0119 11.2715 10.4644L0.82626 10.3279C0.842103 9.10501 1.34335 7.93869 2.21927 7.08523L9.50883 14.5677ZM11.2715 10.4644C11.2918 8.91698 10.6964 7.4249 9.61661 6.31656L2.13413 13.6059C1.28067 12.73 0.810242 11.5508 0.82626 10.3279L11.2715 10.4644ZM9.61661 6.31656L5.82044 2.42115L-1.66087 9.71176L2.13413 13.6059L9.61661 6.31656ZM2.01156 11.2891L16.4232 11.4775L16.5597 1.03215L2.14806 0.843768L2.01156 11.2891ZM16.4232 11.4775C17.9703 11.4977 19.4622 10.9025 20.5705 9.82266L13.281 2.34019C14.1572 1.48673 15.3366 1.01613 16.5597 1.03215L16.4232 11.4775ZM20.5705 9.82266C21.6789 8.74304 22.3128 7.26717 22.333 5.7199L11.8878 5.5834C11.9036 4.36032 12.4049 3.19383 13.281 2.34019L20.5705 9.82266Z" fill="black"/>
</g>
</svg>
