<svg width="18" height="11" viewBox="0 0 18 11" fill="none" xmlns="http://www.w3.org/2000/svg">
<mask id="mask0_31_41" style="mask-type:luminance" maskUnits="userSpaceOnUse" x="0" y="0" width="18" height="11">
<path fill-rule="evenodd" clip-rule="evenodd" d="M-0.000410619 5.65164C-0.00249987 5.48973 0.0598291 5.33338 0.172997 5.21726C0.28599 5.1013 0.440597 5.03479 0.602688 5.03271L15.0142 4.84432L11.1182 1.05007C11.0019 0.936905 10.9354 0.782127 10.9333 0.619861C10.9312 0.457596 10.9936 0.301077 11.1069 0.18495C11.2201 0.0686483 11.3749 0.00214013 11.5371 5.08769e-05C11.6994 -0.00203837 11.8559 0.0602909 11.972 0.173633L16.9241 4.99788C16.9819 5.05394 17.0278 5.1208 17.0595 5.19462C17.0914 5.26844 17.1083 5.34783 17.1093 5.42809C17.1104 5.50853 17.0956 5.58827 17.0658 5.66296C17.0359 5.73748 16.9916 5.80555 16.9354 5.86301L12.1111 10.8151C12.0551 10.8727 11.9882 10.9186 11.9144 10.9503C11.8406 10.982 11.7612 10.9989 11.6809 10.9999C11.5187 11.002 11.3621 10.9397 11.246 10.8264C11.1297 10.7132 11.0632 10.5584 11.0611 10.3962C11.059 10.2339 11.1214 10.0775 11.2347 9.96124L15.0302 6.06636L0.618532 6.25474C0.456615 6.25683 0.300269 6.1945 0.184141 6.08151C0.068188 5.96834 0.00167863 5.81373 -0.000410619 5.65164Z" fill="white"/>
</mask>
<g mask="url(#mask0_31_41)">
<path d="M15.0135 4.84433L18.6577 1.10249L27.6934 9.90223L15.0818 10.0671L15.0135 4.84433ZM16.9235 4.99789L13.2835 8.74374L13.2788 8.73904L16.9235 4.99789ZM16.9348 5.86302L13.1936 2.21832L13.1982 2.21362L16.9348 5.86302ZM15.0296 6.06637L14.9613 0.843768L27.5728 0.678892L18.7702 9.71176L15.0296 6.06637ZM-5.22362 5.7199C-5.24399 4.17281 -4.64873 2.68092 -3.56893 1.57257L3.91354 8.86213C4.76717 7.98587 5.2376 6.80649 5.22158 5.5834L-5.22362 5.7199ZM-3.56893 1.57257C-2.48914 0.464221 -1.01343 -0.169693 0.533832 -0.189889L0.670329 10.2553C1.89341 10.2395 3.06008 9.73823 3.91354 8.86213L-3.56893 1.57257ZM0.533832 -0.189889L14.9453 -0.37827L15.0818 10.0671L0.670329 10.2553L0.533832 -0.189889ZM11.3695 8.58618L7.47345 4.79193L14.7618 -2.69176L18.6577 1.10249L11.3695 8.58618ZM7.47345 4.79193C6.36493 3.71196 5.73032 2.23556 5.71012 0.688119L16.1555 0.551622C16.1395 -0.671286 15.6379 -1.83831 14.7618 -2.69176L7.47345 4.79193ZM5.71012 0.688119C5.68992 -0.859319 6.28519 -2.35139 7.36498 -3.45986L14.8475 3.82965C15.7009 2.95356 16.1713 1.77453 16.1555 0.551622L5.71012 0.688119ZM7.36498 -3.45986C8.44495 -4.56833 9.92083 -5.20242 11.4683 -5.22265L11.6048 5.22266C12.8277 5.20682 13.9942 4.70557 14.8475 3.82965L7.36498 -3.45986ZM11.4683 -5.22265C13.0157 -5.24286 14.5078 -4.64756 15.6163 -3.56768L8.32673 3.91479C9.20282 4.76825 10.3819 5.23868 11.6048 5.22266L11.4683 -5.22265ZM15.6163 -3.56768L20.5683 1.25657L13.2788 8.73904L8.32673 3.91479L15.6163 -3.56768ZM20.5636 1.25204C21.1139 1.78689 21.5534 2.42498 21.8567 3.12975L12.2613 7.25933C12.5011 7.81646 12.8486 8.32102 13.2835 8.74374L20.5636 1.25204ZM21.8567 3.12975C22.1601 3.8347 22.3214 4.59258 22.3314 5.35985L11.8861 5.49635C11.894 6.10293 12.0216 6.70202 12.2613 7.25933L21.8567 3.12975ZM22.3314 5.35985C22.3414 6.12713 22.2 6.88901 21.9151 7.60162L12.2152 3.72432C11.9899 4.28755 11.8781 4.88977 11.8861 5.49635L22.3314 5.35985ZM21.9151 7.60162C21.6303 8.31405 21.2077 8.96346 20.6715 9.51259L13.1982 2.21362C12.7744 2.64766 12.4403 3.16092 12.2152 3.72432L21.9151 7.60162ZM20.6761 9.50788L15.8519 14.4599L8.36938 7.17036L13.1936 2.21832L20.6761 9.50788ZM15.8519 14.4599C15.3172 15.0087 14.6796 15.4469 13.9755 15.7493L9.85206 6.15133C9.29579 6.39038 8.79193 6.73667 8.36938 7.17036L15.8519 14.4599ZM13.9755 15.7493C13.2715 16.0518 12.5148 16.2126 11.7486 16.2227L11.6121 5.77736C11.0065 5.78519 10.4085 5.91229 9.85206 6.15133L13.9755 15.7493ZM11.7486 16.2227C10.2011 16.2429 8.70906 15.6477 7.60054 14.5677L14.8901 7.08523C14.014 6.23177 12.835 5.76134 11.6121 5.77736L11.7486 16.2227ZM7.60054 14.5677C6.4922 13.4879 5.85811 12.0119 5.83791 10.4644L16.2831 10.3279C16.2673 9.10501 15.766 7.93869 14.8901 7.08523L7.60054 14.5677ZM5.83791 10.4644C5.81754 8.91698 6.41298 7.4249 7.49277 6.31656L14.9752 13.6059C15.8287 12.73 16.2991 11.5508 16.2831 10.3279L5.83791 10.4644ZM7.49277 6.31656L11.2889 2.42115L18.7702 9.71176L14.9752 13.6059L7.49277 6.31656ZM15.0978 11.2891L0.686172 11.4775L0.549675 1.03215L14.9613 0.843768L15.0978 11.2891ZM0.686172 11.4775C-0.860917 11.4977 -2.35282 10.9025 -3.46116 9.82266L3.8284 2.34019C2.95214 1.48673 1.77276 1.01613 0.549675 1.03215L0.686172 11.4775ZM-3.46116 9.82266C-4.56951 8.74304 -5.20342 7.26717 -5.22362 5.7199L5.22158 5.5834C5.20574 4.36032 4.7045 3.19383 3.8284 2.34019L-3.46116 9.82266Z" fill="black"/>
</g>
</svg>
