<svg width="30" height="30" viewBox="0 0 30 30" fill="none" xmlns="http://www.w3.org/2000/svg">
<mask id="path-1-inside-1_9_2626" fill="white">
<path fill-rule="evenodd" clip-rule="evenodd" d="M20.0158 14.8108C20.017 14.7178 19.9812 14.628 19.9162 14.5613C19.8513 14.4947 19.7625 14.4565 19.6694 14.4553L11.3919 14.3471L13.6296 12.1678C13.6964 12.1028 13.7346 12.0139 13.7358 11.9207C13.737 11.8275 13.7012 11.7376 13.6361 11.6709C13.5711 11.6041 13.4822 11.5659 13.389 11.5647C13.2958 11.5635 13.2059 11.5993 13.1392 11.6644L10.2949 14.4353C10.2617 14.4675 10.2353 14.5059 10.2171 14.5483C10.1988 14.5907 10.1891 14.6363 10.1885 14.6824C10.1879 14.7286 10.1964 14.7744 10.2135 14.8173C10.2307 14.8601 10.2561 14.8992 10.2884 14.9322L13.0593 17.7765C13.0915 17.8096 13.1299 17.836 13.1723 17.8542C13.2147 17.8724 13.2603 17.8821 13.3064 17.8827C13.3996 17.8839 13.4895 17.8481 13.5562 17.783C13.623 17.718 13.6612 17.6291 13.6624 17.5359C13.6636 17.4427 13.6278 17.3529 13.5627 17.2861L11.3827 15.049L19.6603 15.1572C19.7533 15.1584 19.8431 15.1226 19.9098 15.0577C19.9764 14.9927 20.0146 14.9039 20.0158 14.8108Z"/>
</mask>
<path fill-rule="evenodd" clip-rule="evenodd" d="M20.0158 14.8108C20.017 14.7178 19.9812 14.628 19.9162 14.5613C19.8513 14.4947 19.7625 14.4565 19.6694 14.4553L11.3919 14.3471L13.6296 12.1678C13.6964 12.1028 13.7346 12.0139 13.7358 11.9207C13.737 11.8275 13.7012 11.7376 13.6361 11.6709C13.5711 11.6041 13.4822 11.5659 13.389 11.5647C13.2958 11.5635 13.2059 11.5993 13.1392 11.6644L10.2949 14.4353C10.2617 14.4675 10.2353 14.5059 10.2171 14.5483C10.1988 14.5907 10.1891 14.6363 10.1885 14.6824C10.1879 14.7286 10.1964 14.7744 10.2135 14.8173C10.2307 14.8601 10.2561 14.8992 10.2884 14.9322L13.0593 17.7765C13.0915 17.8096 13.1299 17.836 13.1723 17.8542C13.2147 17.8724 13.2603 17.8821 13.3064 17.8827C13.3996 17.8839 13.4895 17.8481 13.5562 17.783C13.623 17.718 13.6612 17.6291 13.6624 17.5359C13.6636 17.4427 13.6278 17.3529 13.5627 17.2861L11.3827 15.049L19.6603 15.1572C19.7533 15.1584 19.8431 15.1226 19.9098 15.0577C19.9764 14.9927 20.0146 14.9039 20.0158 14.8108Z" fill="white"/>
<path d="M11.3919 14.3471L9.29879 12.1979L4.10901 17.2522L11.3527 17.3469L11.3919 14.3471ZM13.6296 12.1678L15.7227 14.317L15.723 14.3167L13.6296 12.1678ZM13.389 11.5647L13.4282 8.56494L13.389 11.5647ZM13.1392 11.6644L11.0457 9.5155L11.0457 9.5155L13.1392 11.6644ZM10.2949 14.4353L12.3856 16.5868L12.3883 16.5841L10.2949 14.4353ZM10.1885 14.6824L7.18876 14.6432L10.1885 14.6824ZM10.2884 14.9322L12.4372 12.8388L12.4346 12.8361L10.2884 14.9322ZM13.0593 17.7765L10.9104 19.87L13.0593 17.7765ZM13.3064 17.8827L13.3456 14.883L13.3064 17.8827ZM13.5627 17.2861L15.7116 15.1927L15.7113 15.1923L13.5627 17.2861ZM11.3827 15.049L11.4219 12.0493L4.17824 11.9546L9.23417 17.1428L11.3827 15.049ZM23.0155 14.85C23.0272 13.9614 22.6853 13.1045 22.0651 12.4679L17.7674 16.6548C17.2771 16.1515 17.0069 15.4741 17.0161 14.7716L23.0155 14.85ZM22.0651 12.4679C21.4449 11.8313 20.5973 11.4672 19.7086 11.4556L19.6302 17.455C18.9277 17.4459 18.2576 17.158 17.7674 16.6548L22.0651 12.4679ZM19.7086 11.4556L11.4311 11.3474L11.3527 17.3469L19.6302 17.455L19.7086 11.4556ZM13.4849 16.4963L15.7227 14.317L11.5365 10.0186L9.29879 12.1979L13.4849 16.4963ZM15.723 14.3167C16.3597 13.6964 16.7239 12.8487 16.7355 11.9599L10.736 11.8815C10.7452 11.1791 11.033 10.5091 11.5362 10.0189L15.723 14.3167ZM16.7355 11.9599C16.7471 11.0711 16.4052 10.2141 15.785 9.57743L11.4873 13.7643C10.9971 13.2611 10.7269 12.5839 10.736 11.8815L16.7355 11.9599ZM15.785 9.57743C15.1647 8.94076 14.317 8.57656 13.4282 8.56494L13.3498 14.5644C12.6474 14.5553 11.9774 14.2674 11.4873 13.7643L15.785 9.57743ZM13.4282 8.56494C12.5394 8.55333 11.6824 8.89525 11.0457 9.5155L15.2326 13.8132C14.7294 14.3034 14.0522 14.5736 13.3498 14.5644L13.4282 8.56494ZM11.0457 9.5155L8.20143 12.2864L12.3883 16.5841L15.2326 13.8132L11.0457 9.5155ZM8.20415 12.2838C7.88804 12.591 7.63564 12.9575 7.46141 13.3623L12.9727 15.7342C12.835 16.0542 12.6354 16.344 12.3856 16.5868L8.20415 12.2838ZM7.46141 13.3623C7.28717 13.7672 7.19452 14.2025 7.18876 14.6432L13.1882 14.7216C13.1837 15.07 13.1104 15.4141 12.9727 15.7342L7.46141 13.3623ZM7.18876 14.6432C7.183 15.0839 7.26424 15.5215 7.42784 15.9308L12.9992 13.7038C13.1286 14.0273 13.1928 14.3732 13.1882 14.7216L7.18876 14.6432ZM7.42784 15.9308C7.59144 16.34 7.83417 16.713 8.14215 17.0284L12.4346 12.8361C12.678 13.0854 12.8699 13.3802 12.9992 13.7038L7.42784 15.9308ZM8.1395 17.0257L10.9104 19.87L15.2081 15.6831L12.4372 12.8388L8.1395 17.0257ZM10.9104 19.87C11.2175 20.1852 11.5837 20.4369 11.9881 20.6106L14.3565 15.0978C14.676 15.2351 14.9654 15.434 15.2081 15.6831L10.9104 19.87ZM11.9881 20.6106C12.3925 20.7843 12.8271 20.8767 13.2672 20.8825L13.3456 14.883C13.6934 14.8875 14.0369 14.9605 14.3565 15.0978L11.9881 20.6106ZM13.2672 20.8825C14.156 20.8941 15.013 20.5522 15.6497 19.9319L11.4628 15.6342C11.966 15.144 12.6432 14.8738 13.3456 14.883L13.2672 20.8825ZM15.6497 19.9319C16.2863 19.3117 16.6505 18.4639 16.6621 17.5751L10.6627 17.4967C10.6718 16.7943 10.9597 16.1244 11.4628 15.6342L15.6497 19.9319ZM16.6621 17.5751C16.6738 16.6863 16.3318 15.8293 15.7116 15.1927L11.4139 19.3795C10.9237 18.8764 10.6535 18.1991 10.6627 17.4967L16.6621 17.5751ZM15.7113 15.1923L13.5312 12.9553L9.23417 17.1428L11.4142 19.3799L15.7113 15.1923ZM11.3435 18.0488L19.6211 18.157L19.6995 12.1575L11.4219 12.0493L11.3435 18.0488ZM19.6211 18.157C20.5097 18.1686 21.3666 17.8267 22.0032 17.2065L17.8163 12.9088C18.3196 12.4186 18.997 12.1483 19.6995 12.1575L19.6211 18.157ZM22.0032 17.2065C22.6398 16.5864 23.0039 15.7387 23.0155 14.85L17.0161 14.7716C17.0252 14.0691 17.3131 13.3991 17.8163 12.9088L22.0032 17.2065Z" fill="white" mask="url(#path-1-inside-1_9_2626)"/>
<mask id="path-3-inside-2_9_2626" fill="white">
<path d="M25.1901 14.0023C25.3971 13.9799 25.5474 13.7937 25.5176 13.5876C25.2268 11.5802 24.3618 9.69648 23.023 8.16558C21.6014 6.53994 19.7142 5.39074 17.6175 4.87378C15.5207 4.35681 13.3156 4.49708 11.3012 5.27556C9.28684 6.05404 7.56054 7.43309 6.35634 9.22577C5.15213 11.0184 4.52827 13.138 4.56931 15.2972C4.61036 17.4564 5.31433 19.5508 6.58579 21.2964C7.85726 23.042 9.63472 24.3545 11.6772 25.0558C13.6007 25.7163 15.6717 25.8048 17.64 25.3149C17.8421 25.2646 17.9576 25.055 17.9001 24.8549V24.8549C17.8426 24.6547 17.6339 24.5399 17.4317 24.5896C15.6121 25.0372 13.6993 24.9529 11.9221 24.3426C10.0259 23.6915 8.37572 22.473 7.19531 20.8524C6.0149 19.2318 5.36135 17.2875 5.32324 15.2829C5.28514 13.2783 5.86433 11.3105 6.98229 9.64624C8.10026 7.98195 9.70293 6.70166 11.5731 5.97893C13.4432 5.2562 15.4903 5.12598 17.4369 5.60592C19.3836 6.08586 21.1356 7.15276 22.4554 8.66198C23.6924 10.0765 24.4937 11.8153 24.7674 13.669C24.7978 13.875 24.9831 14.0248 25.1901 14.0023V14.0023Z"/>
</mask>
<path d="M25.1901 14.0023C25.3971 13.9799 25.5474 13.7937 25.5176 13.5876C25.2268 11.5802 24.3618 9.69648 23.023 8.16558C21.6014 6.53994 19.7142 5.39074 17.6175 4.87378C15.5207 4.35681 13.3156 4.49708 11.3012 5.27556C9.28684 6.05404 7.56054 7.43309 6.35634 9.22577C5.15213 11.0184 4.52827 13.138 4.56931 15.2972C4.61036 17.4564 5.31433 19.5508 6.58579 21.2964C7.85726 23.042 9.63472 24.3545 11.6772 25.0558C13.6007 25.7163 15.6717 25.8048 17.64 25.3149C17.8421 25.2646 17.9576 25.055 17.9001 24.8549V24.8549C17.8426 24.6547 17.6339 24.5399 17.4317 24.5896C15.6121 25.0372 13.6993 24.9529 11.9221 24.3426C10.0259 23.6915 8.37572 22.473 7.19531 20.8524C6.0149 19.2318 5.36135 17.2875 5.32324 15.2829C5.28514 13.2783 5.86433 11.3105 6.98229 9.64624C8.10026 7.98195 9.70293 6.70166 11.5731 5.97893C13.4432 5.2562 15.4903 5.12598 17.4369 5.60592C19.3836 6.08586 21.1356 7.15276 22.4554 8.66198C23.6924 10.0765 24.4937 11.8153 24.7674 13.669C24.7978 13.875 24.9831 14.0248 25.1901 14.0023V14.0023Z" stroke="white" stroke-width="4" mask="url(#path-3-inside-2_9_2626)"/>
</svg>
